<?xml version="1.0" encoding="UTF-8" standalone="no"?>
<!-- Created with Inkscape (http://www.inkscape.org/) -->

<svg
   xmlns:dc="http://purl.org/dc/elements/1.1/"
   xmlns:cc="http://creativecommons.org/ns#"
   xmlns:rdf="http://www.w3.org/1999/02/22-rdf-syntax-ns#"
   xmlns:svg="http://www.w3.org/2000/svg"
   xmlns="http://www.w3.org/2000/svg"
   xmlns:sodipodi="http://sodipodi.sourceforge.net/DTD/sodipodi-0.dtd"
   xmlns:inkscape="http://www.inkscape.org/namespaces/inkscape"
   width="300px"
   height="500px"
   viewBox="0 0 300 500"
   version="1.1"
   id="svg7485"
   inkscape:version="0.92.2 (5c3e80d, 2017-08-06)"
   sodipodi:docname="ukmap2.svg">
  <metadata
     id="metadata28">
    <rdf:RDF>
      <cc:Work
         rdf:about="">
        <dc:format>image/svg+xml</dc:format>
        <dc:type
           rdf:resource="http://purl.org/dc/dcmitype/StillImage" />
      </cc:Work>
    </rdf:RDF>
  </metadata>
  <defs
     id="defs26" />
  <sodipodi:namedview
     pagecolor="#ffffff"
     bordercolor="#666666"
     borderopacity="1"
     objecttolerance="10"
     gridtolerance="10"
     guidetolerance="10"
     inkscape:pageopacity="0"
     inkscape:pageshadow="2"
     inkscape:window-width="1600"
     inkscape:window-height="1138"
     id="namedview24"
     showgrid="false"
     inkscape:zoom="1.878"
     inkscape:cx="90.180403"
     inkscape:cy="228.95095"
     inkscape:window-x="-8"
     inkscape:window-y="-8"
     inkscape:window-maximized="1"
     inkscape:current-layer="svg7485" />
  <path
     inkscape:connector-curvature="0"
     style="fill:#ffffff;stroke:#231f20;stroke-width:1.0161041;stroke-miterlimit:10"
     d="m 147.38415,22.718196 1.4621,2.82188 -0.62689,1.30068 -6.46949,-2.386964 -6.05285,2.170514 -9.18343,1.086284 -6.05285,1.300679 -5.00933,-2.819826 -2.92227,1.519147 -3.13058,-1.519147 -5.21764,-3.256796 -2.08706,2.170513 -2.503702,4.992393 3.338902,3.906109 -3.13058,0.867778 -1.670417,1.302735 1.670417,5.641705 -5.427891,1.519146 -3.547228,0.651367 2.713948,4.341026 1.043527,3.038291 h -2.297305 l -2.920336,-0.651328 4.799072,5.208796 3.757475,4.341026 -5.844533,0.21653 -2.922266,3.038331 -4.17411,-2.819865 -1.460169,3.254781 -2.922266,-0.651367 -1.878736,0.867779 v 5.425294 l 3.549153,2.170513 -3.757474,4.557437 3.757474,3.908164 1.04353,1.952046 -1.462099,0.218506 -4.174114,-2.60543 -1.043528,3.254742 -0.416639,3.689698 2.295376,4.992393 5.009323,0.434917 -2.922266,3.689659 -4.801002,1.735596 -2.712018,-2.82188 -3.340836,-2.386964 -1.878735,-3.473208 0.626887,-6.076622 0.208319,-4.341026 -3.965794,-7.377301 -3.130587,2.603374 0.210259,4.773927 1.876809,3.689659 -1.043526,1.302695 -1.87874,-1.954062 -3.130583,-3.038292 -2.295379,-1.084268 -1.043526,1.954102 0.626887,5.206788 -3.549153,-3.471192 -1.251849,2.386924 0.626887,4.124614 2.712019,2.603375 1.878735,0.434917 2.087057,-3.689659 2.713949,3.038331 -1.87874,3.254742 4.801001,7.379318 4.382436,-0.651329 1.46017,3.038289 2.088983,-3.25474 1.87681,1.08423 -0.83328,2.82188 -2.088986,4.77389 2.922266,-1.08423 1.878739,-1.7356 2.922266,-4.99239 2.295375,-1.519147 1.878739,0.21653 -4.801005,7.379317 2.713944,2.38696 -5.21764,1.9541 -2.713945,6.07663 5.63621,0.21652 -3.965793,4.34104 -2.5037,1.30273 -6.679737,0.43286 -1.670417,2.82188 13.357551,1.95411 -5.634284,1.51914 -1.043527,1.30068 2.713944,4.55949 3.338907,0.21653 2.712017,2.17051 8.558476,-6.94646 5.844529,-5.85815 -3.549154,6.29307 -6.052849,12.15325 -2.922266,7.1629 1.670417,5.86017 -3.757474,7.81223 -2.712015,4.77392 1.876806,1.95406 2.088987,-0.43491 -2.922267,4.55949 2.295376,3.47119 -3.965792,10.41769 -0.208319,7.16286 -2.922266,3.03833 -0.835209,4.99035 6.679741,-0.65138 1.668488,-1.952 3.757475,-20.18397 4.590753,-2.82188 -2.920335,-7.37932 -1.043531,-3.25477 0.624961,-3.25475 1.251848,0.4329 3.132514,-3.47119 -1.045457,4.12252 -1.043526,4.12461 0.835204,3.25474 2.922266,2.82189 5.217645,5.86016 1.043527,-3.68965 1.878739,-5.64376 0.626887,-3.90611 2.503699,-1.3027 2.92227,0.21653 3.54915,2.17052 -2.92227,0.2185 -2.92226,-0.65137 -1.67042,1.7356 -0.835207,4.55748 1.253777,4.77594 -2.087057,2.60338 5.842597,5.42529 1.4621,1.51915 0.20832,6.94645 -2.92227,2.38696 -1.25185,2.17051 -1.46209,2.60338 -2.087062,6.29307 -3.755544,3.90816 -1.253775,4.33898 0.626888,8.03073 -2.713949,-5.64171 -1.876806,0.65136 -0.210259,3.0383 0.835209,4.12256 4.382437,5.2088 1.253777,5.64376 2.087057,1.30067 0.624958,0.21852 -2.503697,-10.2012 3.547227,-2.17051 4.384359,3.4732 1.04353,0.86782 7.72134,6.07662 1.67043,-6.94444 -3.13059,-3.4732 1.87874,-1.08424 3.75553,2.81983 5.84454,3.4732 3.54915,1.08427 4.17411,-2.38696 1.46018,-3.47119 5.42596,0.43286 0.6269,-6.50948 11.75463,0.83716 -0.46871,0.24695 c -0.4938,0.31373 -1.1855,0.62644 -1.38302,1.2537 -0.69131,1.77728 -1.18549,3.55614 -1.87681,5.33339 -0.98758,1.88179 -2.46898,3.44914 -3.45657,5.43549 -0.69131,1.98634 -1.18357,4.18174 -1.87488,6.27264 -0.29626,1.04543 -0.88959,2.09089 -0.29703,3.13633 2.07393,4.18174 4.24702,8.36393 6.32096,12.44112 0.69131,1.35909 1.28309,2.71694 2.17193,3.97147 0.88883,-0.20902 1.58052,-0.62727 2.3706,-1.04543 -0.19753,1.04543 -0.69054,1.98674 -0.69054,3.03217 0.49379,1.14997 1.38224,1.98717 2.07355,2.92804 0.2963,0.52272 0.98643,0.4186 1.28271,-0.10391 1.08636,-1.56818 2.07472,-3.24249 3.25982,-4.81067 0.4938,0.73181 0.79046,1.67395 1.38302,2.30122 1.08635,0.31373 1.77727,-0.83676 2.56735,-1.46403 0.59256,0.62727 0.8896,1.56897 1.28464,2.4053 -0.98759,0.73181 -2.17387,1.25453 -3.16145,2.0909 0.29626,1.56818 1.28348,2.92599 1.57976,4.49417 -1.18511,0.62727 -2.27146,1.25536 -3.45656,1.88262 -0.4938,0.31373 -1.18435,0.73221 -1.18435,1.46402 0,1.98631 -0.0983,3.97186 -0.0983,5.95817 0,1.56818 1.38147,2.82232 1.77651,4.28591 0,0.4182 -0.19638,0.62769 -0.29514,0.94131 -1.08635,2.09089 -2.17386,4.07763 -3.16145,6.16853 -0.29625,0.62726 -0.0972,1.25331 0.10025,1.88057 0.4938,1.35904 0.98605,2.61439 1.38108,3.97348 -1.1851,0.73181 -2.56657,1.25535 -3.75168,1.88262 -0.39504,0.20902 -0.69093,0.52271 -0.59217,1.04543 0.29626,1.25453 0.7893,2.4045 1.18434,3.65904 0.39503,0.94091 0.49456,1.98472 1.28463,2.50743 1.67891,1.25453 3.4558,2.51029 5.13471,3.86936 -0.20544,0.18137 -0.40628,0.36194 -0.60759,0.5431 l -2.94736,-2.84432 -8.39452,3.13632 -3.85199,-0.52272 -3.06114,-1.7764 0.29514,2.61356 -4.54253,1.77646 -4.54255,0.83715 2.76602,-3.97347 -4.64282,0.10628 -1.18435,-2.50948 -1.08596,-3.55489 -7.70398,0.73099 -0.49379,3.7652 -3.3582,0.62687 2.56735,3.86731 1.68007,0.21021 2.96276,3.97146 2.76411,1.98674 -0.0983,4.70447 -5.82716,4.60034 -1.38109,0.31255 -6.12422,7.21395 0.79084,0.41856 4.34579,-1.46402 2.17191,1.88262 1.28464,-0.94132 -0.10025,-1.77644 3.55687,-2.92802 9.08506,-1.04547 -2.27223,1.6723 0.39542,2.61361 -0.39542,1.98674 2.66765,3.86731 -0.39542,1.77846 -2.66572,3.7632 2.36867,4.07763 0.29705,2.71773 -2.8644,8.36354 -2.56735,3.24047 -4.14711,1.98674 -5.23501,3.97349 -4.2474,0.10431 -0.4938,0.9413 -1.77651,-0.5227 -0.98759,2.29916 -1.68006,2.50945 -2.36868,-0.41859 -1.97518,1.14956 -1.18627,-1.46401 -2.2703,0.4186 -0.29704,2.82389 -6.517715,2.92603 -0.09836,1.46402 0.690543,1.04543 3.259822,-0.41855 2.17193,2.4053 v 2.50948 l -2.370606,0.31255 -1.678133,1.46402 2.370602,2.71777 0.393493,-1.6723 4.247414,0.73099 -2.76603,1.56814 1.58169,2.30119 2.7641,1.98677 2.96278,-2.82393 2.17386,0.4186 2.07355,-0.94132 1.08597,-3.13632 0.88921,-0.83515 6.41934,0.10433 2.17193,-1.46404 -0.2951,2.50946 1.77651,2.926 3.45657,-0.52272 0.79083,1.04543 2.56736,0.31452 -3.06115,1.56814 -2.3706,-0.31452 -1.28463,1.25576 0.39541,1.98674 2.8644,1.77644 1.87681,-1.04542 4.24548,0.10431 0.98759,-2.19501 0.5941,-0.62687 3.55494,-0.62687 3.2579,8.15322 2.27223,0.21021 3.06114,3.65903 6.61802,0.52271 c -3.25906,0.41821 -6.51849,0.93969 -9.77754,1.35785 -0.39504,0.10472 -0.8896,0.10511 -1.28464,-0.10431 -1.48138,-0.73181 -2.76409,-1.56735 -4.24549,-2.29916 -0.6913,-0.41817 -1.38377,0.41737 -2.17385,0.20823 -1.87642,-0.20902 -3.6537,-1.14915 -5.53012,-0.73099 -3.85161,0.62727 -7.70244,1.35746 -11.55404,1.98472 -0.4938,0.10472 -1.1855,0.20982 -1.38301,0.83716 -0.2963,0.73182 -0.79085,1.56858 -0.79085,2.50946 0.19753,1.04542 1.0875,1.98635 1.18627,3.13632 -0.88884,1.25453 -1.97518,2.19501 -2.96277,3.24048 -1.87643,0 -3.75401,-1.04464 -5.63043,-1.25375 -0.79007,0.10472 -0.79007,1.04548 -0.98758,1.56819 -0.39505,1.56814 -1.08636,3.03016 -0.98761,4.5983 0.0988,1.77723 -0.0983,3.45037 -0.0983,5.12305 0,0.4182 -0.19753,0.73225 -0.4938,0.94132 -1.87643,1.46363 -3.85239,2.82188 -5.72881,4.39006 -0.88883,0.83632 -0.2951,2.40529 -0.78891,3.45077 -0.88883,0.62726 -2.073558,0.94126 -3.061148,1.46402 -1.580147,0.83633 -3.457727,0.8351 -5.136631,1.35785 -0.197531,1.56814 3.88e-4,3.13632 -0.09836,4.70446 0,0.41817 -0.394651,0.62767 -0.59217,0.94132 -3.752843,3.65903 -7.408088,7.42223 -11.062173,11.08126 -0.691312,-0.31373 -1.185109,-1.04503 -1.975183,-1.14958 -1.185109,0.20902 -2.171542,0.94171 -3.257888,1.35987 -1.086352,0.52275 -2.272233,0.94052 -3.259823,1.67233 -0.493797,0.94088 -0.691316,1.98714 -0.987593,2.92802 -0.197531,0.73181 -0.494181,1.35907 -0.39542,2.09089 0.493794,0.83637 1.086736,1.77646 1.876806,2.29916 1.086351,0.10472 2.075098,-0.31333 3.161449,-0.62686 1.580144,-0.31373 2.073556,-2.09047 3.061145,-3.24044 1.185109,0.31373 2.171542,0.93965 3.257893,1.35786 0.493797,0.20901 0.98875,0.41895 1.186266,0.83715 1.086351,1.8818 1.974795,3.76398 3.061146,5.64578 0.197531,0.41816 0.789302,0.94091 1.184336,0.52271 0.888832,-0.73182 1.778821,-1.56937 2.667653,-2.30118 0.790073,-0.62727 1.678132,-1.25414 2.171929,-2.19502 -0.691312,-0.94091 -1.580533,-1.56897 -2.370603,-2.40533 1.086341,-0.52271 2.173461,-0.73099 3.259811,-1.2537 1.086352,-0.73181 1.184337,-2.29999 2.17193,-3.13632 1.382625,-0.52272 2.865169,-0.4186 4.149038,-0.94132 1.18511,-1.46363 1.48139,-3.55448 2.46898,-5.22721 0.29629,-0.41816 0.69092,-0.31255 1.08596,-0.31255 1.58015,0.10471 3.25943,0.5211 4.83958,0.41655 1.08635,-0.31374 1.77805,-1.46241 2.8644,-1.88057 1.18511,-0.10471 2.46821,-0.10471 3.65332,0 1.48138,0.83633 2.17193,2.61278 3.65332,3.34459 0.6913,-0.31373 1.18587,-0.94131 1.77843,-1.46402 0.29626,0.31373 0.59217,0.7326 1.08596,0.83715 1.6789,0.52271 3.45773,0.52271 5.13662,1.04543 0.98761,0.73181 1.2835,2.40534 2.56737,2.92805 1.67889,0.52271 3.4554,0.83553 5.23307,1.25374 0.59255,0.10471 1.28424,0.41816 1.8768,0 0.29626,-1.35908 -0.29551,-2.82271 -0.19674,-4.18179 0.98759,-0.41816 2.07394,-0.62683 2.96277,-1.14958 0.79007,-1.04543 1.08635,-2.50863 1.48138,-3.76315 -0.39503,-0.62727 -0.88921,-1.25536 -1.38301,-1.88262 0.59256,-0.52272 1.3834,-0.94049 1.77844,-1.6723 0.0988,-0.62726 -0.6917,-1.25493 -0.39543,-1.98675 0.49381,-1.46362 1.18396,-2.82227 1.77652,-4.2859 0.98758,-0.20903 1.97556,-0.1051 2.86439,-0.41856 1.18511,-0.83637 1.68006,-2.61282 3.16145,-2.82188 1.1851,-0.31373 2.46821,-0.6277 3.65331,-0.94131 1.77767,-0.4182 3.35743,-1.35948 5.03632,-1.98674 0.98761,-0.20903 1.8772,0.10352 2.76604,0.20824 0.69131,0.1047 1.48061,0.1047 2.17192,0.5227 3.06153,2.0909 6.12383,4.18337 9.18536,6.37882 0.39505,0.20902 0.78893,0.62564 1.28272,0.41655 0.79008,-0.83637 0.49495,-2.08968 1.18627,-2.926 1.28387,-0.10471 2.46781,0.31412 3.75168,0.41856 3.25906,0.4182 6.42011,0.93969 9.67917,1.35785 0.29625,0 0.79045,-0.10471 0.88921,-0.52271 0.29626,-1.46363 0.19753,-3.03055 0.4938,-4.49417 2.37022,-0.52272 4.8388,-0.4186 7.01151,-1.46404 1.1851,0.10472 2.27145,0.83554 3.45657,0.73099 0.79007,-0.52271 0.79007,-1.67186 1.48138,-2.29913 1.58015,-0.52275 3.35781,-0.62849 4.93796,-1.25575 0.98759,-0.83637 1.87565,-1.88139 1.67813,-3.24048 1.48139,1.04547 2.86401,2.50989 4.44416,3.45077 2.1727,0 4.44531,-0.10392 6.61801,-0.10392 0.29626,0 0.5914,-8.3e-4 0.78892,0.20824 1.38263,0.73181 2.56773,1.77767 3.95036,2.50944 0.39504,0.31374 0.98875,-3.9e-4 1.18627,-0.41856 0.39503,-0.83636 0.69092,-1.77723 1.08596,-2.6136 4.44416,-0.94092 8.98669,-1.6727 13.43085,-2.61361 0.59255,-0.20902 1.28426,-0.20902 1.8768,0 3.1603,1.14998 6.3202,2.19461 9.4805,3.34459 1.38262,0.41817 2.6661,1.15121 4.04873,1.25576 0.98759,-0.73181 1.58054,-1.88302 2.37061,-2.8239 0.69131,-0.73181 1.08595,-1.77728 2.07355,-2.09089 2.46898,-0.73182 4.93833,-1.46281 7.30855,-2.29917 1.67892,-0.83633 2.86402,-2.50823 4.44417,-3.34459 1.87642,0 3.85199,0.62726 5.82716,0.52271 0.29627,-1.14997 -0.0983,-2.19663 -0.0983,-3.34661 0.19753,-1.04547 0.78931,-1.881 1.18434,-2.82187 0.2963,-0.41817 0.39504,-1.15121 0.98759,-1.25576 1.38263,-0.52272 2.96355,-0.62565 4.24742,-1.46197 l 4.73927,-3.13632 c 0.49379,-0.41821 1.18665,-0.73265 1.58169,-1.35992 -0.19753,-2.6136 -1.08674,-5.12305 -1.38302,-7.73667 0.19754,-1.35907 1.08674,-2.61238 1.38302,-3.97146 0.0988,-0.62726 -0.49379,-1.04626 -0.98759,-0.83715 -3.95036,0.73181 -7.70398,1.88262 -11.65434,2.40533 -1.38263,-0.62726 -2.17194,-2.30079 -3.65332,-2.92805 l -4.74139,-1.88262 c -1.18511,-0.41817 -2.46859,-0.52272 -3.55494,-1.04543 1.67891,-0.52271 3.4558,-0.20784 5.1347,-0.83514 1.18511,-1.14998 1.97519,-2.61483 2.96278,-3.86936 0.49379,-0.94088 1.48138,-1.67187 1.48138,-2.82188 v -4.60035 c 0,-0.73177 -0.39427,-1.25331 -0.69054,-1.88057 1.28387,-0.10471 2.56811,-0.21021 3.85199,-0.21021 0.79007,0 1.67774,4e-4 2.2703,-0.62686 1.48138,-1.35909 2.86479,-2.71816 4.24741,-4.18174 0.29626,-0.31373 0.39504,-0.73142 0.49379,-1.14958 -0.59255,-0.20903 -1.28425,-0.41939 -1.8768,-0.73304 2.96277,-3.34543 6.12229,-6.4801 9.08507,-9.82552 0.79007,-1.98634 0.88882,-4.18174 1.48138,-6.27264 l 2.66765,-12.54529 c 0.29626,-1.35908 -0.0999,-2.82271 -0.19869,-4.18175 -0.59256,-3.24087 -0.98721,-6.48258 -1.57976,-9.72341 -0.0988,-0.62727 -0.59255,-0.94175 -0.98759,-1.35991 -2.86402,-2.50905 -5.62888,-5.01689 -8.49289,-7.6305 -0.69132,-0.52271 -1.28349,-1.25532 -2.07356,-1.35987 -2.37022,-0.52271 -4.64168,-0.93969 -6.91314,-1.35785 -0.88883,-0.20903 -1.77882,-0.4186 -2.66764,-0.4186 h -13.03544 c -0.69131,-0.10471 -1.08712,0.62687 -1.28463,1.14958 -1.18511,3.03177 -2.27069,6.06275 -3.65332,9.09453 -3.06153,-1.67269 -6.02391,-3.44955 -8.98669,-5.33134 1.58015,-2.19544 3.45542,-4.2859 5.23308,-6.37679 0.69131,-0.94088 1.67967,-1.88259 2.27223,-2.92806 0.19752,-1.25452 0.1979,-2.61238 0.39541,-3.97146 0,-1.14997 0.39543,-2.4053 -0.0983,-3.45076 -1.58014,-3.76359 -3.25943,-7.52595 -4.83958,-11.28954 -0.29626,-0.73181 -0.49495,-1.67431 -1.18626,-2.19703 -2.46898,-1.98634 -5.53013,-3.13631 -7.50531,-5.74993 2.37021,0.20903 4.74121,0.83755 7.21018,0.733 0,-0.52271 0.19791,-0.9417 -0.0984,-1.35987 -3.45657,-6.8999 -7.0119,-13.69404 -10.3697,-20.6985 1.1851,-1.04543 2.56619,-1.77847 3.85005,-2.82389 v -0.73102 c -1.48138,-0.94088 -3.06114,-1.6727 -4.54252,-2.61362 -0.4938,-0.52271 -0.78931,-1.25531 -1.18435,-1.88258 -2.56773,-4.18175 -5.13662,-8.46766 -7.6056,-12.64944 -0.29626,-0.62728 -0.78853,-0.94009 -1.38109,-1.2537 -4.44415,-2.29996 -8.78993,-4.7057 -13.23409,-7.00569 -1.77767,-0.73182 -2.86479,-2.50862 -4.24742,-3.76315 -0.88883,-1.15002 -2.36906,-2.0909 -2.76409,-3.65908 -0.9876,-3.13631 -1.97518,-6.16849 -2.96278,-9.30481 -0.69131,-1.98634 -1.48177,-3.97146 -1.8768,-6.06236 -1.08638,-7.84079 -2.27187,-15.57785 -3.35822,-23.31413 -0.0987,-0.73181 -0.59217,-1.46402 -1.08596,-1.98673 -3.55533,-3.76359 -7.11181,-7.42183 -10.56838,-11.18543 -0.39504,-0.5227 -1.18472,-0.31412 -1.57976,0.10433 -0.70013,0.65219 -1.40044,1.29435 -2.10056,1.94181 l 0.39735,-0.48191 2.29731,-2.17051 -1.87873,-3.68965 -2.50564,-2.82189 -5.42596,-0.65136 -2.5037,-2.82188 -3.54915,-1.30064 -1.46017,-3.03833 -4.59268,0.65137 -2.5037,4.12256 -2.92227,1.30269 -3.54915,0.21653 -3.13059,-1.51914 h -3.96579 l -7.51302,-1.30274 -7.09638,-4.12256 1.4621,-1.3027 5.8426,2.60544 7.3047,1.30068 4.80101,-2.60342 1.25184,-3.03829 6.05285,-4.34102 3.34083,1.95405 6.67782,-4.99239 -8.55655,-4.55748 1.66849,-1.51914 0.41857,-2.60543 -2.71395,-0.65136 -7.93159,3.47324 2.71395,-3.6897 8.34823,-1.95201 1.87873,0.86778 5.00933,-5.42731 2.50369,-3.47119 1.87875,-6.29508 4.59267,-5.20885 2.71203,-7.59577 1.87873,-5.86017 0.62689,-5.42529 1.04352,-3.0383 3.54724,-6.293068 4.17603,-4.557477 -0.62688,-2.82188 -1.25185,-6.076622 -2.92227,-3.906109 -6.26117,0.432901 -7.51494,0.651367 -5.00933,-1.084268 -6.4695,-1.302695 -3.13058,1.302695 -3.3389,-0.218505 -5.00932,-2.170513 -4.17412,0.218505 -2.29731,1.084269 -2.92033,1.519145 -4.59269,0.651367 -2.50369,2.386924 -2.71395,1.302735 -2.08706,-1.302735 -2.08705,3.038331 -2.92226,3.038291 -1.46018,-0.216529 3.13058,-4.773928 2.92034,-5.64372 7.09639,-9.549869 -3.13059,0.434916 -5.00932,1.519147 -2.5037,0.216529 4.59075,-4.557477 0.21026,-3.689658 3.9658,-1.735596 0.62495,-2.82188 6.05286,-4.77388 3.54916,-2.605469 2.08705,-3.038291 2.29537,-2.170513 4.59076,-2.603415 2.92226,-2.82184 1.04353,-3.906148 -2.92226,-1.08423 3.54916,-8.898502 z m 25.59249,181.075654 c -0.4723,0.46681 -0.93737,0.93511 -1.3888,1.41298 -1.60912,1.60315 -3.13547,3.38987 -4.91095,4.82493 l 4.08347,-6.09294 z m -15.81881,16.04916 c -0.63792,0.56562 -1.3333,1.05463 -2.16228,1.35987 l -1.22871,0.64931 0.29705,-0.98623 z m 4.23391,102.12853 c 0.008,0.003 0.0145,0.008 0.0231,0.0119 0.88884,0.41817 1.77689,0.52192 2.66572,0.73098 0.0988,0.83637 0.39658,1.77724 0.10025,2.61361 -0.49379,0.31373 -0.88922,0.41777 -1.38302,0.62688 -0.34332,-0.58151 -0.64362,-1.262 -1.02423,-1.90508 z"
     id="Wales" />
  <path
     id="NorthIreland"
     sodipodi:nodetypes="ccccccccccccccccccccccccccccccccccccccccccccccccccccccccccccccccccccccccccccccccccccccccccccccccccccccccccccccccccccccccccccccccc"
     class="st0"
     d="m 7.3260032,255.39387 3.7736328,0.91671 1.62354,2.50014 4.73898,0.12494 0.482674,1.04172 3.07156,1.91673 -3.861392,1.16674 -0.219403,0.95838 -0.833709,0.12498 -1.272505,2.62512 h 1.623541 l 1.623539,1.66672 1.755177,-1.87507 3.115442,1.75007 4.124667,0.0833 -1.009227,0.87506 v 1.75007 l 1.799059,0.91672 1.228623,2.41677 -0.394915,1.37508 0.13165,1.91675 1.316385,1.54173 0.219404,1.87508 2.939921,2.79182 h 4.124668 l 3.422596,-1.29172 3.290961,7.91702 2.193974,-1.2917 4.036906,-0.25005 1.974578,1.8751 3.203199,0.25004 2.501128,1.87507 h 3.115441 l 4.168544,-2.29177 2.808287,1.29173 2.720526,-2.79179 -0.131651,-5.54194 1.009228,0.75005 1.623539,-1.16673 0.13165,-2.04176 -0.658192,-0.12498 0.307157,-0.79171 0.921466,-0.0833 3.729753,-5.83362 0.614316,-2.33342 1.096985,-0.0418 -0.965351,2.08342 h 1.140873 l 2.150088,-2.79179 0.08776,-2.25011 -1.096985,-0.91671 -3.685876,-1.66674 -2.150093,-3.5835 0.08776,-1.08339 1.316382,0.95838 2.676648,2.29177 6.274754,0.0418 1.404135,-3.5835 1.140885,-0.70831 0.08779,-2.87512 1.404136,-1.29172 -1.053097,-7.41702 -0.702078,0.20835 -2.32561,2.25011 0.131651,1.33339 0.789823,0.54169 -0.219403,2.50012 -0.702078,1.95841 -0.570435,0.0834 -0.263262,1.00002 -1.316385,0.66672 -1.404147,0.45837 -0.263262,-1.83344 0.833705,-1.08339 1.053112,-1.58341 0.263262,-1.29172 -0.219405,-2.58345 -2.062332,-1.95842 0.307158,-0.58337 1.623543,0.95838 1.448021,0.75003 2.457248,-2.70846 -4.212426,-5.29193 -1.44802,1.37508 -3.729753,-0.12494 -1.491901,-1.7501 0.614313,-1.50008 -0.702071,-3.91684 -5.572688,-3.58349 -1.316386,0.54168 0.307159,0.58336 h -1.49189 l -1.755178,2.33347 -3.729749,-0.20834 -0.39492,-1.37507 -3.466471,-0.20836 -4.344068,-1.50006 -2.062332,2.00008 0.614312,1.04174 -0.482674,0.95837 1.316382,1.87509 -2.281728,2.41678 -1.140866,-1.50008 -2.852164,4.45854 -1.404143,0.75005 0.658188,0.62502 -0.219403,2.58346 -2.457248,1.50007 -2.676648,1.37507 -2.018455,-2.79181 -1.272506,-0.54169 -1.44802,-1.5834 1.755177,-2.20845 v -1.91674 l -2.983802,-0.87505 0.0439,-2.41678 -2.501128,-2.54179 -0.921466,0.20835 -2.501129,2.20844 -1.096985,-1.08338 -2.983802,0.0418 -3.817514,3.79185 -3.466476,-0.20835 -1.711296,0.91672 -0.263263,3.54181 -2.281733,0.41668 -1.272504,3.16682 -1.360263,-0.58335 z"
     inkscape:connector-curvature="0"
     style="fill:#ffffff;stroke:#231f20;stroke-width:1.0161041;stroke-miterlimit:10" />
  <path
     id="London"
     class="st0"
     d="m 219.45753,382.02072 c 1.18511,-0.73182 2.56773,-0.41821 3.8516,-0.41821 0.19754,0.62726 0.0988,1.35909 0.59256,1.88179 0.69131,0.62728 1.48138,1.35909 2.27146,1.98635 0.39504,0.31373 0.88883,0.10471 1.28386,0 1.48139,-0.41816 2.86402,-0.94088 4.3454,-1.04542 0.39504,1.04542 0.79007,2.1954 1.18512,3.24086 -0.69132,1.04544 -1.58015,1.88179 -2.17271,2.92723 -0.69131,2.29995 -1.58014,4.59995 -2.37022,6.89991 -0.29626,1.14997 -1.1851,1.98634 -2.17269,2.40451 -0.98759,-0.20903 -1.77766,-0.94089 -2.76526,-1.25454 -0.79007,0.62726 -1.38262,1.35908 -2.1727,2.0909 -0.49379,-0.62727 -0.88884,-1.25453 -1.28387,-1.98634 -0.59255,-0.10472 -1.1851,-0.10472 -1.77766,-0.20903 -0.19753,-0.73181 -0.39504,-1.35907 -0.79007,-2.09089 -0.88884,-0.10471 -1.28387,1.04547 -1.87643,1.56817 0,-0.73181 0.29626,-1.67272 -0.39503,-2.09088 -1.67891,-1.25454 -3.55532,-2.40451 -5.23423,-3.65905 -0.0988,-1.25452 0.79007,-2.4045 0.88883,-3.55448 -0.19753,-0.94091 -0.59255,-1.77728 -0.88883,-2.71815 1.38263,-0.31373 2.76525,-0.20903 4.14788,-0.62727 1.87642,-0.94091 3.55532,-2.19545 5.33299,-3.34542 z"
     inkscape:connector-curvature="0"
     style="fill:#ffffff;stroke:#231f20;stroke-width:1.0161041;stroke-miterlimit:10" />
  <text
     xml:space="preserve"
     style="font-style:normal;font-weight:normal;font-size:14.66666698px;line-height:1.25;font-family:sans-serif;letter-spacing:0px;word-spacing:0px;fill:#000000;fill-opacity:1;stroke:none"
     x="200.65903"
     y="415.65924"
     id="text3721"><tspan
       sodipodi:role="line"
       id="tspan3719"
       x="200.65903"
       y="415.65924"
       style="font-size:16px">London</tspan></text>
  <circle
     id="path3723"
     cx="251.13963"
     cy="370.10019"
     r="6" />
  <circle
     id="path3725"
     cx="183"
     cy="385"
     r="6" />
  <circle
     id="path3725-1"
     cx="192"
     cy="290"
     r="6" />
  <circle
     id="path3725-1-0"
     cx="217"
     cy="426"
     r="6" />
  <circle
     id="path3725-1-0-7"
     cx="220"
     cy="294"
     r="6" />
  <circle
     id="path3725-1-0-7-3"
     cx="231"
     cy="272"
     r="6" />
  <circle
     id="path3725-6"
     cx="72"
     cy="251.5"
     r="6" />
  <circle
     id="path3725-6-8"
     cx="30"
     cy="363"
     r="6" />
  <circle
     id="path3725-62"
     cx="105"
     cy="159"
     r="6" />
  <circle
     id="path3725-1-0-7-3-0"
     cx="207"
     cy="262"
     r="6" />
  <circle
     id="path3725-1-0-7-7"
     cx="194"
     cy="343"
     r="6" />
  <circle
     id="path3725-1-0-7-7-4"
     cx="164"
     cy="283"
     r="6" />
  <circle
     id="path3725-1-0-7-3-0-6"
     cx="186"
     cy="211"
     r="6" />
  <circle
     id="path3725-1-0-7-0"
     cx="222.14749"
     cy="323.03503"
     r="6" />
  <circle
     id="path3725-65"
     cx="164"
     cy="413"
     r="6" />
  <circle
     id="path3725-65-8"
     cx="149"
     cy="396"
     r="6" />
  <text
     xml:space="preserve"
     style="font-style:normal;font-weight:normal;font-size:14.66666698px;line-height:1.25;font-family:sans-serif;letter-spacing:0px;word-spacing:0px;fill:#000000;fill-opacity:1;stroke:none"
     x="197.65712"
     y="447.06549"
     id="text3721-0"><tspan
       sodipodi:role="line"
       id="tspan3719-2"
       x="197.65712"
       y="447.06549"
       style="font-size:13.33333302px">Sussex</tspan></text>
  <text
     xml:space="preserve"
     style="font-style:normal;font-weight:normal;font-size:14.66666698px;line-height:1.25;font-family:sans-serif;letter-spacing:0px;word-spacing:0px;fill:#000000;fill-opacity:1;stroke:none"
     x="86.47303"
     y="146.02386"
     id="text3721-0-0"><tspan
       sodipodi:role="line"
       id="tspan3719-2-0"
       x="86.47303"
       y="146.02386"
       style="font-size:13.33333333px">Glasgow</tspan></text>
  <text
     xml:space="preserve"
     style="font-style:normal;font-weight:normal;font-size:14.66666698px;line-height:1.25;font-family:sans-serif;letter-spacing:0px;word-spacing:0px;fill:#000000;fill-opacity:1;stroke:none"
     x="27.553005"
     y="268.51062"
     id="text3721-0-0-6"><tspan
       sodipodi:role="line"
       id="tspan3719-2-0-0"
       x="27.553005"
       y="268.51062"
       style="font-size:13.33333302px">Belfast</tspan></text>
  <text
     xml:space="preserve"
     style="font-style:normal;font-weight:normal;font-size:14.66666698px;line-height:1.25;font-family:sans-serif;letter-spacing:0px;word-spacing:0px;fill:#000000;fill-opacity:1;stroke:none"
     x="10.180962"
     y="382.97308"
     id="text3721-0-0-6-2"><tspan
       sodipodi:role="line"
       id="tspan3719-2-0-0-1"
       x="10.180962"
       y="382.97308"
       style="font-size:16px">Dublin</tspan></text>
  <text
     xml:space="preserve"
     style="font-style:normal;font-weight:normal;font-size:14.66666698px;line-height:1.25;font-family:sans-serif;letter-spacing:0px;word-spacing:0px;fill:#000000;fill-opacity:1;stroke:none"
     x="124.10298"
     y="383.80255"
     id="text3721-0-0-6-2-6"><tspan
       sodipodi:role="line"
       id="tspan3719-2-0-0-1-8"
       x="124.10298"
       y="383.80255"
       style="font-size:13.33333302px">Cardiff</tspan></text>
  <text
     xml:space="preserve"
     style="font-style:normal;font-weight:normal;font-size:14.66666698px;line-height:1.25;font-family:sans-serif;letter-spacing:0px;word-spacing:0px;fill:#000000;fill-opacity:1;stroke:none"
     x="143.33882"
     y="434.05148"
     id="text3721-0-0-6-2-6-9"><tspan
       sodipodi:role="line"
       id="tspan3719-2-0-0-1-8-3"
       x="143.33882"
       y="434.05148"
       style="font-size:13.33333302px">Bristol</tspan></text>
  <text
     xml:space="preserve"
     style="font-style:normal;font-weight:normal;font-size:13.33333302px;line-height:1.25;font-family:sans-serif;letter-spacing:0px;word-spacing:0px;fill:#000000;fill-opacity:1;stroke:none"
     x="161.41183"
     y="402.90265"
     id="text3721-0-0-6-2-6-9-2"><tspan
       sodipodi:role="line"
       id="tspan3719-2-0-0-1-8-3-8"
       x="161.41183"
       y="402.90265"
       style="font-size:13.33333302px">Oxford</tspan></text>
  <text
     xml:space="preserve"
     style="font-style:normal;font-weight:normal;font-size:14.66666698px;line-height:1.25;font-family:sans-serif;letter-spacing:0px;word-spacing:0px;fill:#000000;fill-opacity:1;stroke:none"
     x="221.67741"
     y="359.08786"
     id="text3721-0-0-6-2-6-9-2-9"><tspan
       sodipodi:role="line"
       id="tspan3719-2-0-0-1-8-3-8-1"
       x="221.67741"
       y="359.08786"
       style="font-size:13.33333302px">Cambridge</tspan></text>
  <text
     xml:space="preserve"
     style="font-style:normal;font-weight:normal;font-size:14.66666698px;line-height:1.25;font-family:sans-serif;letter-spacing:0px;word-spacing:0px;fill:#000000;fill-opacity:1;stroke:none"
     x="142.31819"
     y="360.51172"
     id="text3721-0-0-6-2-6-9-2-9-5"><tspan
       sodipodi:role="line"
       id="tspan3719-2-0-0-1-8-3-8-1-0"
       x="142.31819"
       y="360.51172"
       style="font-size:13.33333302px">Leicester</tspan></text>
  <text
     xml:space="preserve"
     style="font-style:normal;font-weight:normal;font-size:14.66666698px;line-height:1.25;font-family:sans-serif;letter-spacing:0px;word-spacing:0px;fill:#000000;fill-opacity:1;stroke:none"
     x="204.30389"
     y="340.80341"
     id="text3721-0-0-6-2-6-9-2-9-5-4"><tspan
       sodipodi:role="line"
       id="tspan3719-2-0-0-1-8-3-8-1-0-9"
       x="204.30389"
       y="340.80341"
       style="font-size:13.33333302px">Nottingham</tspan></text>
  <text
     xml:space="preserve"
     style="font-style:normal;font-weight:normal;font-size:14.66666698px;line-height:1.25;font-family:sans-serif;letter-spacing:0px;word-spacing:0px;fill:#000000;fill-opacity:1;stroke:none"
     x="229.6046"
     y="299.22556"
     id="text3721-0-0-6-2-6-9-2-9-5-4-9"><tspan
       sodipodi:role="line"
       id="tspan3719-2-0-0-1-8-3-8-1-0-9-7"
       x="229.6046"
       y="299.22556"
       style="font-size:13.33333302px">Sheffield</tspan></text>
  <text
     xml:space="preserve"
     style="font-style:normal;font-weight:normal;font-size:14.66666698px;line-height:1.25;font-family:sans-serif;letter-spacing:0px;word-spacing:0px;fill:#000000;fill-opacity:1;stroke:none"
     x="243.41127"
     y="275.28876"
     id="text3721-0-0-6-2-6-9-2-9-5-4-1"><tspan
       sodipodi:role="line"
       id="tspan3719-2-0-0-1-8-3-8-1-0-9-6"
       x="243.41127"
       y="275.28876"
       style="font-size:13.33333302px">Hull</tspan></text>
  <text
     xml:space="preserve"
     style="font-style:normal;font-weight:normal;font-size:14.66666698px;line-height:1.25;font-family:sans-serif;letter-spacing:0px;word-spacing:0px;fill:#000000;fill-opacity:1;stroke:none"
     x="191.03239"
     y="251.44978"
     id="text3721-0-0-6-2-6-9-2-9-5-4-6"><tspan
       sodipodi:role="line"
       id="tspan3719-2-0-0-1-8-3-8-1-0-9-5"
       x="191.03239"
       y="251.44978"
       style="font-size:13.33333333px">Leeds</tspan></text>
  <text
     xml:space="preserve"
     style="font-style:normal;font-weight:normal;font-size:14.66666698px;line-height:1.25;font-family:sans-serif;letter-spacing:0px;word-spacing:0px;fill:#000000;fill-opacity:1;stroke:none"
     x="155.75293"
     y="227.00266"
     id="text3721-0-0-6-2-6-9-2-9-5-4-0"><tspan
       sodipodi:role="line"
       id="tspan3719-2-0-0-1-8-3-8-1-0-9-73"
       x="155.75293"
       y="227.00266"
       style="font-size:13.33333302px">Newcastle</tspan></text>
  <text
     xml:space="preserve"
     style="font-style:normal;font-weight:normal;font-size:14.66666698px;line-height:1.25;font-family:sans-serif;letter-spacing:0px;word-spacing:0px;fill:#000000;fill-opacity:1;stroke:none"
     x="157.77437"
     y="313.25278"
     id="text3721-0-0-6-2-6-9-2-9-5-4-5"><tspan
       sodipodi:role="line"
       id="tspan3719-2-0-0-1-8-3-8-1-0-9-4"
       x="157.77437"
       y="313.25278"
       style="font-size:13.33333302px">Manchester</tspan></text>
  <text
     xml:space="preserve"
     style="font-style:normal;font-weight:normal;font-size:14.66666698px;line-height:1.25;font-family:sans-serif;letter-spacing:0px;word-spacing:0px;fill:#000000;fill-opacity:1;stroke:none"
     x="95.790108"
     y="287.28387"
     id="text3721-0-0-6-2-6-9-2-9-5-4-8"><tspan
       sodipodi:role="line"
       id="tspan3719-2-0-0-1-8-3-8-1-0-9-78"
       x="95.790108"
       y="287.28387"
       style="font-size:13.33333302px">Liverpool</tspan></text>
</svg>
