<?xml version="1.0" encoding="UTF-8" standalone="no"?>
<!-- Created with Inkscape (http://www.inkscape.org/) -->

<svg
   xmlns:dc="http://purl.org/dc/elements/1.1/"
   xmlns:cc="http://creativecommons.org/ns#"
   xmlns:rdf="http://www.w3.org/1999/02/22-rdf-syntax-ns#"
   xmlns:svg="http://www.w3.org/2000/svg"
   xmlns="http://www.w3.org/2000/svg"
   xmlns:sodipodi="http://sodipodi.sourceforge.net/DTD/sodipodi-0.dtd"
   xmlns:inkscape="http://www.inkscape.org/namespaces/inkscape"
   width="300"
   height="500"
   viewBox="0 0 79.374998 132.29167"
   version="1.1"
   id="svg7485"
   inkscape:version="0.92.2 (5c3e80d, 2017-08-06)"
   sodipodi:docname="ukmap.svg">
  <defs
     id="defs7479" />
  <sodipodi:namedview
     id="base"
     pagecolor="#ffffff"
     bordercolor="#666666"
     borderopacity="1.0"
     inkscape:pageopacity="0.0"
     inkscape:pageshadow="2"
     inkscape:zoom="0.98994949"
     inkscape:cx="-16.733705"
     inkscape:cy="102.26758"
     inkscape:document-units="px"
     inkscape:current-layer="svg7485"
     showgrid="false"
     units="px"
     inkscape:window-width="1600"
     inkscape:window-height="1138"
     inkscape:window-x="-8"
     inkscape:window-y="-8"
     inkscape:window-maximized="1" />
  <metadata
     id="metadata7482">
    <rdf:RDF>
      <cc:Work
         rdf:about="">
        <dc:format>image/svg+xml</dc:format>
        <dc:type
           rdf:resource="http://purl.org/dc/dcmitype/StillImage" />
        <dc:title></dc:title>
      </cc:Work>
    </rdf:RDF>
  </metadata>
  <g
     inkscape:groupmode="layer"
     id="layer1"
     inkscape:label="Bg">
    <path
       inkscape:connector-curvature="0"
       style="fill:none;stroke:#231f20;stroke-width:0.26458332;stroke-miterlimit:10"
       d="m 38.959303,10.212655 0.391708,0.71417 -0.16795,0.32918 -1.733227,-0.6041 -1.621608,0.54932 -2.460312,0.27492 -1.621608,0.32918 -1.342038,-0.71365 -0.782897,0.38447 -0.838708,-0.38447 -1.397846,-0.82424 -0.559141,0.54932 -0.67076,1.26349 0.894519,0.98857 -0.838708,0.21962 -0.447518,0.3297 0.447518,1.42782 -1.454175,0.38447 -0.95033,0.16485 0.727088,1.09864 0.279569,0.76894 h -0.615466 l -0.782381,-0.16484 1.285709,1.318258 1.006657,1.09864 -1.565796,0.0548 -0.782898,0.76895 -1.118277,-0.71366 -0.391191,0.82373 -0.782898,-0.16485 -0.503328,0.21962 v 1.37305 l 0.950846,0.54932 -1.006657,1.15341 1.006657,0.98909 0.27957,0.49403 -0.391708,0.0553 -1.118278,-0.65939 -0.279569,0.82372 -0.111621,0.9338 0.614949,1.26349 1.342037,0.11007 -0.782898,0.93379 -1.286226,0.43925 -0.726571,-0.71417 -0.895036,-0.6041 -0.503328,-0.87901 0.167948,-1.53789 0.05581,-1.09864 -1.062467,-1.86707 -0.838709,0.65887 0.05633,1.2082 0.502812,0.93379 -0.279569,0.32969 -0.503329,-0.49454 -0.838708,-0.76894 -0.61495,-0.27441 -0.279569,0.49455 0.167948,1.31775 -0.950846,-0.8785 -0.33538,0.60409 0.167948,1.04387 0.726571,0.65887 0.503328,0.11007 0.559139,-0.93379 0.727088,0.76895 -0.503329,0.82372 1.286226,1.86758 1.174089,-0.16484 0.391191,0.76894 0.559655,-0.82372 0.502812,0.2744 -0.223242,0.71417 -0.559656,1.20819 0.782898,-0.2744 0.503329,-0.43925 0.782898,-1.26349 0.614949,-0.38447 0.503329,0.0548 -1.286227,1.86758 0.727087,0.6041 -1.397847,0.49455 -0.727087,1.53789 1.509985,0.0548 -1.062467,1.09864 -0.670761,0.3297 -1.789554,0.10955 -0.447518,0.71417 3.578593,0.49455 -1.509469,0.38447 -0.279569,0.32918 0.727087,1.15393 0.894519,0.0548 0.726571,0.54932 2.292883,-1.75803 1.565795,-1.4826 -0.950846,1.59267 -1.621606,3.07578 -0.782898,1.81281 0.447518,1.48311 -1.006657,1.97714 -0.72657,1.2082 0.502811,0.49454 0.559656,-0.11007 -0.782898,1.15393 0.614949,0.8785 -1.062467,2.63654 -0.05581,1.8128 -0.782898,0.76895 -0.223759,1.26297 1.789555,-0.16485 0.447001,-0.49402 1.006657,-5.10822 1.229899,-0.71417 -0.782381,-1.86758 -0.27957,-0.82373 0.167432,-0.82372 0.33538,0.10956 0.839225,-0.8785 -0.280086,1.04334 -0.279569,1.04387 0.223758,0.82372 0.782898,0.71417 1.397848,1.48311 0.279569,-0.93379 0.503329,-1.42834 0.167948,-0.98857 0.67076,-0.32969 0.7829,0.0548 0.950843,0.54932 -0.782896,0.0553 -0.782898,-0.16485 -0.447518,0.43925 -0.223759,1.15342 0.335897,1.20871 -0.559139,0.65887 1.565278,1.37305 0.391708,0.38447 0.05581,1.75803 -0.782898,0.6041 -0.33538,0.54932 -0.391707,0.65887 -0.55914,1.59267 -1.00614,0.98909 -0.335896,1.09812 0.167948,2.03244 -0.727088,-1.42782 -0.502811,0.16485 -0.05633,0.76894 0.223759,1.04335 1.174089,1.31826 0.335897,1.42834 0.559139,0.32918 0.167431,0.0553 -0.67076,-2.58175 0.95033,-0.54932 1.174605,0.87901 0.27957,0.21963 2.068607,1.53789 0.447519,-1.75752 -0.83871,-0.87901 0.50333,-0.2744 1.006139,0.71365 1.565796,0.87901 0.950846,0.27441 1.118278,-0.6041 0.391191,-0.8785 1.453658,0.10955 0.16795,-1.64744 3.14916,0.21187 -0.125573,0.0625 c -0.132292,0.0794 -0.317604,0.15854 -0.37052,0.31729 -0.185209,0.4498 -0.317603,0.9 -0.502812,1.34979 -0.264583,0.47625 -0.661458,0.87292 -0.926041,1.37563 -0.185209,0.50271 -0.317088,1.05833 -0.502296,1.5875 -0.07937,0.26458 -0.238331,0.52917 -0.07958,0.79375 0.555625,1.05833 1.137811,2.11677 1.693436,3.14864 0.185208,0.34396 0.343752,0.68761 0.581877,1.00511 0.238125,-0.0529 0.423437,-0.15875 0.635103,-0.26458 -0.05292,0.26458 -0.185002,0.50281 -0.185002,0.76739 0.132292,0.29104 0.370314,0.50292 0.555522,0.74104 0.07938,0.13229 0.264274,0.10594 0.343649,-0.0263 0.291042,-0.39688 0.555831,-0.82062 0.873331,-1.2175 0.132292,0.18521 0.21177,0.42365 0.37052,0.5824 0.291042,0.0794 0.476147,-0.21177 0.687814,-0.37052 0.15875,0.15875 0.238331,0.39708 0.344164,0.60874 -0.264583,0.18521 -0.582393,0.3175 -0.846976,0.52917 0.07937,0.39688 0.343855,0.74052 0.42323,1.1374 -0.3175,0.15875 -0.608541,0.31771 -0.926041,0.47646 -0.132292,0.0794 -0.317294,0.18531 -0.317294,0.37052 0,0.5027 -0.02635,1.00521 -0.02635,1.50791 0,0.39688 0.370108,0.71428 0.475941,1.08469 0,0.10584 -0.05261,0.15886 -0.07907,0.23823 -0.291041,0.52917 -0.582392,1.03198 -0.846976,1.56115 -0.07937,0.15875 -0.02604,0.31719 0.02687,0.47594 0.132292,0.34395 0.264171,0.66166 0.370004,1.00562 -0.3175,0.18521 -0.687607,0.31771 -1.005107,0.47646 -0.105833,0.0529 -0.185105,0.13229 -0.158647,0.26458 0.07937,0.3175 0.211461,0.60854 0.317294,0.92604 0.105833,0.23813 0.132498,0.5023 0.344165,0.63459 0.449791,0.3175 0.925835,0.63531 1.375627,0.97927 -0.05504,0.0459 -0.108847,0.0916 -0.16278,0.13745 l -0.789617,-0.71985 -2.248959,0.79375 -1.031978,-0.13229 -0.820105,-0.44958 0.07907,0.66145 -1.216981,0.44959 -1.216982,0.21187 0.741039,-1.00562 -1.243851,0.0269 -0.317294,-0.63511 -0.290938,-0.89968 -2.063956,0.185 -0.132292,0.95291 -0.899687,0.15865 0.687814,0.97875 0.450101,0.0532 0.79375,1.00511 0.740524,0.50281 -0.02635,1.19062 -1.561144,1.16427 -0.370004,0.0791 -1.640727,1.82573 0.211873,0.10593 1.16427,-0.37052 0.581875,0.47646 0.344164,-0.23823 -0.02687,-0.44959 0.952913,-0.74103 2.43396,-0.26459 -0.608748,0.42323 0.105937,0.66146 -0.105937,0.50281 0.714685,0.97875 -0.105937,0.4501 -0.714168,0.9524 0.634587,1.03198 0.07958,0.68781 -0.767395,2.11667 -0.687813,0.82011 -1.111044,0.50281 -1.402498,1.00562 -1.137914,0.0264 -0.132292,0.23823 -0.475941,-0.13229 -0.264583,0.58188 -0.450101,0.6351 -0.634587,-0.10594 -0.529167,0.290937 -0.31781,-0.370517 -0.608231,0.10594 -0.07958,0.714677 -1.746147,0.74053 -0.02635,0.37052 0.185002,0.26458 0.873332,-0.10593 0.581876,0.60874 v 0.63511 l -0.635103,0.0791 -0.449585,0.37052 0.635103,0.68782 0.10542,-0.42323 1.137915,0.185 -0.74104,0.39687 0.423747,0.58239 0.740523,0.50282 0.79375,-0.71469 0.582393,0.10594 0.555522,-0.23823 0.290939,-0.79375 0.238228,-0.21136 1.719791,0.0264 0.581877,-0.37052 -0.07906,0.6351 0.47594,0.74052 0.926042,-0.13229 0.211873,0.26458 0.687814,0.0796 -0.820106,0.39687 -0.635103,-0.0796 -0.344164,0.31781 0.105936,0.50281 0.767395,0.44959 0.502811,-0.26458 1.137399,0.0264 0.264584,-0.55552 0.159162,-0.15865 0.952397,-0.15865 0.872816,2.06344 0.608748,0.0532 0.820105,0.92604 1.773018,0.13229 c -0.873125,0.10584 -1.746354,0.23782 -2.619479,0.34365 -0.105833,0.0265 -0.238331,0.0266 -0.344164,-0.0264 -0.396875,-0.18521 -0.740524,-0.39667 -1.137399,-0.58188 -0.185208,-0.10583 -0.370726,0.10563 -0.582393,0.0527 -0.502708,-0.0529 -0.978855,-0.29083 -1.481563,-0.185 -1.031875,0.15875 -2.063544,0.34355 -3.095419,0.5023 -0.132292,0.0265 -0.317603,0.0531 -0.37052,0.21187 -0.07938,0.18521 -0.211873,0.39698 -0.211873,0.6351 0.05292,0.26458 0.291351,0.50271 0.31781,0.79375 -0.238125,0.3175 -0.529167,0.55552 -0.79375,0.82011 -0.502709,0 -1.005727,-0.26438 -1.508435,-0.3173 -0.211667,0.0265 -0.211667,0.26459 -0.264583,0.39688 -0.105834,0.39687 -0.291042,0.76688 -0.264584,1.16375 0.02646,0.44979 -0.02635,0.87323 -0.02635,1.29656 0,0.10584 -0.05292,0.18532 -0.132292,0.23823 -0.502708,0.37042 -1.032081,0.71417 -1.53479,1.11105 -0.238125,0.21166 -0.07906,0.60874 -0.211356,0.87333 -0.238125,0.15875 -0.555522,0.23822 -0.820105,0.37052 -0.423334,0.21166 -0.926352,0.21135 -1.376144,0.34365 -0.05292,0.39687 1.04e-4,0.79375 -0.02635,1.19062 0,0.10583 -0.10573,0.15885 -0.158647,0.23823 -1.005416,0.92604 -1.984685,1.87844 -2.963643,2.80448 -0.185208,-0.0794 -0.3175,-0.26448 -0.529167,-0.29094 -0.3175,0.0529 -0.581773,0.23833 -0.872814,0.34416 -0.291042,0.1323 -0.608749,0.23803 -0.873332,0.42324 -0.132292,0.23812 -0.185209,0.50291 -0.264584,0.74103 -0.05292,0.18521 -0.132395,0.34396 -0.105936,0.52917 0.132291,0.21167 0.291145,0.44959 0.502811,0.58188 0.291042,0.0265 0.555935,-0.0793 0.846977,-0.15865 0.423333,-0.0794 0.555522,-0.52906 0.820105,-0.8201 0.3175,0.0794 0.581773,0.23781 0.872815,0.34365 0.132292,0.0529 0.264894,0.10603 0.31781,0.21187 0.291042,0.47625 0.529063,0.9526 0.820105,1.42885 0.05292,0.10583 0.21146,0.23813 0.317293,0.13229 0.238125,-0.18521 0.47656,-0.39718 0.714685,-0.58239 0.211667,-0.15875 0.449585,-0.3174 0.581877,-0.55552 -0.185208,-0.23813 -0.423437,-0.39708 -0.635103,-0.60875 0.291039,-0.13229 0.582287,-0.185 0.873329,-0.31729 0.291042,-0.18521 0.317293,-0.58209 0.581877,-0.79375 0.370416,-0.13229 0.767601,-0.10594 1.11156,-0.23823 0.3175,-0.37042 0.396875,-0.89958 0.661458,-1.32292 0.07938,-0.10583 0.185105,-0.0791 0.290938,-0.0791 0.423334,0.0265 0.873228,0.13188 1.296562,0.10542 0.291041,-0.0794 0.476353,-0.37011 0.767395,-0.47594 0.3175,-0.0265 0.661252,-0.0265 0.978752,0 0.396875,0.21166 0.581877,0.66125 0.978752,0.84646 0.185208,-0.0794 0.317706,-0.23823 0.476456,-0.37052 0.07937,0.0794 0.158647,0.18541 0.290938,0.21187 0.449792,0.13229 0.926352,0.13229 1.376143,0.26458 0.264584,0.18521 0.343855,0.60875 0.687814,0.74104 0.449791,0.13229 0.925732,0.21146 1.401982,0.3173 0.15875,0.0265 0.344061,0.10583 0.502811,0 0.07937,-0.34396 -0.07917,-0.71438 -0.05271,-1.05834 0.264583,-0.10583 0.555625,-0.15864 0.79375,-0.29094 0.211667,-0.26458 0.291042,-0.63489 0.396875,-0.95239 -0.105833,-0.15875 -0.238228,-0.31771 -0.37052,-0.47646 0.15875,-0.13229 0.370623,-0.23802 0.476457,-0.42323 0.02646,-0.15875 -0.185312,-0.3176 -0.105937,-0.50281 0.132292,-0.37042 0.317191,-0.71427 0.475941,-1.08469 0.264583,-0.0529 0.529269,-0.0266 0.767394,-0.10593 0.3175,-0.21167 0.450102,-0.66126 0.846977,-0.71417 0.3175,-0.0794 0.661252,-0.15886 0.978752,-0.23823 0.47625,-0.10584 0.89948,-0.34406 1.349271,-0.50281 0.264584,-0.0529 0.502915,0.0262 0.74104,0.0527 0.185208,0.0265 0.396669,0.0265 0.581877,0.13229 0.820208,0.52917 1.640623,1.05874 2.460831,1.61437 0.105834,0.0529 0.211358,0.15834 0.343649,0.10542 0.211667,-0.21167 0.132601,-0.52886 0.31781,-0.74052 0.343958,-0.0265 0.661149,0.0795 1.005107,0.10593 0.873125,0.10584 1.719998,0.23782 2.593123,0.34365 0.07937,0 0.21177,-0.0265 0.238228,-0.13229 0.07937,-0.37042 0.05292,-0.76698 0.132292,-1.1374 0.635,-0.13229 1.296355,-0.10594 1.878438,-0.37052 0.3175,0.0265 0.608542,0.21146 0.926042,0.185 0.211667,-0.13229 0.211667,-0.42312 0.396875,-0.58187 0.423333,-0.1323 0.899583,-0.15906 1.322917,-0.31781 0.264583,-0.21167 0.502502,-0.47615 0.449585,-0.82011 0.396875,0.26459 0.767292,0.63521 1.190625,0.87333 0.582083,0 1.190934,-0.0263 1.773018,-0.0263 0.07937,0 0.15844,-2.1e-4 0.211357,0.0527 0.370417,0.18521 0.687917,0.4499 1.058333,0.6351 0.105834,0.0794 0.264893,-10e-5 0.31781,-0.10593 0.105833,-0.21167 0.185105,-0.44979 0.290938,-0.66146 1.190625,-0.23813 2.407605,-0.42333 3.59823,-0.66146 0.15875,-0.0529 0.344062,-0.0529 0.502812,0 0.846667,0.29104 1.69323,0.55542 2.539897,0.84646 0.370416,0.10583 0.714272,0.29135 1.084688,0.31781 0.264584,-0.18521 0.423437,-0.47656 0.635103,-0.71468 0.185209,-0.18521 0.290939,-0.4498 0.555522,-0.52917 0.661459,-0.18521 1.32302,-0.37021 1.95802,-0.58188 0.449792,-0.21166 0.767292,-0.63479 1.190625,-0.84646 0.502708,0 1.031978,0.15875 1.561145,0.13229 0.07937,-0.29104 -0.02635,-0.55593 -0.02635,-0.84697 0.05292,-0.26459 0.211461,-0.47605 0.317294,-0.71417 0.07938,-0.10583 0.105833,-0.29135 0.264583,-0.31781 0.370417,-0.13229 0.793957,-0.15834 1.137915,-0.37 l 1.269691,-0.79375 c 0.132291,-0.10584 0.317912,-0.18542 0.423746,-0.34417 -0.05292,-0.66146 -0.291145,-1.29656 -0.37052,-1.95802 0.05292,-0.34396 0.291145,-0.66115 0.37052,-1.00511 0.02646,-0.15875 -0.132292,-0.26479 -0.264584,-0.21187 -1.058333,0.18521 -2.063956,0.47646 -3.122289,0.60875 -0.370417,-0.15875 -0.581877,-0.58229 -0.978752,-0.74104 l -1.270209,-0.47646 c -0.3175,-0.10583 -0.661356,-0.13229 -0.952397,-0.26458 0.449791,-0.13229 0.925835,-0.0526 1.375627,-0.21136 0.3175,-0.29104 0.529166,-0.66177 0.79375,-0.97927 0.132291,-0.23812 0.396875,-0.42312 0.396875,-0.71417 v -1.16427 c 0,-0.1852 -0.105627,-0.31719 -0.185002,-0.47594 0.343958,-0.0265 0.68802,-0.0532 1.031978,-0.0532 0.211667,0 0.449482,1e-4 0.608232,-0.15865 0.396875,-0.34396 0.767498,-0.68792 1.137915,-1.058327 0.07937,-0.0794 0.105833,-0.18511 0.132291,-0.29094 -0.15875,-0.0529 -0.344061,-0.10614 -0.502811,-0.18552 0.79375,-0.84667 1.64021,-1.64 2.43396,-2.48667 0.211667,-0.50271 0.238125,-1.05833 0.396875,-1.5875 l 0.714685,-3.175 c 0.07937,-0.34396 -0.02677,-0.71438 -0.05323,-1.05833 -0.15875,-0.82021 -0.264481,-1.64063 -0.423231,-2.46083 -0.02646,-0.15875 -0.15875,-0.23834 -0.264583,-0.34417 -0.767292,-0.635 -1.508022,-1.26969 -2.275313,-1.93115 -0.185209,-0.13229 -0.343856,-0.3177 -0.555522,-0.34416 -0.635,-0.13229 -1.243542,-0.23782 -1.852084,-0.34365 -0.238125,-0.0529 -0.476559,-0.10594 -0.714684,-0.10594 H 68.91202 c -0.185208,-0.0265 -0.291248,0.15865 -0.344164,0.29094 -0.3175,0.76729 -0.608336,1.53438 -0.978752,2.30167 -0.820209,-0.42333 -1.613856,-0.87302 -2.407606,-1.34927 0.423334,-0.55563 0.925733,-1.08469 1.401983,-1.61386 0.185208,-0.23812 0.449998,-0.47645 0.608748,-0.74104 0.05292,-0.3175 0.05302,-0.66115 0.105936,-1.00511 0,-0.29104 0.105937,-0.60874 -0.02635,-0.87333 -0.423334,-0.9525 -0.873229,-1.90469 -1.296562,-2.85719 -0.07937,-0.18521 -0.132601,-0.42374 -0.317809,-0.55603 -0.661459,-0.50271 -1.481564,-0.79375 -2.010731,-1.45521 0.635,0.0529 1.270207,0.21197 1.931665,0.18551 0,-0.13229 0.05302,-0.23833 -0.02635,-0.34416 -0.926042,-1.74625 -1.878542,-3.46573 -2.778125,-5.23844 0.3175,-0.26458 0.687504,-0.4501 1.031462,-0.71468 v -0.18501 c -0.396875,-0.23812 -0.820105,-0.42333 -1.21698,-0.66146 -0.132292,-0.13229 -0.211461,-0.3177 -0.317294,-0.47645 -0.687917,-1.05833 -1.376143,-2.14302 -2.037601,-3.20136 -0.07937,-0.15875 -0.211254,-0.23792 -0.370004,-0.31729 -1.190625,-0.58208 -2.354895,-1.19093 -3.54552,-1.77302 -0.47625,-0.18521 -0.767498,-0.63489 -1.137915,-0.95239 -0.238125,-0.29105 -0.63469,-0.52917 -0.740523,-0.92605 -0.264584,-0.79375 -0.529167,-1.56114 -0.79375,-2.35489 -0.185209,-0.50271 -0.396979,-1.00511 -0.502812,-1.53428 -0.291047,-1.98437 -0.60865,-3.94249 -0.899692,-5.90041 -0.02646,-0.18521 -0.158647,-0.37052 -0.290938,-0.50281 -0.9525,-0.9525 -1.90531,-1.87834 -2.831351,-2.83084 -0.105834,-0.13229 -0.317397,-0.0795 -0.423231,0.0264 -0.187571,0.16506 -0.375187,0.32758 -0.562755,0.49144 l 0.106452,-0.12196 0.615466,-0.54932 -0.503327,-0.93379 -0.671277,-0.71417 -1.453658,-0.16485 -0.670761,-0.71417 -0.950847,-0.32917 -0.391189,-0.76895 -1.230415,0.16485 -0.670762,1.04335 -0.782899,0.32969 -0.950844,0.0548 -0.83871,-0.38447 h -1.062466 l -2.012797,-0.3297 -1.901177,-1.04335 0.391708,-0.32969 1.565278,0.65939 1.956988,0.32918 1.286226,-0.65888 0.335378,-0.76894 1.621608,-1.09864 0.895035,0.49454 1.789038,-1.26349 -2.292366,-1.15342 0.447001,-0.38447 0.112138,-0.65939 -0.727088,-0.16485 -2.124935,0.87902 0.727088,-0.9338 2.236558,-0.49402 0.503327,0.21962 1.342038,-1.37356 0.670759,-0.8785 0.50333,-1.59318 1.230415,-1.31827 0.72657,-1.92236 0.503327,-1.48311 0.16795,-1.37305 0.279569,-0.76894 0.950331,-1.59267 1.118793,-1.15342 -0.167947,-0.71417 -0.33538,-1.53789 -0.7829,-0.98857 -1.677416,0.10956 -2.013312,0.16485 -1.342038,-0.27441 -1.733228,-0.32969 -0.838708,0.32969 -0.894519,-0.0553 -1.342038,-0.54932 -1.118277,0.0553 -0.615466,0.27441 -0.782381,0.38447 -1.230418,0.16485 -0.670759,0.60409 -0.727088,0.3297 -0.559139,-0.3297 -0.559138,0.76895 -0.782897,0.76894 -0.391192,-0.0548 0.838708,-1.2082 0.782381,-1.42833 1.901177,-2.41691 -0.838708,0.11007 -1.342038,0.38447 -0.670759,0.0548 1.229897,-1.15342 0.05633,-0.93379 1.062468,-0.43925 0.167431,-0.71417 1.621608,-1.208188 0.950846,-0.6594 0.559139,-0.76894 0.61495,-0.54932 1.229899,-0.65888 0.782897,-0.71416 0.279569,-0.98858 -0.782896,-0.2744 0.950846,-2.25206 z m 6.856428,45.827178 c -0.126534,0.11814 -0.251129,0.23666 -0.37207,0.3576 -0.431096,0.40573 -0.840018,0.85792 -1.315683,1.22111 l 1.093991,-1.54202 z m -4.237984,4.06177 c -0.170903,0.14315 -0.357201,0.26691 -0.579292,0.34416 l -0.329179,0.16433 0.07958,-0.2496 z m 1.134297,25.847 c 0.0021,7.9e-4 0.0039,0.002 0.0062,0.003 0.238125,0.10583 0.476043,0.13209 0.714168,0.185 0.02646,0.21167 0.106246,0.44979 0.02687,0.66146 -0.132291,0.0794 -0.238228,0.10573 -0.370519,0.15865 -0.09198,-0.14717 -0.172432,-0.31939 -0.274402,-0.48214 z"
       id="Wales" />
    <path
       id="NorthIreland"
       sodipodi:nodetypes="ccccccccccccccccccccccccccccccccccccccccccccccccccccccccccccccccccccccccccccccccccccccccccccccccccccccccccccccccccccccccccccccccc"
       class="st0"
       d="m 1.4366235,69.098923 1.010986,0.232005 0.434959,0.632741 1.26961,0.03162 0.129312,0.263641 0.822895,0.485095 -1.034497,0.29528 -0.05878,0.242549 -0.223357,0.03163 -0.340914,0.664374 h 0.434959 l 0.434959,0.42182 0.470226,-0.474551 0.834651,0.442915 1.105031,0.02109 -0.27038,0.221462 v 0.442915 l 0.481982,0.232005 0.329158,0.611643 -0.105801,0.348009 0.03527,0.485098 0.35267,0.390186 0.05878,0.474552 0.787628,0.706559 h 1.105031 l 0.9169405,-0.326911 0.881674,2.003663 0.587783,-0.326909 1.081519,-0.06328 0.529005,0.474554 0.858162,0.06328 0.670072,0.474551 h 0.834651 l 1.116786,-0.580009 0.752362,0.326914 0.72885,-0.706554 -0.03527,-1.40257 0.27038,0.189823 0.434959,-0.29528 0.03527,-0.516734 -0.176335,-0.03163 0.08229,-0.200369 0.246868,-0.02109 0.99923,-1.476388 0.16458,-0.590551 0.293891,-0.01056 -0.258625,0.527278 h 0.305649 l 0.576025,-0.706554 0.02351,-0.569466 -0.293891,-0.232002 -0.987475,-0.421825 -0.576027,-0.906923 0.02351,-0.274188 0.352669,0.242549 0.717095,0.580009 1.681056,0.01056 0.376179,-0.906923 0.305652,-0.179258 0.02352,-0.727646 0.376179,-0.326914 -0.282133,-1.877121 -0.188092,0.05273 -0.623049,0.569465 0.03527,0.337458 0.2116,0.137091 -0.05878,0.63274 -0.188092,0.495642 -0.152824,0.02111 -0.07053,0.25309 -0.35267,0.168735 -0.376182,0.116004 -0.07053,-0.46401 0.223356,-0.274188 0.282137,-0.400735 0.07053,-0.326914 -0.05878,-0.653828 -0.552515,-0.495641 0.08229,-0.147643 0.43496,0.242551 0.387936,0.18982 0.658316,-0.685466 -1.128542,-1.339295 -0.387936,0.348007 -0.99923,-0.03162 -0.399692,-0.442921 0.164579,-0.379642 -0.18809,-0.991288 -1.492967,-0.90692 -0.35267,0.137091 0.08229,0.147637 h -0.399689 l -0.470226,0.590563 -0.999229,-0.05273 -0.105802,-0.348007 -0.928695,-0.05273 -1.16381,-0.379642 -0.552515,0.50619 0.164579,0.263644 -0.129312,0.242549 0.352669,0.474551 -0.611293,0.611648 -0.305647,-0.379643 -0.764117,1.12838 -0.376181,0.189822 0.176334,0.158184 -0.05878,0.65383 -0.658316,0.379641 -0.717095,0.348006 -0.54076,-0.706557 -0.3409145,-0.137093 -0.387936,-0.400733 0.470226,-0.558919 v -0.485098 l -0.799384,-0.221459 0.01176,-0.611645 -0.670072,-0.643284 -0.246868,0.05273 -0.670072,0.558919 -0.293891,-0.274185 -0.799384,0.01056 -1.022742,0.959654 -0.928696,-0.05273 -0.45847,0.232005 -0.07053,0.896372 -0.611294,0.105457 -0.340914,0.801468 -0.364425,-0.147637 z"
       inkscape:connector-curvature="0"
       style="fill:#ffffff;stroke:#231f20;stroke-width:0.26458332;stroke-miterlimit:10" />
    <path
       id="London"
       class="st0"
       d="m 58.268326,101.14603 c 0.3175,-0.18521 0.687917,-0.10584 1.031875,-0.10584 0.05292,0.15875 0.02646,0.34396 0.15875,0.47625 0.185208,0.15875 0.396875,0.34396 0.608542,0.50271 0.105833,0.0794 0.238125,0.0265 0.343958,0 0.396875,-0.10583 0.767292,-0.23812 1.164167,-0.26458 0.105833,0.26458 0.211666,0.55562 0.3175,0.82021 -0.185209,0.26458 -0.423334,0.47625 -0.582084,0.74083 -0.185208,0.58208 -0.423333,1.16417 -0.635,1.74625 -0.07937,0.29104 -0.3175,0.50271 -0.582083,0.60854 -0.264583,-0.0529 -0.47625,-0.23812 -0.740833,-0.3175 -0.211667,0.15875 -0.370417,0.34396 -0.582084,0.52917 -0.132291,-0.15875 -0.238125,-0.3175 -0.343958,-0.50271 -0.15875,-0.0265 -0.3175,-0.0265 -0.47625,-0.0529 -0.05292,-0.18521 -0.105833,-0.34396 -0.211667,-0.52917 -0.238125,-0.0265 -0.343958,0.26459 -0.502708,0.39688 0,-0.18521 0.07937,-0.42334 -0.105833,-0.52917 -0.449792,-0.3175 -0.9525,-0.60854 -1.402292,-0.92604 -0.02646,-0.3175 0.211667,-0.60854 0.238125,-0.89958 -0.05292,-0.23813 -0.15875,-0.4498 -0.238125,-0.68792 0.370417,-0.0794 0.740833,-0.0529 1.11125,-0.15875 0.502708,-0.23813 0.9525,-0.55563 1.42875,-0.84667 z"
       inkscape:connector-curvature="0"
       style="fill:#ffffff;stroke:#231f20;stroke-width:0.26458332;stroke-miterlimit:10" />
  </g>
  <text
     xml:space="preserve"
     style="font-style:normal;font-weight:normal;font-size:3.17499995px;line-height:1.25;font-family:sans-serif;letter-spacing:0px;word-spacing:0px;fill:#000000;fill-opacity:1;stroke:none;stroke-width:0.26458332"
     x="23.719204"
     y="39.345535"
     id="text15947"><tspan
       sodipodi:role="line"
       id="tspan15945"
       x="23.719204"
       y="39.345535"
       style="stroke-width:0.26458332;font-size:3.52777778px">Glasgow</tspan></text>
  <text
     xml:space="preserve"
     style="font-style:normal;font-weight:normal;font-size:3.17499995px;line-height:1.25;font-family:sans-serif;letter-spacing:0px;word-spacing:0px;fill:#000000;fill-opacity:1;stroke:none;stroke-width:0.26458332"
     x="30.587961"
     y="53.549065"
     id="text15947-9"><tspan
       sodipodi:role="line"
       id="tspan15945-6"
       x="30.587961"
       y="53.549065"
       style="font-size:3.52777778px;stroke-width:0.26458332">Newcastle</tspan></text>
  <text
     xml:space="preserve"
     style="font-style:normal;font-weight:normal;font-size:3.17499995px;line-height:1.25;font-family:sans-serif;letter-spacing:0px;word-spacing:0px;fill:#000000;fill-opacity:1;stroke:none;stroke-width:0.26458332"
     x="1.1883162"
     y="101.92485"
     id="text15947-5"><tspan
       sodipodi:role="line"
       id="tspan15945-7"
       x="1.1883162"
       y="101.92485"
       style="font-size:3.52777778px;stroke-width:0.26458332">Dublin</tspan></text>
  <text
     xml:space="preserve"
     style="font-style:normal;font-weight:normal;font-size:3.17499995px;line-height:1.25;font-family:sans-serif;letter-spacing:0px;word-spacing:0px;fill:#000000;fill-opacity:1;stroke:none;stroke-width:0.26458332"
     x="51.702255"
     y="109.14113"
     id="text15947-0"><tspan
       sodipodi:role="line"
       id="tspan15945-5"
       x="51.702255"
       y="109.14113"
       style="font-size:4.23333311px;stroke-width:0.26458332">London</tspan></text>
  <text
     xml:space="preserve"
     style="font-style:normal;font-weight:normal;font-size:3.52777767px;line-height:1.25;font-family:sans-serif;letter-spacing:0px;word-spacing:0px;fill:#000000;fill-opacity:1;stroke:none;stroke-width:0.26458332"
     x="50.36591"
     y="118.22828"
     id="text15947-3"><tspan
       sodipodi:role="line"
       id="tspan15945-3"
       x="50.36591"
       y="118.22828"
       style="font-size:3.52777767px;stroke-width:0.26458332">Sussex</tspan></text>
  <text
     xml:space="preserve"
     style="font-style:normal;font-weight:normal;font-size:3.52777778px;line-height:1.25;font-family:sans-serif;letter-spacing:0px;word-spacing:0px;fill:#000000;fill-opacity:1;stroke:none;stroke-width:0.26458332;"
     x="30.587961"
     y="113.68471"
     id="text15947-4"><tspan
       sodipodi:role="line"
       id="tspan15945-4"
       x="30.587961"
       y="113.68471"
       style="font-size:3.52777778px;stroke-width:0.26458332;">Bristol</tspan></text>
  <text
     xml:space="preserve"
     style="font-style:normal;font-weight:normal;font-size:3.52777767px;line-height:1.25;font-family:sans-serif;letter-spacing:0px;word-spacing:0px;fill:#000000;fill-opacity:1;stroke:none;stroke-width:0.26458332"
     x="30.320692"
     y="102.19212"
     id="text15947-57"><tspan
       sodipodi:role="line"
       id="tspan15945-30"
       x="30.320692"
       y="102.19212"
       style="font-size:3.52777767px;stroke-width:0.26458332">Cadiff</tspan></text>
  <text
     xml:space="preserve"
     style="font-style:normal;font-weight:normal;font-size:3.17499995px;line-height:1.25;font-family:sans-serif;letter-spacing:0px;word-spacing:0px;fill:#000000;fill-opacity:1;stroke:none;stroke-width:0.26458332"
     x="40.744205"
     y="98.717613"
     id="text15947-05"><tspan
       sodipodi:role="line"
       id="tspan15945-51"
       x="40.744205"
       y="98.717613"
       style="font-size:3.52777767px;stroke-width:0.26458332">Oxford</tspan></text>
  <text
     xml:space="preserve"
     style="font-style:normal;font-weight:normal;font-size:3.17499995px;line-height:1.25;font-family:sans-serif;letter-spacing:0px;word-spacing:0px;fill:#000000;fill-opacity:1;stroke:none;stroke-width:0.26458332"
     x="58.383995"
     y="94.975838"
     id="text15947-04"><tspan
       sodipodi:role="line"
       id="tspan15945-0"
       x="58.383995"
       y="94.975838"
       style="font-size:3.52777778px;stroke-width:0.26458332">Cambridge</tspan></text>
  <text
     xml:space="preserve"
     style="font-style:normal;font-weight:normal;font-size:3.17499995px;line-height:1.25;font-family:sans-serif;letter-spacing:0px;word-spacing:0px;fill:#000000;fill-opacity:1;stroke:none;stroke-width:0.26458332"
     x="34.597008"
     y="89.095917"
     id="text15947-95"><tspan
       sodipodi:role="line"
       id="tspan15945-8"
       x="34.597008"
       y="89.095917"
       style="font-size:3.52777778px;stroke-width:0.26458332">Leicester</tspan></text>
  <text
     xml:space="preserve"
     style="font-style:normal;font-weight:normal;font-size:3.52777778px;line-height:1.25;font-family:sans-serif;letter-spacing:0px;word-spacing:0px;fill:#000000;fill-opacity:1;stroke:none;stroke-width:0.26458332;"
     x="55.7113"
     y="89.897728"
     id="text15947-50"><tspan
       sodipodi:role="line"
       id="tspan15945-87"
       x="55.7113"
       y="89.897728"
       style="font-size:3.52777778px;stroke-width:0.26458332;">Nottingham</tspan></text>
  <text
     xml:space="preserve"
     style="font-style:normal;font-weight:normal;font-size:3.17499995px;line-height:1.25;font-family:sans-serif;letter-spacing:0px;word-spacing:0px;fill:#000000;fill-opacity:1;stroke:none;stroke-width:0.26458332"
     x="60.522148"
     y="79.20694"
     id="text15947-7"><tspan
       sodipodi:role="line"
       id="tspan15945-1"
       x="60.522148"
       y="79.20694"
       style="font-size:3.52777778px;stroke-width:0.26458332">Sheffield</tspan></text>
  <text
     xml:space="preserve"
     style="font-style:normal;font-weight:normal;font-size:3.17499995px;line-height:1.25;font-family:sans-serif;letter-spacing:0px;word-spacing:0px;fill:#000000;fill-opacity:1;stroke:none;stroke-width:0.26458332"
     x="41.546013"
     y="81.612366"
     id="text15947-75"><tspan
       sodipodi:role="line"
       id="tspan15945-2"
       x="41.546013"
       y="81.612366"
       style="font-size:3.52777778px;stroke-width:0.26458332">Manchester</tspan></text>
  <text
     xml:space="preserve"
     style="font-style:normal;font-weight:normal;font-size:3.17499995px;line-height:1.25;font-family:sans-serif;letter-spacing:0px;word-spacing:0px;fill:#000000;fill-opacity:1;stroke:none;stroke-width:0.26458332"
     x="22.569878"
     y="77.068787"
     id="text15947-579"><tspan
       sodipodi:role="line"
       id="tspan15945-55"
       x="22.569878"
       y="77.068787"
       style="font-size:3.52777778px;stroke-width:0.26458332">Liverpool</tspan></text>
  <text
     xml:space="preserve"
     style="font-style:normal;font-weight:normal;font-size:3.17499995px;line-height:1.25;font-family:sans-serif;letter-spacing:0px;word-spacing:0px;fill:#000000;fill-opacity:1;stroke:none;stroke-width:0.26458332"
     x="56.780373"
     y="65.041656"
     id="text15947-2"><tspan
       sodipodi:role="line"
       id="tspan15945-17"
       x="56.780373"
       y="65.041656"
       style="font-size:3.52777778px;stroke-width:0.26458332">Leeds</tspan></text>
  <text
     xml:space="preserve"
     style="font-style:normal;font-weight:normal;font-size:3.17499995px;line-height:1.25;font-family:sans-serif;letter-spacing:0px;word-spacing:0px;fill:#000000;fill-opacity:1;stroke:none;stroke-width:0.26458332"
     x="62.125767"
     y="70.387047"
     id="text15947-90"><tspan
       sodipodi:role="line"
       id="tspan15945-18"
       x="62.125767"
       y="70.387047"
       style="font-size:3.52777778px;stroke-width:0.26458332">Hull</tspan></text>
  <text
     xml:space="preserve"
     style="font-style:normal;font-weight:normal;font-size:3.52777767px;line-height:1.25;font-family:sans-serif;letter-spacing:0px;word-spacing:0px;fill:#000000;fill-opacity:1;stroke:none;stroke-width:0.26458332"
     x="6.8798199"
     y="71.976334"
     id="text16089"><tspan
       sodipodi:role="line"
       id="tspan16087"
       x="6.8798199"
       y="71.976334"
       style="stroke-width:0.26458332">Belfast</tspan></text>
</svg>
