<?xml version="1.0" encoding="UTF-8" standalone="no"?>
<!-- Generator: Adobe Illustrator 21.0.0, SVG Export Plug-In . SVG Version: 6.00 Build 0)  -->

<svg
   xmlns:dc="http://purl.org/dc/elements/1.1/"
   xmlns:cc="http://creativecommons.org/ns#"
   xmlns:rdf="http://www.w3.org/1999/02/22-rdf-syntax-ns#"
   xmlns:svg="http://www.w3.org/2000/svg"
   xmlns="http://www.w3.org/2000/svg"
   xmlns:xlink="http://www.w3.org/1999/xlink"
   xmlns:sodipodi="http://sodipodi.sourceforge.net/DTD/sodipodi-0.dtd"
   xmlns:inkscape="http://www.inkscape.org/namespaces/inkscape"
   version="1.1"
   id="Layer_1"
   x="0px"
   y="0px"
   viewBox="0 0 600 500"
   xml:space="preserve"
   sodipodi:docname="BodyWithMap2.svg"
   width="600"
   height="500"
   inkscape:version="0.92.2 (5c3e80d, 2017-08-06)"><metadata
     id="metadata6339"><rdf:RDF><cc:Work
         rdf:about=""><dc:format>image/svg+xml</dc:format><dc:type
           rdf:resource="http://purl.org/dc/dcmitype/StillImage" /><dc:title></dc:title></cc:Work></rdf:RDF></metadata><defs
     id="defs6337"><linearGradient
       y2="810.57129"
       x2="253.1377"
       y1="503.91599"
       x1="352.14749"
       gradientUnits="userSpaceOnUse"
       id="linearGradient552"><stop
         id="stop528"
         style="stop-color:#6B9A36"
         offset="0" /><stop
         id="stop530"
         style="stop-color:#67963E"
         offset="1" /></linearGradient><linearGradient
       id="XMLID_9_"
       gradientUnits="userSpaceOnUse"
       x1="266.75681"
       y1="488.6611"
       x2="271.75699"
       y2="514.26129"
       gradientTransform="translate(200.66668,153.74349)"><stop
         offset="0.0056"
         style="stop-color:#8CC63F"
         id="stop56" /><stop
         offset="0.0762"
         style="stop-color:#AFD136"
         id="stop58" /><stop
         offset="0.161"
         style="stop-color:#CEDC28"
         id="stop60" /><stop
         offset="0.248"
         style="stop-color:#E6E515"
         id="stop62" /><stop
         offset="0.3368"
         style="stop-color:#F7EC00"
         id="stop64" /><stop
         offset="0.4286"
         style="stop-color:#FFF000"
         id="stop66" /><stop
         offset="0.5281"
         style="stop-color:#FFF200"
         id="stop68" /><stop
         offset="0.816"
         style="stop-color:#DFE21D"
         id="stop70" /><stop
         offset="1"
         style="stop-color:#CADB2A"
         id="stop72" /></linearGradient><linearGradient
       id="XMLID_8_"
       gradientUnits="userSpaceOnUse"
       x1="352.14749"
       y1="503.91599"
       x2="253.1377"
       y2="810.57129"><stop
         offset="0"
         style="stop-color:#6C9D31"
         id="stop15" /><stop
         offset="0.2906"
         style="stop-color:#6C9C32"
         id="stop17" /><stop
         offset="0.4226"
         style="stop-color:#6B9A36"
         id="stop19" /><stop
         offset="0.5227"
         style="stop-color:#67963E"
         id="stop21" /><stop
         offset="0.6066"
         style="stop-color:#62914A"
         id="stop23" /><stop
         offset="0.6803"
         style="stop-color:#5C8B59"
         id="stop25" /><stop
         offset="0.747"
         style="stop-color:#528368"
         id="stop27" /><stop
         offset="0.8084"
         style="stop-color:#467977"
         id="stop29" /><stop
         offset="0.8656"
         style="stop-color:#356D87"
         id="stop31" /><stop
         offset="0.9173"
         style="stop-color:#1C6095"
         id="stop33" /><stop
         offset="0.9607"
         style="stop-color:#0054A6"
         id="stop35" /><stop
         offset="0.9696"
         style="stop-color:#2E4BA0"
         id="stop37" /><stop
         offset="0.9893"
         style="stop-color:#5A3795"
         id="stop39" /><stop
         offset="1"
         style="stop-color:#662D91"
         id="stop41" /></linearGradient><linearGradient
       id="XMLID_12_"
       gradientUnits="userSpaceOnUse"
       x1="166.5439"
       y1="708.21191"
       x2="124.5126"
       y2="653.83557"><stop
         offset="0"
         style="stop-color:#F26522"
         id="stop181" /><stop
         offset="0.2246"
         style="stop-color:#CA7F25"
         id="stop183" /><stop
         offset="0.49"
         style="stop-color:#A59029"
         id="stop185" /><stop
         offset="0.7172"
         style="stop-color:#87982D"
         id="stop187" /><stop
         offset="0.8945"
         style="stop-color:#749B2F"
         id="stop189" /><stop
         offset="1"
         style="stop-color:#6C9D31"
         id="stop191" /></linearGradient><linearGradient
       inkscape:collect="always"
       xlink:href="#XMLID_9_"
       id="linearGradient741"
       gradientUnits="userSpaceOnUse"
       gradientTransform="matrix(-0.15691217,0,0,0.15920986,557.00488,123.1471)"
       x1="266.75681"
       y1="488.6611"
       x2="271.75699"
       y2="514.26129" /></defs><sodipodi:namedview
     pagecolor="#ffffff"
     bordercolor="#666666"
     borderopacity="1"
     objecttolerance="10"
     gridtolerance="10"
     guidetolerance="10"
     inkscape:pageopacity="0"
     inkscape:pageshadow="2"
     inkscape:window-width="1600"
     inkscape:window-height="1138"
     id="namedview6335"
     showgrid="false"
     inkscape:zoom="1.28"
     inkscape:cx="272.42562"
     inkscape:cy="229.89134"
     inkscape:window-x="-8"
     inkscape:window-y="-8"
     inkscape:window-maximized="1"
     inkscape:current-layer="Layer_1" /><path
     style="fill:#ffffff;stroke:#231f20;stroke-miterlimit:10"
     d="M 144.29297 27.142578 L 145.77344 29.841797 L 145.13867 31.085938 L 138.58789 28.802734 L 132.45898 30.878906 L 123.16016 31.917969 L 117.03125 33.162109 L 111.95898 30.464844 L 109 31.917969 L 105.83008 30.464844 L 100.54688 27.349609 L 98.433594 29.425781 L 95.898438 34.201172 L 99.279297 37.9375 L 96.109375 38.767578 L 94.417969 40.013672 L 96.109375 45.410156 L 90.613281 46.863281 L 87.021484 47.486328 L 89.769531 51.638672 L 90.826172 54.544922 L 88.5 54.544922 L 85.542969 53.921875 L 90.402344 58.904297 L 94.207031 63.056641 L 88.289062 63.263672 L 85.330078 66.169922 L 81.103516 63.472656 L 79.625 66.585938 L 76.666016 65.962891 L 74.763672 66.792969 L 74.763672 71.982422 L 78.357422 74.058594 L 74.552734 78.417969 L 78.357422 82.15625 L 79.414062 84.023438 L 77.933594 84.232422 L 73.707031 81.740234 L 72.650391 84.853516 L 72.228516 88.382812 L 74.552734 93.158203 L 79.625 93.574219 L 76.666016 97.103516 L 71.804688 98.763672 L 69.058594 96.064453 L 65.675781 93.78125 L 63.773438 90.458984 L 64.408203 84.646484 L 64.619141 80.494141 L 60.603516 73.4375 L 57.433594 75.927734 L 57.646484 80.494141 L 59.546875 84.023438 L 58.490234 85.269531 L 56.587891 83.400391 L 53.417969 80.494141 L 51.09375 79.457031 L 50.037109 81.326172 L 50.671875 86.306641 L 47.078125 82.986328 L 45.810547 85.269531 L 46.445312 89.214844 L 49.191406 91.705078 L 51.09375 92.121094 L 53.207031 88.591797 L 55.955078 91.498047 L 54.052734 94.611328 L 58.914062 101.66992 L 63.351562 101.04688 L 64.830078 103.95312 L 66.945312 100.83984 L 68.845703 101.87695 L 68.001953 104.57617 L 65.886719 109.14258 L 68.845703 108.10547 L 70.748047 106.44531 L 73.707031 101.66992 L 76.03125 100.2168 L 77.933594 100.42383 L 73.072266 107.48242 L 75.820312 109.76562 L 70.537109 111.63477 L 67.789062 117.44727 L 73.496094 117.6543 L 69.480469 121.80664 L 66.945312 123.05273 L 60.181641 123.4668 L 58.490234 126.16602 L 72.015625 128.03516 L 66.310547 129.48828 L 65.253906 130.73242 L 68.001953 135.09375 L 71.382812 135.30078 L 74.128906 137.37695 L 82.794922 130.73242 L 88.712891 125.12891 L 85.119141 131.14844 L 78.990234 142.77344 L 76.03125 149.625 L 77.722656 155.23047 L 73.917969 162.70312 L 71.171875 167.26953 L 73.072266 169.13867 L 75.1875 168.72266 L 72.228516 173.08398 L 74.552734 176.4043 L 70.537109 186.36914 L 70.326172 193.2207 L 67.367188 196.12695 L 66.521484 200.90039 L 73.285156 200.27734 L 74.974609 198.41016 L 78.779297 179.10352 L 83.427734 176.4043 L 80.470703 169.3457 L 79.414062 166.23242 L 80.046875 163.11914 L 81.314453 163.5332 L 84.486328 160.21289 L 83.427734 164.15625 L 82.371094 168.10156 L 83.216797 171.21484 L 86.175781 173.91406 L 91.458984 179.51953 L 92.515625 175.99023 L 94.417969 170.5918 L 95.052734 166.85547 L 97.587891 165.60938 L 100.54688 165.81641 L 104.14062 167.89258 L 101.18164 168.10156 L 98.222656 167.47852 L 96.53125 169.13867 L 95.685547 173.49805 L 96.955078 178.06641 L 94.841797 180.55664 L 100.75781 185.74609 L 102.23828 187.19922 L 102.44922 193.84375 L 99.490234 196.12695 L 98.222656 198.20312 L 96.742188 200.69336 L 94.628906 206.71289 L 90.826172 210.45117 L 89.556641 214.60156 L 90.191406 222.2832 L 87.443359 216.88672 L 85.542969 217.50977 L 85.330078 220.41602 L 86.175781 224.35938 L 90.613281 229.3418 L 91.882812 234.74023 L 93.996094 235.98438 L 94.628906 236.19336 L 92.09375 226.43555 L 95.685547 224.35938 L 100.125 227.68164 L 101.18164 228.51172 L 109 234.32422 L 110.69141 227.68164 L 107.52148 224.35938 L 109.42383 223.32227 L 113.22656 226.01953 L 119.14453 229.3418 L 122.73828 230.37891 L 126.96484 228.0957 L 128.44336 224.77539 L 133.9375 225.18945 L 134.57227 218.96289 L 146.47461 219.76367 L 146 220 C 145.5 220.3 144.79961 220.59922 144.59961 221.19922 C 143.89961 222.89922 143.39922 224.60078 142.69922 226.30078 C 141.69922 228.10078 140.19922 229.6 139.19922 231.5 C 138.49922 233.4 138.00078 235.5 137.30078 237.5 C 137.00078 238.5 136.4 239.5 137 240.5 C 139.1 244.5 141.30039 248.50039 143.40039 252.40039 C 144.10039 253.70039 144.69961 254.99922 145.59961 256.19922 C 146.49961 255.99922 147.2 255.59922 148 255.19922 C 147.8 256.19922 147.30078 257.09961 147.30078 258.09961 C 147.80078 259.19961 148.70039 260.00039 149.40039 260.90039 C 149.70039 261.40039 150.39922 261.30078 150.69922 260.80078 C 151.79922 259.30078 152.8 257.69922 154 256.19922 C 154.5 256.89922 154.80039 257.80039 155.40039 258.40039 C 156.50039 258.70039 157.2 257.6 158 257 C 158.6 257.6 158.90078 258.50078 159.30078 259.30078 C 158.30078 260.00078 157.09961 260.50078 156.09961 261.30078 C 156.39961 262.80078 157.39922 264.09961 157.69922 265.59961 C 156.49922 266.19961 155.39922 266.80039 154.19922 267.40039 C 153.69922 267.70039 153 268.10078 153 268.80078 C 153 270.70078 152.90039 272.6 152.90039 274.5 C 152.90039 276 154.29922 277.19961 154.69922 278.59961 C 154.69922 278.99961 154.50039 279.2 154.40039 279.5 C 153.30039 281.5 152.19922 283.40039 151.19922 285.40039 C 150.89922 286.00039 151.10078 286.59922 151.30078 287.19922 C 151.80078 288.49922 152.29922 289.7 152.69922 291 C 151.49922 291.7 150.10039 292.20078 148.90039 292.80078 C 148.50039 293.00078 148.20078 293.30078 148.30078 293.80078 C 148.60078 295.00078 149.1 296.10078 149.5 297.30078 C 149.9 298.20078 150.00078 299.19922 150.80078 299.69922 C 152.50078 300.89922 154.3 302.10039 156 303.40039 C 155.79199 303.57373 155.58861 303.74658 155.38477 303.91992 L 152.40039 301.19922 L 143.90039 304.19922 L 140 303.69922 L 136.90039 302 L 137.19922 304.5 L 132.59961 306.19922 L 128 307 L 130.80078 303.19922 L 126.09961 303.30078 L 124.90039 300.90039 L 123.80078 297.5 L 116 298.19922 L 115.5 301.80078 L 112.09961 302.40039 L 114.69922 306.09961 L 116.40039 306.30078 L 119.40039 310.09961 L 122.19922 312 L 122.09961 316.5 L 116.19922 320.90039 L 114.80078 321.19922 L 108.59961 328.09961 L 109.40039 328.5 L 113.80078 327.09961 L 116 328.90039 L 117.30078 328 L 117.19922 326.30078 L 120.80078 323.5 L 130 322.5 L 127.69922 324.09961 L 128.09961 326.59961 L 127.69922 328.5 L 130.40039 332.19922 L 130 333.90039 L 127.30078 337.5 L 129.69922 341.40039 L 130 344 L 127.09961 352 L 124.5 355.09961 L 120.30078 357 L 115 360.80078 L 110.69922 360.90039 L 110.19922 361.80078 L 108.40039 361.30078 L 107.40039 363.5 L 105.69922 365.90039 L 103.30078 365.5 L 101.30078 366.59961 L 100.09961 365.19922 L 97.800781 365.59961 L 97.5 368.30078 L 90.900391 371.09961 L 90.800781 372.5 L 91.5 373.5 L 94.800781 373.09961 L 97 375.40039 L 97 377.80078 L 94.599609 378.09961 L 92.900391 379.5 L 95.300781 382.09961 L 95.699219 380.5 L 100 381.19922 L 97.199219 382.69922 L 98.800781 384.90039 L 101.59961 386.80078 L 104.59961 384.09961 L 106.80078 384.5 L 108.90039 383.59961 L 110 380.59961 L 110.90039 379.80078 L 117.40039 379.90039 L 119.59961 378.5 L 119.30078 380.90039 L 121.09961 383.69922 L 124.59961 383.19922 L 125.40039 384.19922 L 128 384.5 L 124.90039 386 L 122.5 385.69922 L 121.19922 386.90039 L 121.59961 388.80078 L 124.5 390.5 L 126.40039 389.5 L 130.69922 389.59961 L 131.69922 387.5 L 132.30078 386.90039 L 135.90039 386.30078 L 139.19922 394.09961 L 141.5 394.30078 L 144.59961 397.80078 L 151.30078 398.30078 C 148.00078 398.70078 144.70039 399.19961 141.40039 399.59961 C 141.00039 399.69961 140.49961 399.7 140.09961 399.5 C 138.59961 398.8 137.30078 398.00078 135.80078 397.30078 C 135.10078 396.90078 134.39961 397.7 133.59961 397.5 C 131.69961 397.3 129.9 396.40078 128 396.80078 C 124.1 397.40078 120.20078 398.09922 116.30078 398.69922 C 115.80078 398.79922 115.10039 398.9 114.90039 399.5 C 114.60039 400.2 114.09961 401.00039 114.09961 401.90039 C 114.29961 402.90039 115.20078 403.80039 115.30078 404.90039 C 114.40078 406.10039 113.30078 407 112.30078 408 C 110.40078 408 108.49961 407.00078 106.59961 406.80078 C 105.79961 406.90078 105.79961 407.80078 105.59961 408.30078 C 105.19961 409.80078 104.49961 411.19922 104.59961 412.69922 C 104.69961 414.39922 104.5 415.99961 104.5 417.59961 C 104.5 417.99961 104.3 418.3 104 418.5 C 102.1 419.9 100.09922 421.19922 98.199219 422.69922 C 97.299219 423.49922 97.900391 425 97.400391 426 C 96.500391 426.6 95.300781 426.90039 94.300781 427.40039 C 92.700781 428.20039 90.799609 428.19922 89.099609 428.69922 C 88.899609 430.19922 89.1 431.69922 89 433.19922 C 89 433.59922 88.600391 433.79961 88.400391 434.09961 C 84.600391 437.59961 80.899219 441.19922 77.199219 444.69922 C 76.499219 444.39922 75.999219 443.69961 75.199219 443.59961 C 73.999219 443.79961 73.000391 444.50039 71.900391 444.90039 C 70.800391 445.40039 69.599609 445.8 68.599609 446.5 C 68.099609 447.4 67.899609 448.40078 67.599609 449.30078 C 67.399609 450.00078 67.099219 450.60078 67.199219 451.30078 C 67.699219 452.10078 68.299609 453 69.099609 453.5 C 70.199609 453.6 71.200781 453.20039 72.300781 452.90039 C 73.900781 452.60039 74.400391 450.90078 75.400391 449.80078 C 76.600391 450.10078 77.599219 450.69961 78.699219 451.09961 C 79.199219 451.29961 79.700391 451.50039 79.900391 451.90039 C 81.000391 453.70039 81.9 455.50078 83 457.30078 C 83.2 457.70078 83.799219 458.20078 84.199219 457.80078 C 85.099219 457.10078 86.000391 456.29961 86.900391 455.59961 C 87.700391 454.99961 88.599609 454.4 89.099609 453.5 C 88.399609 452.6 87.499219 451.99922 86.699219 451.19922 C 87.799219 450.69922 88.9 450.5 90 450 C 91.1 449.3 91.199219 447.8 92.199219 447 C 93.599219 446.5 95.100391 446.59961 96.400391 446.09961 C 97.600391 444.69961 97.900391 442.69961 98.900391 441.09961 C 99.200391 440.69961 99.6 440.80078 100 440.80078 C 101.6 440.90078 103.30039 441.29922 104.90039 441.19922 C 106.00039 440.89922 106.70078 439.80039 107.80078 439.40039 C 109.00078 439.30039 110.3 439.30039 111.5 439.40039 C 113 440.20039 113.69922 441.89961 115.19922 442.59961 C 115.89922 442.29961 116.4 441.69922 117 441.19922 C 117.3 441.49922 117.59961 441.9 118.09961 442 C 119.79961 442.5 121.60078 442.5 123.30078 443 C 124.30078 443.7 124.60039 445.30078 125.90039 445.80078 C 127.60039 446.30078 129.39922 446.6 131.19922 447 C 131.79922 447.1 132.49961 447.4 133.09961 447 C 133.39961 445.7 132.80039 444.3 132.90039 443 C 133.90039 442.6 135.00039 442.40039 135.90039 441.90039 C 136.70039 440.90039 137.00039 439.50078 137.40039 438.30078 C 137.00039 437.70078 136.5 437.1 136 436.5 C 136.6 436 137.40078 435.60039 137.80078 434.90039 C 137.90078 434.30039 137.10039 433.7 137.40039 433 C 137.90039 431.6 138.59922 430.30039 139.19922 428.90039 C 140.19922 428.70039 141.19961 428.8 142.09961 428.5 C 143.29961 427.7 143.80078 426.00078 145.30078 425.80078 C 146.50078 425.50078 147.8 425.20039 149 424.90039 C 150.8 424.50039 152.39961 423.6 154.09961 423 C 155.09961 422.8 156.00039 423.09922 156.90039 423.19922 C 157.60039 423.29922 158.39961 423.29922 159.09961 423.69922 C 162.19961 425.69922 165.30039 427.70078 168.40039 429.80078 C 168.80039 430.00078 169.19922 430.39922 169.69922 430.19922 C 170.49922 429.39922 170.20039 428.20039 170.90039 427.40039 C 172.20039 427.30039 173.39922 427.70078 174.69922 427.80078 C 177.99922 428.20078 181.2 428.69961 184.5 429.09961 C 184.8 429.09961 185.30039 428.99961 185.40039 428.59961 C 185.70039 427.19961 185.60039 425.70078 185.90039 424.30078 C 188.30039 423.80078 190.8 423.90039 193 422.90039 C 194.2 423.00039 195.3 423.69961 196.5 423.59961 C 197.3 423.09961 197.3 422.00039 198 421.40039 C 199.6 420.90039 201.4 420.79922 203 420.19922 C 204 419.39922 204.89922 418.39961 204.69922 417.09961 C 206.19922 418.09961 207.59922 419.50039 209.19922 420.40039 C 211.39922 420.40039 213.70039 420.30078 215.90039 420.30078 C 216.20039 420.30078 216.49922 420.3 216.69922 420.5 C 218.09922 421.2 219.29922 422.20039 220.69922 422.90039 C 221.09922 423.20039 221.70039 422.9 221.90039 422.5 C 222.30039 421.7 222.6 420.8 223 420 C 227.5 419.1 232.09961 418.4 236.59961 417.5 C 237.19961 417.3 237.9 417.3 238.5 417.5 C 241.7 418.6 244.89961 419.59922 248.09961 420.69922 C 249.49961 421.09922 250.79922 421.80039 252.19922 421.90039 C 253.19922 421.20039 253.79961 420.09922 254.59961 419.19922 C 255.29961 418.49922 255.69922 417.49922 256.69922 417.19922 C 259.19922 416.49922 261.69961 415.8 264.09961 415 C 265.79961 414.2 266.99961 412.60078 268.59961 411.80078 C 270.49961 411.80078 272.5 412.40078 274.5 412.30078 C 274.8 411.20078 274.40039 410.19961 274.40039 409.09961 C 274.60039 408.09961 275.19961 407.30039 275.59961 406.40039 C 275.89961 406.00039 275.99961 405.29922 276.59961 405.19922 C 277.99961 404.69922 279.60039 404.60078 280.90039 403.80078 L 285.69922 400.80078 C 286.19922 400.40078 286.90078 400.1 287.30078 399.5 C 287.10078 397 286.20039 394.59961 285.90039 392.09961 C 286.10039 390.79961 287.00078 389.60078 287.30078 388.30078 C 287.40078 387.70078 286.80078 387.3 286.30078 387.5 C 282.30078 388.2 278.5 389.30078 274.5 389.80078 C 273.1 389.20078 272.30078 387.6 270.80078 387 L 266 385.19922 C 264.8 384.79922 263.50039 384.69922 262.40039 384.19922 C 264.10039 383.69922 265.89961 384.00039 267.59961 383.40039 C 268.79961 382.30039 269.59961 380.89922 270.59961 379.69922 C 271.09961 378.79922 272.09961 378.1 272.09961 377 L 272.09961 372.59961 C 272.09961 371.89961 271.70039 371.40078 271.40039 370.80078 C 272.70039 370.70078 274.00078 370.59961 275.30078 370.59961 C 276.10078 370.59961 276.99961 370.6 277.59961 370 C 279.09961 368.7 280.50039 367.4 281.90039 366 C 282.20039 365.7 282.30039 365.30039 282.40039 364.90039 C 281.80039 364.70039 281.1 364.49922 280.5 364.19922 C 283.5 360.99922 286.69922 358.00078 289.69922 354.80078 C 290.49922 352.90078 290.59922 350.80078 291.19922 348.80078 L 293.90039 336.80078 C 294.20039 335.50078 293.79922 334.10078 293.69922 332.80078 C 293.09922 329.70078 292.69961 326.6 292.09961 323.5 C 291.99961 322.9 291.49961 322.59922 291.09961 322.19922 C 288.19961 319.79922 285.4 317.40039 282.5 314.90039 C 281.8 314.40039 281.20039 313.69961 280.40039 313.59961 C 278.00039 313.09961 275.70039 312.70078 273.40039 312.30078 C 272.50039 312.10078 271.59922 311.90039 270.69922 311.90039 L 257.5 311.90039 C 256.8 311.80039 256.39922 312.5 256.19922 313 C 254.99922 315.9 253.9 318.79922 252.5 321.69922 C 249.4 320.09922 246.40039 318.39961 243.40039 316.59961 C 245.00039 314.49961 246.89922 312.5 248.69922 310.5 C 249.39922 309.6 250.4 308.69922 251 307.69922 C 251.2 306.49922 251.20039 305.20039 251.40039 303.90039 C 251.40039 302.80039 251.80078 301.59961 251.30078 300.59961 C 249.70078 296.99961 248.00039 293.40078 246.40039 289.80078 C 246.10039 289.10078 245.89922 288.19922 245.19922 287.69922 C 242.69922 285.79922 239.59961 284.69922 237.59961 282.19922 C 239.99961 282.39922 242.40039 283.00039 244.90039 282.90039 C 244.90039 282.40039 245.10078 281.99961 244.80078 281.59961 C 241.30078 274.99961 237.70078 268.50078 234.30078 261.80078 C 235.50078 260.80078 236.89922 260.09961 238.19922 259.09961 L 238.19922 258.40039 C 236.69922 257.50039 235.09961 256.80039 233.59961 255.90039 C 233.09961 255.40039 232.80039 254.69961 232.40039 254.09961 C 229.80039 250.09961 227.19922 246 224.69922 242 C 224.39922 241.4 223.90078 241.10078 223.30078 240.80078 C 218.80078 238.60078 214.40039 236.29961 209.90039 234.09961 C 208.10039 233.39961 206.99961 231.7 205.59961 230.5 C 204.69961 229.4 203.20078 228.5 202.80078 227 C 201.80078 224 200.80078 221.09961 199.80078 218.09961 C 199.10078 216.19961 198.30039 214.30078 197.90039 212.30078 C 196.80039 204.80078 195.6 197.4 194.5 190 C 194.4 189.3 193.90039 188.59961 193.40039 188.09961 C 189.80039 184.49961 186.19922 181.00039 182.69922 177.40039 C 182.29922 176.90039 181.49961 177.1 181.09961 177.5 C 180.39068 178.12386 179.68158 178.73813 178.97266 179.35742 L 179.375 178.89648 L 181.70117 176.82031 L 179.79883 173.29102 L 177.26172 170.5918 L 171.76758 169.96875 L 169.23242 167.26953 L 165.63867 166.02539 L 164.16016 163.11914 L 159.50977 163.74219 L 156.97461 167.68555 L 154.01562 168.93164 L 150.42188 169.13867 L 147.25195 167.68555 L 143.23633 167.68555 L 135.62891 166.43945 L 128.44336 162.49609 L 129.92383 161.25 L 135.83984 163.74219 L 143.23633 164.98633 L 148.09766 162.49609 L 149.36523 159.58984 L 155.49414 155.4375 L 158.87695 157.30664 L 165.63867 152.53125 L 156.97461 148.17188 L 158.66406 146.71875 L 159.08789 144.22656 L 156.33984 143.60352 L 148.30859 146.92578 L 151.05664 143.39648 L 159.50977 141.5293 L 161.41211 142.35938 L 166.48438 137.16797 L 169.01953 133.84766 L 170.92188 127.82617 L 175.57227 122.84375 L 178.31836 115.57812 L 180.2207 109.97266 L 180.85547 104.7832 L 181.91211 101.87695 L 185.50391 95.857422 L 189.73242 91.498047 L 189.09766 88.798828 L 187.83008 82.986328 L 184.87109 79.25 L 178.53125 79.664062 L 170.92188 80.287109 L 165.84961 79.25 L 159.29883 78.003906 L 156.12891 79.25 L 152.74805 79.041016 L 147.67578 76.964844 L 143.44922 77.173828 L 141.12305 78.210938 L 138.16602 79.664062 L 133.51562 80.287109 L 130.98047 82.570312 L 128.23242 83.816406 L 126.11914 82.570312 L 124.00586 85.476562 L 121.04688 88.382812 L 119.56836 88.175781 L 122.73828 83.609375 L 125.69531 78.210938 L 132.88086 69.076172 L 129.71094 69.492188 L 124.63867 70.945312 L 122.10352 71.152344 L 126.75195 66.792969 L 126.96484 63.263672 L 130.98047 61.603516 L 131.61328 58.904297 L 137.74219 54.337891 L 141.33594 51.845703 L 143.44922 48.939453 L 145.77344 46.863281 L 150.42188 44.373047 L 153.38086 41.673828 L 154.4375 37.9375 L 151.47852 36.900391 L 155.07227 28.388672 L 144.29297 27.142578 z M 170.20703 200.34766 C 169.72879 200.79419 169.25788 201.24212 168.80078 201.69922 C 167.17144 203.23271 165.62591 204.94177 163.82812 206.31445 L 167.96289 200.48633 L 170.20703 200.34766 z M 154.18945 215.69922 C 153.54352 216.24027 152.8394 216.70803 152 217 L 150.75586 217.62109 L 151.05664 216.67773 L 154.18945 215.69922 z M 158.47656 313.38867 C 158.48501 313.3918 158.49135 313.39751 158.5 313.40039 C 159.4 313.80039 160.29922 313.89961 161.19922 314.09961 C 161.29922 314.89961 161.60078 315.79961 161.30078 316.59961 C 160.80078 316.89961 160.40039 316.99922 159.90039 317.19922 C 159.55275 316.643 159.24868 315.9921 158.86328 315.37695 L 158.47656 313.38867 z "
     id="Wales" /><path
     id="London"
     class="st0"
     d="m 238.1,376.3 c 1.2,-0.7 2.6,-0.4 3.9,-0.4 0.2,0.6 0.1,1.3 0.6,1.8 0.7,0.6 1.5,1.3 2.3,1.9 0.4,0.3 0.9,0.1 1.3,0 1.5,-0.4 2.9,-0.9 4.4,-1 0.4,1 0.8,2.1 1.2,3.1 -0.7,1 -1.6,1.8 -2.2,2.8 -0.7,2.2 -1.6,4.4 -2.4,6.6 -0.3,1.1 -1.2,1.9 -2.2,2.3 -1,-0.2 -1.8,-0.9 -2.8,-1.2 -0.8,0.6 -1.4,1.3 -2.2,2 -0.5,-0.6 -0.9,-1.2 -1.3,-1.9 -0.6,-0.1 -1.2,-0.1 -1.8,-0.2 -0.2,-0.7 -0.4,-1.3 -0.8,-2 -0.9,-0.1 -1.3,1 -1.9,1.5 0,-0.7 0.3,-1.6 -0.4,-2 -1.7,-1.2 -3.6,-2.3 -5.3,-3.5 -0.1,-1.2 0.8,-2.3 0.9,-3.4 -0.2,-0.9 -0.6,-1.7 -0.9,-2.6 1.4,-0.3 2.8,-0.2 4.2,-0.6 1.9,-0.9 3.6,-2.1 5.4,-3.2 z"
     inkscape:connector-curvature="0"
     style="fill:#ffffff;stroke:#231f20;stroke-miterlimit:10" /><path
     id="NorthIreland"
     sodipodi:nodetypes="ccccccccccccccccccccccccccccccccccccccccccccccccccccccccccccccccccccccccccccccccccccccccccccccccccccccccccccccccccccccccccccccccc"
     class="st0"
     d="m 8.9190877,249.47467 3.8210483,0.87687 1.643939,2.39146 4.798527,0.11951 0.488738,0.99644 3.110156,1.83343 -3.90991,1.11602 -0.222154,0.91672 -0.844185,0.11953 -1.288493,2.51102 h 1.64394 l 1.643938,1.59428 1.777232,-1.79358 3.154587,1.67401 4.176495,0.0797 -1.021908,0.83702 v 1.67401 l 1.821663,0.87687 1.244062,2.31172 -0.399877,1.31531 0.133292,1.83344 1.332924,1.47472 0.222154,1.79358 2.976863,2.67046 h 4.176495 l 3.465602,-1.23557 3.33231,7.5729 2.22154,-1.23556 4.087633,-0.23916 1.999386,1.79359 3.243448,0.23915 2.532555,1.79358 h 3.154587 l 4.220925,-2.19216 2.843571,1.23558 2.75471,-2.67044 -0.133293,-5.30105 1.021909,0.71744 1.64394,-1.11602 0.133291,-1.95301 -0.666461,-0.11953 0.311016,-0.7573 0.933046,-0.0797 3.776617,-5.58005 0.622032,-2.232 1.11077,-0.0399 -0.977479,1.99286 h 1.155206 l 2.177105,-2.67044 0.08886,-2.15231 -1.110771,-0.87686 -3.732188,-1.5943 -2.17711,-3.42774 0.08886,-1.0363 1.332924,0.91672 2.710279,2.19216 6.353598,0.0399 1.42178,-3.42774 1.15522,-0.67751 0.0889,-2.75016 1.42178,-1.23558 -1.06633,-7.09463 -0.7109,0.19929 -2.35483,2.15231 0.1333,1.27543 0.79975,0.51814 -0.22215,2.39146 -0.7109,1.87329 -0.5776,0.0798 -0.26658,0.95656 -1.332927,0.63774 -1.421788,0.43844 -0.266582,-1.75374 0.844181,-1.0363 1.066343,-1.51459 0.266582,-1.23558 -0.222154,-2.47116 -2.088243,-1.87329 0.31101,-0.55802 1.643942,0.91673 1.466216,0.71743 2.48812,-2.59074 -4.265354,-5.0619 -1.466215,1.3153 -3.776617,-0.11951 -1.510647,-1.67403 0.622032,-1.43487 -0.710893,-3.7466 -5.642711,-3.42773 -1.332924,0.51814 0.311015,0.558 h -1.510647 l -1.777232,2.23203 -3.776617,-0.19929 -0.399878,-1.3153 -3.510032,-0.19929 -4.398649,-1.43487 -2.088248,1.91316 0.622032,0.99645 -0.488739,0.91672 1.332924,1.79358 -2.310401,2.31174 -1.155201,-1.43487 -2.888002,4.26474 -1.421785,0.71744 0.666461,0.59786 -0.222154,2.47117 -2.488124,1.43486 -2.710279,1.3153 -2.043817,-2.67045 -1.288493,-0.51815 -1.466216,-1.51458 1.777232,-2.11245 v -1.83344 l -3.021294,-0.83701 0.04443,-2.31173 -2.532555,-2.43131 -0.933047,0.19928 -2.532555,2.11245 -1.11077,-1.03629 -3.021294,0.0399 -3.865479,3.62704 -3.510034,-0.19928 -1.732801,0.87687 -0.266584,3.38786 -2.310402,0.39858 -1.288493,3.02917 -1.377354,-0.558 z"
     inkscape:connector-curvature="0"
     style="fill:#ffffff;stroke:#231f20;stroke-width:1;stroke-miterlimit:10" /><path
     style="fill:#e6d3d2;stroke-width:0.3408297"
     d="m 386.19817,130.58934 c -0.30827,0.0166 -0.59598,0.083 -0.80141,0.12112 -0.27392,0.0508 -0.73019,0.23751 -1.07731,0.37298 -0.347,0.13534 -0.93159,0.57512 -1.2239,0.87989 -0.2922,0.30478 -0.73087,1.11765 -0.91344,1.43936 -0.1827,0.3216 -0.41997,1.1344 -0.62093,1.65918 -0.20098,0.52479 -0.40201,1.4897 -0.60296,1.99755 -0.20098,0.50786 -0.42027,1.20246 -0.60298,1.55793 0,0 -0.54821,0.66018 -0.8588,1.01576 -0.31071,0.35545 -1.04163,1.52373 -1.20592,1.8117 -0.16443,0.28773 -0.82151,1.52375 -0.94939,1.77774 -0.12802,0.25398 -0.45702,1.06664 -0.5117,1.37143 -0.0548,0.30478 -0.18266,0.96484 -0.21919,1.15098 -0.0366,0.18625 -0.20094,1.33766 -0.2192,1.7271 -0.0181,0.38933 0.0185,1.16788 0.0366,1.67584 0.0181,0.50786 0.20045,1.32112 0.29179,1.71045 0.0912,0.38944 0.34709,1.06641 0.52967,1.50665 0.18282,0.44014 0.60321,1.15146 0.80418,1.49 0.20097,0.33864 0.69409,0.84626 0.87678,1.06638 0.18258,0.22012 0.71266,0.59283 0.85881,0.71135 0.14617,0.11853 0.62094,0.27108 0.62094,0.27108 0,0 0.256,0.47358 0.38377,0.64278 0.12789,0.16934 0.60252,0.6607 0.80349,0.82992 0.20084,0.16933 0.52991,0.27111 0.73088,0.38965 0.20085,0.1184 0.52965,0.38896 0.71222,0.59214 0.18257,0.20318 0.60328,0.69466 0.7129,0.86388 0.10962,0.16932 0.62063,0.50785 0.82147,0.60945 0.20098,0.1017 0.42041,0.10126 0.42041,0.10126 0,0 0.0732,0.16959 0.0366,0.30504 -0.0367,0.13535 -0.0917,0.50735 -0.14659,0.76133 -0.0547,0.2541 0.0553,0.64376 0.10994,0.86388 0.0548,0.22012 0.25595,0.96488 0.2925,1.13431 0.0366,0.16946 0.16387,0.2538 0.16387,0.2538 0,0 3.6e-4,0.42346 0.0187,0.59278 0.0182,0.16943 -0.0735,0.77912 -0.1466,1.11765 -0.0731,0.33865 -0.31061,0.72783 -0.47504,0.94782 -0.16443,0.22014 -0.36505,0.45735 -0.58429,0.59281 -0.21911,0.13546 -0.78514,0.49141 -0.89476,0.62676 -0.10962,0.13534 -0.25595,0.50727 -0.29249,0.87989 -0.0366,0.37228 0.0909,0.86398 0.20053,1.18558 0.10961,0.3216 0.43865,0.84626 0.60296,1.06639 0.16454,0.22011 0.7672,0.81257 1.00471,1.01576 0.2375,0.20308 0.85905,0.77882 1.06002,1.01575 0.20084,0.23717 0.73053,0.55904 0.84014,0.62676 0.10961,0.0678 0.49302,0.10126 0.49302,0.10126 -10e-6,0 0.14675,0.11886 0.27451,0.22045 0.12788,0.10159 0.47471,0.30445 0.71221,0.42296 0.2375,0.11854 0.749,0.22041 0.95009,0.27109 0.20096,0.0509 0.54789,0.0509 0.74886,0.11856 0.20096,0.0678 0.62119,0.27075 0.82216,0.37234 0.20097,0.10159 0.475,0.30507 0.65759,0.4236 0.18268,0.11842 0.6576,0.2873 0.82216,0.35503 0.16429,0.0677 0.4198,0.25409 0.63892,0.35568 0.21923,0.10148 0.58475,0.30499 0.8588,0.38965 0.27392,0.0847 0.74859,0.2031 1.07731,0.25377 0.32885,0.0509 0.93187,0.38923 1.24257,0.5755 0.31058,0.18625 0.7123,0.38924 0.93142,0.54151 0.21923,0.1524 0.63946,0.45734 0.82215,0.5928 0.1827,0.13546 0.49356,0.3894 0.67626,0.52486 0.18258,0.13535 0.32826,0.16951 0.41972,0.23712 0.0915,0.0676 0.31061,0.38914 0.47505,0.50756 0.16454,0.11863 0.45725,0.2033 0.71291,0.32171 0.25588,0.11852 0.65772,0.44076 0.82215,0.61009 0.16442,0.16933 0.62072,0.55854 0.89477,0.74468 0.27403,0.18625 0.58494,0.32176 0.80417,0.4063 0.21924,0.0847 0.63918,-0.0165 0.8035,-0.0673 0.16455,-0.0509 0.45662,-0.25459 0.65759,-0.49153 0.20096,-0.23694 0.36542,-0.57518 0.47504,-0.79531 0.10961,-0.22012 0.38386,-0.7624 0.45705,-1.01639 0.0729,-0.25399 0.20048,-0.91397 0.25516,-1.26954 0.0547,-0.35558 0.14641,-0.94782 0.20121,-1.26953 0.0547,-0.32183 0.10966,-1.52413 0.12793,-1.79505 0.0183,-0.2708 0.16468,-0.99904 0.20122,-1.37143 0.0366,-0.37241 0.036,-0.8971 0.036,-1.18494 0,-0.28785 0.0369,-0.82954 0.0187,-1.13431 -0.0182,-0.30479 0.0546,-1.60833 0.0546,-2.03153 0,-0.42331 0.0366,-1.47329 0.0366,-1.67648 0,-0.2032 0.018,-0.45736 -0.0366,-0.71135 -0.0548,-0.25387 -0.18278,-0.86323 -0.2192,-1.18495 -0.0366,-0.3217 -0.0734,-0.69401 -0.0734,-0.86323 0,-0.16932 0.0914,-0.59245 0.12791,-0.69404 0.0366,-0.1016 0.0545,-0.37237 0.0179,-0.4909 -0.0366,-0.11853 -0.12762,-0.40674 -0.18255,-0.66072 -0.0549,-0.25399 -0.0908,-0.72801 -0.0725,-1.04973 0.0181,-0.32159 -0.11004,-1.25259 -0.14659,-1.59124 -0.0366,-0.33855 -0.12815,-0.45702 -0.16457,-0.66009 -0.0365,-0.20306 -0.18255,-0.54216 -0.18255,-0.54216 l -0.16457,-0.0846 c 0,1e-5 -0.0542,-0.81253 -0.036,-1.2189 0.0182,-0.40638 -0.0548,-0.69397 -0.12793,-1.10036 -0.0731,-0.40637 -0.1649,-0.79573 -0.23785,-1.04972 -0.073,-0.25398 -0.18267,-0.79574 -0.2192,-1.04972 -0.0367,-0.25387 -0.10925,-0.62658 -0.14591,-0.84657 -0.0366,-0.22013 -0.18286,-0.64316 -0.32913,-0.94783 -0.14603,-0.30478 -0.56624,-1.82894 -0.65759,-2.23531 -0.0912,-0.40626 -0.3285,-1.21855 -0.41973,-1.48935 -0.0913,-0.27092 -0.40188,-1.16886 -0.56631,-1.54126 -0.16442,-0.37252 -0.74917,-1.77755 -0.89546,-1.99755 -0.14603,-0.22012 -0.45674,-0.86361 -0.65759,-1.16829 -0.20095,-0.3049 -0.93174,-1.77759 -1.04135,-1.94692 -0.10974,-0.16932 -0.23721,-0.37237 -0.3651,-0.49089 -0.12788,-0.11853 -0.36583,-0.37274 -0.45706,-0.5082 -0.0913,-0.13546 -0.21871,-0.43998 -0.2918,-0.62612 -0.0731,-0.18625 -0.25606,-0.50822 -0.32915,-0.66072 -0.0729,-0.15239 -0.27414,-0.32169 -0.38376,-0.4909 -0.10961,-0.16932 -0.23742,-0.33863 -0.43839,-0.64341 -0.20097,-0.30467 -0.3835,-0.69413 -0.52967,-0.89721 -0.14603,-0.20319 -0.41986,-0.54214 -0.58429,-0.71134 -0.16442,-0.16933 -0.7675,-0.84638 -0.98673,-1.0664 -0.21911,-0.22011 -1.07757,-1.03265 -1.24189,-1.2189 -0.16442,-0.18626 -0.74898,-0.67736 -0.95007,-0.84658 -0.20097,-0.16943 -0.51137,-0.5417 -0.74887,-0.77864 -0.2375,-0.23694 -0.96842,-0.7283 -1.20592,-0.86387 -0.23751,-0.13557 -0.52926,-0.32185 -0.85812,-0.47424 -0.32885,-0.15239 -0.96863,-0.47399 -1.27922,-0.60945 -0.31046,-0.13547 -1.0046,-0.37229 -1.27853,-0.42296 -0.27416,-0.0508 -0.67578,-0.10136 -1.09598,-0.13523 -0.10502,-0.008 -0.21047,-0.008 -0.31323,-0.004 z m -24.05764,3.11392 c -0.51144,-0.0106 -1.005,0.0335 -1.33385,0.10126 -0.32886,0.0677 -0.89492,0.18669 -1.05934,0.25441 -0.16444,0.0678 -0.96794,0.40617 -1.27853,0.57549 -0.31059,0.16933 -0.95952,0.53368 -1.24257,0.71136 -0.28319,0.17778 -0.46562,0.36403 -0.66659,0.48256 -0.20096,0.11853 -0.42039,0.32135 -0.60296,0.43129 -0.18269,0.11007 -0.50241,0.35581 -0.69423,0.5082 -0.19183,0.15239 -0.49335,0.37204 -0.60296,0.43129 -0.10963,0.0593 -0.33814,0.27994 -0.47505,0.44925 -0.13702,0.16922 -0.29227,0.22 -0.39274,0.32171 -0.10054,0.10159 -0.48396,0.55822 -0.61197,0.67675 -0.12801,0.11852 -0.45626,0.46563 -0.59327,0.64342 -0.13703,0.17778 -0.74911,0.796 -0.95009,1.03306 -0.20096,0.23705 -0.53004,0.60055 -0.73088,0.8376 -0.20085,0.23705 -0.58417,0.6941 -0.75786,0.93116 -0.17355,0.23706 -0.72163,1.03303 -0.86779,1.23622 -0.14616,0.20306 -0.29214,0.38917 -0.3651,0.49923 -0.073,0.11005 -0.12792,0.34734 -0.12792,0.34734 l -0.29249,0.27108 c 0,0 -0.35629,0.48239 -0.47505,0.69405 -0.11874,0.21166 -0.27409,0.56717 -0.4294,0.8549 -0.1553,0.28774 -0.39308,0.73642 -0.50269,0.93949 -0.10962,0.20319 -0.73958,1.33786 -0.93142,1.80338 -0.19183,0.46564 -0.55715,1.56577 -0.5753,1.99755 -0.0182,0.43166 -0.31047,0.56716 -0.31048,0.56716 0,0 -0.21905,0.60139 -0.36508,1.03305 -0.14617,0.43167 -0.44756,1.51509 -0.56632,1.87067 -0.11875,0.35559 -0.30197,0.78714 -0.39345,1.05805 -0.0913,0.27081 -0.42875,1.23592 -0.55663,1.58292 -0.12789,0.34711 -0.42975,2.06566 -0.5027,2.46345 -0.073,0.3978 -0.25573,1.42274 -0.39276,1.829 -0.13702,0.40627 -0.22811,0.49096 -0.31946,0.88888 -0.0912,0.39791 -0.2558,1.29472 -0.30148,1.68416 -0.0457,0.38945 -0.2652,2.00669 -0.32913,2.59932 -0.0639,0.59263 -0.18255,2.2771 -0.18255,2.42949 0,0.15227 -0.13692,0.27941 -0.13692,0.27941 0,0 -0.0819,0.49065 -0.0636,0.78697 0.0183,0.29632 0.0361,0.33871 -0.009,0.55883 -0.0457,0.22023 -0.13662,0.37274 -0.15488,0.66906 -0.0181,0.29631 0.0362,0.53324 0.018,0.96512 -0.0183,0.43167 -0.0454,0.76154 -0.018,1.15099 0.0274,0.38932 0.14586,1.05833 0.19153,1.48998 0.0457,0.43167 0.0369,0.77903 0.0644,1.0837 0.0274,0.30477 0.14586,0.44819 0.19153,0.76133 0.0457,0.31325 0.1272,1.32391 0.29248,1.8963 0,0 0.36539,1.40559 0.55734,1.95589 0.19183,0.55042 0.52964,1.46424 0.88577,2.04818 0,0 0.32899,0.64393 0.68525,0.9741 0.35613,0.33019 0.69408,0.66875 1.05034,0.72802 0.35626,0.0592 1.01392,-0.0426 1.26055,-0.22879 0.24664,-0.18626 0.73032,-0.62676 1.07732,-0.9145 0.347,-0.28773 1.14198,-0.63438 1.37948,-0.8799 0.23751,-0.24551 0.46563,-0.4995 0.80349,-0.77031 0.33799,-0.27092 1.19671,-0.82956 1.64432,-1.09202 0.44748,-0.26244 1.1783,-0.62689 1.65331,-0.77928 0.475,-0.15239 1.22382,-0.4651 1.66229,-0.80363 0.43835,-0.33877 1.04132,-0.48277 1.43411,-0.55051 0.3928,-0.0678 0.52064,-0.22056 0.73988,-0.3813 0.21923,-0.16085 0.37478,-0.3891 0.68524,-0.42297 0.31058,-0.0338 1.27878,-0.0762 1.82687,-0.23711 0.54796,-0.16074 1.90849,-0.6858 2.3835,-0.9145 0.47501,-0.22848 1.45248,-0.82054 1.99144,-1.16765 0.53883,-0.347 1.66257,-0.72008 2.33856,-1.01639 0.67598,-0.29632 2.05515,-0.85501 2.57573,-1.17662 0.52067,-0.32171 1.43392,-0.948 1.83584,-1.6675 0.40194,-0.71964 0.58457,-1.34626 0.74887,-2.01486 0.16443,-0.66883 0.41098,-1.99789 0.43839,-2.50575 0.0274,-0.50785 -0.10033,-1.27799 -0.009,-1.59957 0.0913,-0.32172 0.28358,-0.71987 0.3658,-0.9568 0.0822,-0.23706 0.10899,-1.19363 0.0816,-1.70148 -0.0274,-0.50786 -0.19122,-1.56575 -0.25516,-2.03985 -0.0639,-0.47411 -0.11926,-0.68588 -0.22888,-0.9568 -0.10975,-0.27092 -0.2649,-0.66903 -0.34712,-1.15995 -0.0822,-0.49104 -0.19156,-0.80384 -0.31945,-1.03242 -0.12776,-0.22858 -0.22835,-1.04127 -0.18255,-1.65917 0.0457,-0.61804 0.14611,-1.88797 0.2192,-2.37054 0.0731,-0.48257 0.19164,-1.05811 0.22817,-1.61688 0.0366,-0.55877 0.0277,-1.54092 -0.018,-2.09111 -0.0457,-0.55031 -0.15574,-1.47276 -0.2835,-1.87067 -0.1279,-0.39791 -0.55674,-1.2108 -0.76685,-1.55791 -0.2101,-0.34712 -0.5755,-0.82098 -0.82216,-1.10035 -0.24664,-0.27928 -0.86808,-1.20179 -1.19693,-1.62522 -0.32873,-0.42331 -0.6479,-0.82158 -0.6479,-0.82158 l -0.4384,-1.33747 c 0,0 -0.37456,-1.50643 -0.47504,-2.09047 -0.10053,-0.58405 -0.29235,-1.62556 -0.47504,-2.13342 -0.18271,-0.50784 -0.64882,-1.51519 -0.89546,-1.87065 -0.24664,-0.35558 -0.84013,-0.88054 -0.84013,-0.88054 -0.26492,-0.11852 -0.4387,-0.18605 -0.73089,-0.25378 -0.29256,-0.068 -0.80397,-0.12739 -1.21492,-0.13586 z"
     id="lungs"
     inkscape:connector-curvature="0" /><path
     style="fill:#e6d3d2;stroke-width:0.3408297"
     d="m 499.5124,132.5582 c 0.30827,0.0166 0.59598,0.083 0.80141,0.12112 0.27392,0.0508 0.73019,0.23751 1.07731,0.37298 0.347,0.13534 0.93159,0.57512 1.2239,0.87989 0.2922,0.30478 0.73087,1.11765 0.91344,1.43936 0.1827,0.3216 0.41997,1.1344 0.62093,1.65918 0.20098,0.52479 0.40201,1.4897 0.60296,1.99755 0.20098,0.50786 0.42027,1.20246 0.60298,1.55793 0,0 0.54821,0.66018 0.8588,1.01576 0.31071,0.35545 1.04163,1.52373 1.20592,1.8117 0.16443,0.28773 0.82151,1.52375 0.94939,1.77774 0.12802,0.25398 0.45702,1.06664 0.5117,1.37143 0.0548,0.30478 0.18266,0.96484 0.21919,1.15098 0.0366,0.18625 0.20094,1.33766 0.2192,1.7271 0.0181,0.38933 -0.0185,1.16788 -0.0366,1.67584 -0.0181,0.50786 -0.20045,1.32112 -0.29179,1.71045 -0.0912,0.38944 -0.34709,1.06641 -0.52967,1.50665 -0.18282,0.44014 -0.60321,1.15146 -0.80418,1.49 -0.20097,0.33864 -0.69409,0.84626 -0.87678,1.06638 -0.18258,0.22012 -0.71266,0.59283 -0.85881,0.71135 -0.14617,0.11853 -0.62094,0.27108 -0.62094,0.27108 0,0 -0.256,0.47358 -0.38377,0.64278 -0.12789,0.16934 -0.60252,0.6607 -0.80349,0.82992 -0.20084,0.16933 -0.52991,0.27111 -0.73088,0.38965 -0.20085,0.1184 -0.52965,0.38896 -0.71222,0.59214 -0.18257,0.20318 -0.60328,0.69466 -0.7129,0.86388 -0.10962,0.16932 -0.62063,0.50785 -0.82147,0.60945 -0.20098,0.1017 -0.42041,0.10126 -0.42041,0.10126 0,0 -0.0732,0.16959 -0.0366,0.30504 0.0367,0.13535 0.0917,0.50735 0.14659,0.76133 0.0547,0.2541 -0.0553,0.64376 -0.10994,0.86388 -0.0548,0.22012 -0.25595,0.96488 -0.2925,1.13431 -0.0366,0.16946 -0.16387,0.2538 -0.16387,0.2538 0,0 -3.6e-4,0.42346 -0.0187,0.59278 -0.0182,0.16943 0.0735,0.77912 0.1466,1.11765 0.0731,0.33865 0.31061,0.72783 0.47504,0.94782 0.16443,0.22014 0.36505,0.45735 0.58429,0.59281 0.21911,0.13546 0.78514,0.49141 0.89476,0.62676 0.10962,0.13534 0.25595,0.50727 0.29249,0.87989 0.0366,0.37228 -0.0909,0.86398 -0.20053,1.18558 -0.10961,0.3216 -0.43865,0.84626 -0.60296,1.06639 -0.16454,0.22011 -0.7672,0.81257 -1.00471,1.01576 -0.2375,0.20308 -0.85905,0.77882 -1.06002,1.01575 -0.20084,0.23717 -0.73053,0.55904 -0.84014,0.62676 -0.10961,0.0678 -0.49302,0.10126 -0.49302,0.10126 1e-5,0 -0.14675,0.11886 -0.27451,0.22045 -0.12788,0.10159 -0.47471,0.30445 -0.71221,0.42296 -0.2375,0.11854 -0.749,0.22041 -0.95009,0.27109 -0.20096,0.0509 -0.54789,0.0509 -0.74886,0.11856 -0.20096,0.0678 -0.62119,0.27075 -0.82216,0.37234 -0.20097,0.10159 -0.475,0.30507 -0.65759,0.4236 -0.18268,0.11842 -0.6576,0.2873 -0.82216,0.35503 -0.16429,0.0677 -0.4198,0.25409 -0.63892,0.35568 -0.21923,0.10148 -0.58475,0.30499 -0.8588,0.38965 -0.27392,0.0847 -0.74859,0.2031 -1.07731,0.25377 -0.32885,0.0509 -0.93187,0.38923 -1.24257,0.5755 -0.31058,0.18625 -0.7123,0.38924 -0.93142,0.54151 -0.21923,0.1524 -0.63946,0.45734 -0.82215,0.5928 -0.1827,0.13546 -0.49356,0.3894 -0.67626,0.52486 -0.18258,0.13535 -0.32826,0.16951 -0.41972,0.23712 -0.0915,0.0676 -0.31061,0.38914 -0.47505,0.50756 -0.16454,0.11863 -0.45725,0.2033 -0.71291,0.32171 -0.25588,0.11852 -0.65772,0.44076 -0.82215,0.61009 -0.16442,0.16933 -0.62072,0.55854 -0.89477,0.74468 -0.27403,0.18625 -0.58494,0.32176 -0.80417,0.4063 -0.21924,0.0847 -0.63918,-0.0165 -0.8035,-0.0673 -0.16455,-0.0509 -0.45662,-0.25459 -0.65759,-0.49153 -0.20096,-0.23694 -0.36542,-0.57518 -0.47504,-0.79531 -0.10961,-0.22012 -0.38386,-0.7624 -0.45705,-1.01639 -0.0729,-0.25399 -0.20048,-0.91397 -0.25516,-1.26954 -0.0547,-0.35558 -0.14641,-0.94782 -0.20121,-1.26953 -0.0547,-0.32183 -0.10966,-1.52413 -0.12793,-1.79505 -0.0183,-0.2708 -0.16468,-0.99904 -0.20122,-1.37143 -0.0366,-0.37241 -0.036,-0.8971 -0.036,-1.18494 0,-0.28785 -0.0369,-0.82954 -0.0187,-1.13431 0.0182,-0.30479 -0.0546,-1.60833 -0.0546,-2.03153 0,-0.42331 -0.0366,-1.47329 -0.0366,-1.67648 0,-0.2032 -0.018,-0.45736 0.0366,-0.71135 0.0548,-0.25387 0.18278,-0.86323 0.2192,-1.18495 0.0366,-0.3217 0.0734,-0.69401 0.0734,-0.86323 0,-0.16932 -0.0914,-0.59245 -0.12791,-0.69404 -0.0366,-0.1016 -0.0545,-0.37237 -0.0179,-0.4909 0.0366,-0.11853 0.12762,-0.40674 0.18255,-0.66072 0.0549,-0.25399 0.0908,-0.72801 0.0725,-1.04973 -0.0181,-0.32159 0.11004,-1.25259 0.14659,-1.59124 0.0366,-0.33855 0.12815,-0.45702 0.16457,-0.66009 0.0365,-0.20306 0.18255,-0.54216 0.18255,-0.54216 l 0.16457,-0.0846 c 0,1e-5 0.0542,-0.81253 0.036,-1.2189 -0.0182,-0.40638 0.0548,-0.69397 0.12793,-1.10036 0.0731,-0.40637 0.1649,-0.79573 0.23785,-1.04972 0.073,-0.25398 0.18267,-0.79574 0.2192,-1.04972 0.0367,-0.25387 0.10925,-0.62658 0.14591,-0.84657 0.0366,-0.22013 0.18286,-0.64316 0.32913,-0.94783 0.14603,-0.30478 0.56624,-1.82894 0.65759,-2.23531 0.0912,-0.40626 0.3285,-1.21855 0.41973,-1.48935 0.0913,-0.27092 0.40188,-1.16886 0.56631,-1.54126 0.16442,-0.37252 0.74917,-1.77755 0.89546,-1.99755 0.14603,-0.22012 0.45674,-0.86361 0.65759,-1.16829 0.20095,-0.3049 0.93174,-1.77759 1.04135,-1.94692 0.10974,-0.16932 0.23721,-0.37237 0.3651,-0.49089 0.12788,-0.11853 0.36583,-0.37274 0.45706,-0.5082 0.0913,-0.13546 0.21871,-0.43998 0.2918,-0.62612 0.0731,-0.18625 0.25606,-0.50822 0.32915,-0.66072 0.0729,-0.15239 0.27414,-0.32169 0.38376,-0.4909 0.10961,-0.16932 0.23742,-0.33863 0.43839,-0.64341 0.20097,-0.30467 0.3835,-0.69413 0.52967,-0.89721 0.14603,-0.20319 0.41986,-0.54214 0.58429,-0.71134 0.16442,-0.16933 0.7675,-0.84638 0.98673,-1.0664 0.21911,-0.22011 1.07757,-1.03265 1.24189,-1.2189 0.16442,-0.18626 0.74898,-0.67736 0.95007,-0.84658 0.20097,-0.16943 0.51137,-0.5417 0.74887,-0.77864 0.2375,-0.23694 0.96842,-0.7283 1.20592,-0.86387 0.23751,-0.13557 0.52926,-0.32185 0.85812,-0.47424 0.32885,-0.15239 0.96863,-0.47399 1.27922,-0.60945 0.31046,-0.13547 1.0046,-0.37229 1.27853,-0.42296 0.27416,-0.0508 0.67578,-0.10136 1.09598,-0.13523 0.10502,-0.008 0.21047,-0.008 0.31323,-0.004 z m 24.05764,3.11392 c 0.51144,-0.0106 1.005,0.0335 1.33385,0.10126 0.32886,0.0677 0.89492,0.18669 1.05934,0.25441 0.16444,0.0678 0.96794,0.40617 1.27853,0.57549 0.31059,0.16933 0.95952,0.53368 1.24257,0.71136 0.28319,0.17778 0.46562,0.36403 0.66659,0.48256 0.20096,0.11853 0.42039,0.32135 0.60296,0.43129 0.18269,0.11007 0.50241,0.35581 0.69423,0.5082 0.19183,0.15239 0.49335,0.37204 0.60296,0.43129 0.10963,0.0593 0.33814,0.27994 0.47505,0.44925 0.13702,0.16922 0.29227,0.22 0.39274,0.32171 0.10054,0.10159 0.48396,0.55822 0.61197,0.67675 0.12801,0.11852 0.45626,0.46563 0.59327,0.64342 0.13703,0.17778 0.74911,0.796 0.95009,1.03306 0.20096,0.23705 0.53004,0.60055 0.73088,0.8376 0.20085,0.23705 0.58417,0.6941 0.75786,0.93116 0.17355,0.23706 0.72163,1.03303 0.86779,1.23622 0.14616,0.20306 0.29214,0.38917 0.3651,0.49923 0.073,0.11005 0.12792,0.34734 0.12792,0.34734 l 0.29249,0.27108 c 0,0 0.35629,0.48239 0.47505,0.69405 0.11874,0.21166 0.27409,0.56717 0.4294,0.8549 0.1553,0.28774 0.39308,0.73642 0.50269,0.93949 0.10962,0.20319 0.73958,1.33786 0.93142,1.80338 0.19183,0.46564 0.55715,1.56577 0.5753,1.99755 0.0182,0.43166 0.31047,0.56716 0.31048,0.56716 0,0 0.21905,0.60139 0.36508,1.03305 0.14617,0.43167 0.44756,1.51509 0.56632,1.87067 0.11875,0.35559 0.30197,0.78714 0.39345,1.05805 0.0913,0.27081 0.42875,1.23592 0.55663,1.58292 0.12789,0.34711 0.42975,2.06566 0.5027,2.46345 0.073,0.3978 0.25573,1.42274 0.39276,1.829 0.13702,0.40627 0.22811,0.49096 0.31946,0.88888 0.0912,0.39791 0.2558,1.29472 0.30148,1.68416 0.0457,0.38945 0.2652,2.00669 0.32913,2.59932 0.0639,0.59263 0.18255,2.2771 0.18255,2.42949 0,0.15227 0.13692,0.27941 0.13692,0.27941 0,0 0.0819,0.49065 0.0636,0.78697 -0.0183,0.29632 -0.0361,0.33871 0.009,0.55883 0.0457,0.22023 0.13662,0.37274 0.15488,0.66906 0.0181,0.29631 -0.0362,0.53324 -0.018,0.96512 0.0183,0.43167 0.0454,0.76154 0.018,1.15099 -0.0274,0.38932 -0.14586,1.05833 -0.19153,1.48998 -0.0457,0.43167 -0.0369,0.77903 -0.0644,1.0837 -0.0274,0.30477 -0.14586,0.44819 -0.19153,0.76133 -0.0457,0.31325 -0.1272,1.32391 -0.29248,1.8963 0,0 -0.36539,1.40559 -0.55734,1.95589 -0.19183,0.55042 -0.52964,1.46424 -0.88577,2.04818 0,0 -0.32899,0.64393 -0.68525,0.9741 -0.35613,0.33019 -0.69408,0.66875 -1.05034,0.72802 -0.35626,0.0592 -1.01392,-0.0426 -1.26055,-0.22879 -0.24664,-0.18626 -0.73032,-0.62676 -1.07732,-0.9145 -0.347,-0.28773 -1.14198,-0.63438 -1.37948,-0.8799 -0.23751,-0.24551 -0.46563,-0.4995 -0.80349,-0.77031 -0.33799,-0.27092 -1.19671,-0.82956 -1.64432,-1.09202 -0.44748,-0.26244 -1.1783,-0.62689 -1.65331,-0.77928 -0.475,-0.15239 -1.22382,-0.4651 -1.66229,-0.80363 -0.43835,-0.33877 -1.04132,-0.48277 -1.43411,-0.55051 -0.3928,-0.0678 -0.52064,-0.22056 -0.73988,-0.3813 -0.21923,-0.16085 -0.37478,-0.3891 -0.68524,-0.42297 -0.31058,-0.0338 -1.27878,-0.0762 -1.82687,-0.23711 -0.54796,-0.16074 -1.90849,-0.6858 -2.3835,-0.9145 -0.47501,-0.22848 -1.45248,-0.82054 -1.99144,-1.16765 -0.53883,-0.347 -1.66257,-0.72008 -2.33856,-1.01639 -0.67598,-0.29632 -2.05515,-0.85501 -2.57573,-1.17662 -0.52067,-0.32171 -1.43392,-0.948 -1.83584,-1.6675 -0.40194,-0.71964 -0.58457,-1.34626 -0.74887,-2.01486 -0.16443,-0.66883 -0.41098,-1.99789 -0.43839,-2.50575 -0.0274,-0.50785 0.10033,-1.27799 0.009,-1.59957 -0.0913,-0.32172 -0.28358,-0.71987 -0.3658,-0.9568 -0.0822,-0.23706 -0.10899,-1.19363 -0.0816,-1.70148 0.0274,-0.50786 0.19122,-1.56575 0.25516,-2.03985 0.0639,-0.47411 0.11926,-0.68588 0.22888,-0.9568 0.10975,-0.27092 0.2649,-0.66903 0.34712,-1.15995 0.0822,-0.49104 0.19156,-0.80384 0.31945,-1.03242 0.12776,-0.22858 0.22835,-1.04127 0.18255,-1.65917 -0.0457,-0.61804 -0.14611,-1.88797 -0.2192,-2.37054 -0.0731,-0.48257 -0.19164,-1.05811 -0.22817,-1.61688 -0.0366,-0.55877 -0.0277,-1.54092 0.018,-2.09111 0.0457,-0.55031 0.15574,-1.47276 0.2835,-1.87067 0.1279,-0.39791 0.55674,-1.2108 0.76685,-1.55791 0.2101,-0.34712 0.5755,-0.82098 0.82216,-1.10035 0.24664,-0.27928 0.86808,-1.20179 1.19693,-1.62522 0.32873,-0.42331 0.6479,-0.82158 0.6479,-0.82158 l 0.4384,-1.33747 c 0,0 0.37456,-1.50643 0.47504,-2.09047 0.10053,-0.58405 0.29235,-1.62556 0.47504,-2.13342 0.18271,-0.50784 0.64882,-1.51519 0.89546,-1.87065 0.24664,-0.35558 0.84013,-0.88054 0.84013,-0.88054 0.26492,-0.11852 0.4387,-0.18605 0.73089,-0.25378 0.29256,-0.068 0.80397,-0.12739 1.21492,-0.13586 z"
     id="lungsB"
     inkscape:connector-curvature="0" /><path
     style="fill:#e59fa1;fill-opacity:1;fill-rule:evenodd;stroke:#000000;stroke-width:0.72497201px;stroke-linecap:butt;stroke-linejoin:miter;stroke-opacity:1"
     d="m 486.08036,183.50034 c 2.50339,-0.91085 10.37422,-0.11529 14.8625,-0.26216 4.73097,-0.1548 9.92244,-0.83519 15.90184,-1.13601 4.42359,-0.22256 10.57495,-0.23776 14.96641,0.26215 6.0512,0.68887 7.54705,2.57897 9.66578,4.89365 1.702,1.85938 2.11683,4.56115 2.28656,7.60263 0.22445,4.0224 -1.32948,6.6389 -1.45507,9.52513 -0.14442,3.40553 1.79194,5.9121 0.41574,7.86478 -0.63462,0.90046 -2.60259,0.55387 -3.84555,0.61171 -2.29643,0.10687 -4.70463,-0.52321 -6.75566,-1.39818 -2.11927,-0.9041 -3.97733,-3.486 -6.23602,-4.10718 -1.83833,-0.50556 -4.59185,0.64365 -6.44389,0.17478 -2.26982,-0.57466 -4.7008,-2.49423 -6.44386,-3.84501 -1.49712,-1.16019 -4.27467,-4.22011 -4.98881,-4.36932 -1.32601,-0.27705 -6.72764,0.16436 -9.25008,-0.6117 -2.48891,-0.76576 -4.23187,-2.29162 -6.13208,-3.84501 -1.11373,-0.91047 -1.55624,-2.52689 -2.59832,-3.49547 -1.07984,-1.00364 -2.93466,-2.27799 -3.63768,-3.49545 -0.52035,-0.90112 -1.20337,-1.73293 -0.9354,-2.70899 0.13233,-0.48196 0.0837,-1.46389 0.62359,-1.66035 z"
     id="liverB"
     sodipodi:nodetypes="csssssssssssssssssss"
     inkscape:connector-curvature="0" /><path
     style="fill:#f26522;stroke:#c0272d;stroke-width:0.14249526"
     d="m 520.85617,121.5323 c 0,5.0708 -2.71342,39.72757 -2.71342,39.72757 -1.15605,3.41987 -1.6953,11.79266 -1.6953,11.79266 -0.84762,6.54472 -5.24019,11.08503 -5.24019,11.08503 0,1.17915 3.00561,7.19349 3.00561,7.19349 0,0.58979 1.92652,2.06364 4.00676,2.06364 0.95108,0 1.88787,-0.60744 2.61957,-1.00383 0.93423,-0.50605 1.87232,-1.08832 2.87144,-1.50815 2.4142,-1.01482 5.5148,-0.26928 7.70174,0.72871 2.66587,1.21613 4.54508,3.17788 4.80165,5.57295 0.23024,2.15117 -0.37504,4.84033 -2.34912,6.47816 -0.10956,0.0909 -0.21785,0.17545 -0.32612,0.25645 -0.60546,0.48299 -1.19105,0.81327 -2.12906,0.6285 -0.97687,-0.19196 -1.92101,-0.67632 -2.32473,-1.38887 -0.3611,-0.63695 -0.004,-0.94322 0.50058,-1.45218 0.66002,-0.6656 1.26096,-1.22784 1.52242,-2.07419 0.29186,-0.94522 0.40938,-2.41507 -0.28104,-3.28655 -1.3681,-1.72675 -3.9586,-0.89261 -5.56155,0.14445 -0.0915,0.0592 -0.17811,0.12106 -0.26354,0.1838 -0.61342,0.48308 -1.10167,1.03765 -1.72181,1.51141 -0.0459,0.0351 -0.0898,0.0714 -0.13734,0.10549 -0.003,0.002 -0.008,0.005 -0.0111,0.008 -0.0507,0.0389 -0.0995,0.0791 -0.15219,0.11687 -0.93016,0.66685 -2.21628,1.77396 -3.38157,2.17927 -1.07488,0.37414 -2.19961,0.61511 -3.34127,0.73642 -3.36092,0.3569 -6.87353,-0.32274 -9.72049,-1.709 -3.8146,-1.85764 -7.05109,-5.39522 -7.05109,-5.39522 -6.70419,-2.12273 -11.40465,-8.72684 -11.40465,-8.72684 -0.28411,-3.85256 0.95545,-6.12136 2.72826,-7.43734 3.50442,-2.77207 9.30158,-1.59014 9.30158,-1.59014 5.4713,0 7.47478,5.24754 7.47478,5.24754 0.36852,-0.0627 0.70799,-0.21582 1.02185,-0.43982 3.08211,-2.51911 3.51573,-12.17164 3.51573,-12.17164 0.84762,-2.3585 2.7744,-16.03798 2.7744,-16.03798 0.0551,-0.036 0.10763,-0.0774 0.16173,-0.11605 1e-5,-3e-5 0.001,-0.009 0.001,-0.009 2.22564,-31.55748 0.38323,-31.00394 5.79646,-31.41421 z"
     id="stomacheB"
     inkscape:connector-curvature="0" /><path
     style="fill:#f26522;stroke:#c0272d;stroke-width:0.14249526"
     d="m 372.59801,115.15337 c 0,5.0708 2.71342,39.72757 2.71342,39.72757 1.15605,3.41987 1.6953,11.79266 1.6953,11.79266 0.84762,6.54472 5.24019,11.08503 5.24019,11.08503 0,1.17915 -3.00561,7.19349 -3.00561,7.19349 0,0.58979 -1.92652,2.06364 -4.00676,2.06364 -0.95108,0 -1.88787,-0.60744 -2.61957,-1.00383 -0.93423,-0.50605 -1.87232,-1.08832 -2.87144,-1.50815 -2.4142,-1.01482 -5.5148,-0.26928 -7.70174,0.72871 -2.66587,1.21613 -4.54508,3.17788 -4.80165,5.57295 -0.23024,2.15117 0.37504,4.84033 2.34912,6.47816 0.10956,0.0909 0.21785,0.17545 0.32612,0.25645 0.60546,0.48299 1.19105,0.81327 2.12906,0.6285 0.97687,-0.19196 1.92101,-0.67632 2.32473,-1.38887 0.3611,-0.63695 0.004,-0.94322 -0.50058,-1.45218 -0.66002,-0.6656 -1.26096,-1.22784 -1.52242,-2.07419 -0.29186,-0.94522 -0.40938,-2.41507 0.28104,-3.28655 1.3681,-1.72675 3.9586,-0.89261 5.56155,0.14445 0.0915,0.0592 0.17811,0.12106 0.26354,0.1838 0.61342,0.48308 1.10167,1.03765 1.72181,1.51141 0.0459,0.0351 0.0898,0.0714 0.13734,0.10549 0.003,0.002 0.008,0.005 0.0111,0.008 0.0507,0.0389 0.0995,0.0791 0.15219,0.11687 0.93016,0.66685 2.21628,1.77396 3.38157,2.17927 1.07488,0.37414 2.19961,0.61511 3.34127,0.73642 3.36092,0.3569 6.87353,-0.32274 9.72049,-1.709 3.8146,-1.85764 7.05109,-5.39522 7.05109,-5.39522 6.70419,-2.12273 11.40465,-8.72684 11.40465,-8.72684 0.28411,-3.85256 -0.95545,-6.12136 -2.72826,-7.43734 -3.50442,-2.77207 -9.30158,-1.59014 -9.30158,-1.59014 -5.4713,0 -7.47478,5.24754 -7.47478,5.24754 -0.36852,-0.0627 -0.70799,-0.21582 -1.02185,-0.43982 -3.08211,-2.51911 -3.51573,-12.17164 -3.51573,-12.17164 -0.84762,-2.3585 -2.7744,-16.03798 -2.7744,-16.03798 -0.0551,-0.036 -0.10763,-0.0774 -0.16173,-0.11605 -10e-6,-3e-5 -10e-4,-0.009 -10e-4,-0.009 -2.22564,-31.55748 -0.38323,-31.00394 -5.79646,-31.41421 z"
     id="stomache"
     inkscape:connector-curvature="0" /><path
     style="fill:#e59fa1;fill-opacity:1;fill-rule:evenodd;stroke:#000000;stroke-width:0.72497201px;stroke-linecap:butt;stroke-linejoin:miter;stroke-opacity:1"
     d="m 398.64137,181.28296 c -2.50339,-0.91085 -10.37422,-0.11529 -14.8625,-0.26216 -4.73097,-0.1548 -9.92244,-0.83519 -15.90184,-1.13601 -4.42359,-0.22256 -10.57495,-0.23776 -14.96641,0.26215 -6.05121,0.68887 -7.54706,2.57897 -9.66579,4.89365 -1.702,1.85938 -2.11683,4.56115 -2.28656,7.60263 -0.22445,4.0224 1.32948,6.6389 1.45507,9.52513 0.14442,3.40553 -1.79194,5.9121 -0.41574,7.86478 0.63462,0.90046 2.60259,0.55387 3.84555,0.61171 2.29643,0.10687 4.70463,-0.52321 6.75567,-1.39818 2.11927,-0.9041 3.97733,-3.486 6.23602,-4.10718 1.83833,-0.50556 4.59185,0.64365 6.44389,0.17478 2.26982,-0.57466 4.7008,-2.49423 6.44386,-3.84501 1.49712,-1.16019 4.27467,-4.22011 4.98881,-4.36932 1.32601,-0.27705 6.72764,0.16436 9.25008,-0.6117 2.48891,-0.76576 4.23187,-2.29162 6.13208,-3.84501 1.11373,-0.91047 1.55624,-2.52689 2.59832,-3.49547 1.07984,-1.00364 2.93466,-2.27799 3.63768,-3.49545 0.52035,-0.90112 1.20337,-1.73293 0.9354,-2.70899 -0.13233,-0.48196 -0.0837,-1.46389 -0.62359,-1.66035 z"
     id="liver"
     sodipodi:nodetypes="csssssssssssssssssss"
     inkscape:connector-curvature="0" /><path
     style="fill:#f26522;stroke:#c0272d;stroke-width:0.13594045"
     d="m 385.80196,196.64353 c -3.09349,-0.15053 -4.83093,2.37903 -7.76014,2.45607 -1.18732,0.0313 -2.26306,-0.39824 -3.43711,-0.34446 -1.44224,0.0662 -2.71694,0.69078 -3.99349,1.17744 -1.10091,0.41984 -2.62112,1.03612 -3.83258,0.61693 -0.44003,-0.15245 -0.87067,-0.35429 -1.27946,-0.55466 -0.15179,-0.0744 -0.30474,-0.15646 -0.45362,-0.24327 0.0666,-0.14923 0.0972,-0.29681 0.0562,-0.43205 -0.0954,-0.31468 -0.56783,-0.97221 -0.82584,-1.20469 -0.08,0 -0.21049,-0.006 -0.28691,-0.002 -0.15315,0.092 -0.30066,0.19886 -0.46138,0.30167 -0.19032,0.12148 -0.33517,0.33856 -0.50016,0.43983 -0.53989,0.33202 -1.37877,0.0565 -1.9793,0.25885 -0.3982,0.1345 -0.44178,0.38356 -0.34118,0.64612 -0.31362,0.15356 -0.28863,0.40454 -0.13958,0.65587 -0.0605,-0.005 -0.12463,0.002 -0.18417,-0.008 0.84741,1.21925 1.76567,2.37554 3.45456,2.86478 1.1002,0.31904 2.38129,0.53951 3.53404,0.54493 0.23593,0.001 0.46743,-0.012 0.69983,-0.0234 -2.45002,0.17851 -4.23,-0.40891 -6.60476,-1.14825 -2.29509,-0.71479 -4.10858,-0.52857 -5.55791,0.92833 -0.60999,0.61329 -1.40528,1.0337 -1.48884,1.76517 -0.0745,0.65191 0.16695,1.29237 -0.0174,2.00652 -0.2199,0.8514 -0.51066,1.66775 -0.61646,2.53586 -0.15078,1.24045 0.52245,2.34829 0.46137,3.58484 -0.0419,0.84642 -0.60171,1.73424 -0.44974,2.57283 0.0855,0.0231 0.16358,-0.009 0.24619,0.0215 0.30299,0.47254 -0.0296,0.92674 0.19192,1.47521 0.40477,1.00126 1.62222,2.75514 2.92339,3.12554 0.8616,0.24528 2.66038,0.48843 3.44293,-0.0156 0.40003,-0.25742 0.5184,-0.80313 0.67462,-1.17354 0.18125,-0.42969 0.48457,-0.95981 0.86848,-1.38568 -0.29239,0.33747 -0.38753,1.01378 -0.58545,1.3701 -0.16072,0.28888 -0.67157,0.7692 -0.73666,1.06651 -0.3605,1.64018 2.2298,3.40879 3.79962,3.95072 2.05129,0.70807 2.71847,-0.61512 3.85584,-1.69511 0.088,-0.0836 0.18536,-0.15613 0.27528,-0.23742 -0.0365,0.0368 -0.0773,0.0714 -0.11243,0.10898 -0.48785,0.52177 -0.99009,1.1221 -1.36476,1.70291 -0.2237,0.34698 -0.0695,0.66322 0.29272,0.88939 0.32601,0.20373 0.7989,0.40942 1.18641,0.56439 -0.0235,-0.005 -0.0463,-0.006 -0.0698,-0.0137 -0.89996,-0.25787 -3.18754,-1.46515 -4.00512,-0.52353 -0.22913,0.26372 -0.26342,1.02449 -0.36639,1.35066 -0.18392,0.58228 -0.56891,1.31949 -0.44394,1.9228 0.0265,0.12805 0.0802,0.25465 0.14927,0.37951 -0.0347,-0.0542 -0.0804,-0.0994 -0.11243,-0.15568 -0.52856,-0.93079 0.37741,-2.0244 0.52536,-2.94846 0.18699,-1.17019 -1.14529,-2.10363 -2.47558,-2.32179 -0.56406,-0.0926 -1.444,-0.32372 -2.01612,-0.16931 -0.5333,0.14399 -1.07338,0.74718 -1.51792,1.0198 -0.46132,0.28278 -0.88188,0.47369 -1.21161,0.8816 -0.87841,1.08759 -0.0892,2.07611 1.37058,2.23615 0.43402,0.0475 0.88839,-0.0426 1.30855,-0.21602 -0.11508,0.10554 -0.19402,0.22408 -0.30436,0.47682 -0.38418,0.88003 -0.78715,1.59978 -0.83165,2.56699 -0.0356,0.77356 0.15326,1.95094 0.86267,2.47942 0.93119,0.6942 2.19153,0.13576 3.2006,0.37757 0.019,-0.0699 0.0674,-0.17185 0.0775,-0.25884 0.0244,0.0696 0.043,0.13949 0.0466,0.21019 -0.004,-0.0516 -0.0375,-0.27016 -0.0349,-0.24522 7e-4,0.0101 -0.0106,0.0205 -0.0116,0.0311 -0.0752,-0.21275 -0.2184,-0.42331 -0.25977,-0.64419 0.74041,1.26475 2.27912,2.11945 3.8132,2.69934 1.51941,0.57491 3.32351,0.55517 4.9492,0.37756 1.23395,-0.13489 2.25023,-0.0911 3.46619,-0.008 1.45975,0.10019 2.60327,0.13252 4.02255,-0.14985 1.05263,-0.2095 2.56115,-0.41568 2.71596,-1.52385 0.098,-0.70395 0.14195,-1.72886 -0.36057,-2.32762 -0.41897,-0.49901 -1.19283,-0.77833 -1.59545,-1.27863 -0.19602,0.16042 -0.43608,0.1291 -0.69597,0.13038 0.27552,-0.0778 0.52156,-0.19122 0.63005,-0.43205 0.0463,-0.10304 0.0694,-0.213 0.0834,-0.32501 1.3e-4,0.003 0.002,0.004 0.002,0.008 0.019,0.44501 0.13327,0.74551 0.54087,1.08208 0.67319,0.55582 1.6583,0.92165 2.57056,1.13462 0.84338,0.1969 1.67273,0.31446 2.53955,0.29387 0.84929,-0.0201 1.07315,-10e-4 1.62065,-0.48071 1.48106,-1.29771 2.33786,-2.55365 2.77411,-4.34191 0.10865,-0.44479 -0.14339,-0.9709 -0.49821,-1.34675 -0.47295,-0.5016 -1.45464,-0.46555 -2.07623,-0.77069 0.9059,0.18502 2.00766,0.34503 2.91175,0.0856 1.3078,-0.37562 1.21275,-1.2782 2.01613,-2.03181 -0.42938,-0.26609 -0.63565,-0.719 -0.61647,-1.16965 -0.0762,1.78848 4.12242,-0.36357 4.77667,-0.71813 1.58143,-0.85705 1.7756,-2.17774 2.61709,-3.46808 0.71485,-1.09626 0.1405,-1.49821 -0.11632,-2.74605 -0.27127,-1.32028 0.45542,-2.57694 0.68433,-3.86316 0.31762,-1.78739 0.69094,-5.83928 -2.29529,-6.25111 -0.93877,-0.12968 -2.0656,0.23446 -2.74115,0.81738 -0.38489,0.33206 -0.52385,0.76179 -1.02164,1.00228 -0.2973,0.14381 -0.61043,0.14966 -0.9247,0.14014 l -0.28497,0.0584 c 0.019,-0.0255 0.0484,-0.0379 0.0698,-0.0603 -0.0157,-6e-4 -0.0309,5.9e-4 -0.0466,0 0.0188,-0.003 0.0375,-0.004 0.0562,-0.008 0.28739,-0.28953 0.76403,-0.32917 1.22131,-0.40285 0.73141,-1.21771 2.17004,-1.2734 3.19284,-2.19724 1.62923,-1.47164 1.15668,-5.70193 -1.22906,-6.50216 -2.1346,-0.7161 -4.39695,0.59693 -5.84676,1.76713 -0.53168,0.4291 -1.09609,0.92115 -1.58189,1.45768 0.34787,-0.6772 0.56419,-1.41806 0.59127,-2.02792 0.0516,-1.15285 -0.74224,-1.9319 -2.1305,-2.15636 -0.21905,-0.0353 -0.43157,-0.0561 -0.6378,-0.0662 z m 6.42059,10.12789 c -0.003,0.003 -0.007,0.004 -0.01,0.008 0.0718,0.003 0.14326,-2.3e-4 0.21519,0.002 l 0.85103,-0.17321 c -0.35109,0.0589 -0.70361,0.11085 -1.05652,0.16347 z m -7.78148,-8.11555 c 0.14605,0.35827 0.0591,0.75802 0.26947,1.10154 0.0631,-0.16798 0.62181,-0.25597 1.04683,-0.34642 -0.47276,0.12672 -0.94325,0.2947 -1.2814,0.56634 -0.11973,0.0961 -0.22574,0.20637 -0.33149,0.31722 0.0451,-0.0506 0.0997,-0.0967 0.14345,-0.1479 0.33398,-0.39036 0.28002,-1.02863 0.15314,-1.49078 z m 9.08032,1.6815 c -0.1108,0.48526 -0.74337,1.16104 -1.1108,1.69512 -0.69293,0.38772 -1.25573,0.88916 -1.92501,1.49272 -0.56715,0.51115 -1.05009,1.07582 -1.59545,1.59391 -0.294,0.28019 -0.68785,0.5157 -0.93829,0.82907 -0.198,0.24766 -0.18062,0.4355 -0.18804,0.69283 -0.0696,-0.33157 -0.31839,-0.60211 -0.76768,-0.79792 -0.17526,-0.0765 -0.34197,-0.12324 -0.50791,-0.15375 0.67011,0.0701 1.31048,0.0352 1.6827,-0.2355 0.53992,-0.39251 1.06046,-0.99731 1.55281,-1.44211 1.29808,-1.1743 3.02791,-2.18365 3.79767,-3.67437 z m -9.51843,0.1051 c -0.38028,0.43308 -0.70178,0.92785 -1.11081,1.32341 -0.35806,0.34612 -1.15776,0.63226 -1.57413,1.03925 0.0414,-0.0559 0.0729,-0.11522 0.12795,-0.16542 0.25942,-0.23595 0.57867,-0.43661 0.8646,-0.65391 0.61941,-0.47044 1.18517,-0.99423 1.69239,-1.54333 z m 10.31713,0.91861 c -0.42867,0.0813 -0.7996,0.18598 -1.136,0.31138 0.33731,-0.15319 0.70223,-0.26117 1.136,-0.31138 z m -7.18438,0.71619 c -0.25075,0.47987 -0.40746,0.98152 -0.37996,1.50633 -0.0154,-0.29233 -0.0344,-0.68797 -0.13184,-0.95362 -0.48571,0.11949 -0.97417,0.45705 -1.53729,0.48459 0.61851,-0.20819 1.32965,-0.42422 1.81064,-0.8135 0.0828,-0.067 0.16049,-0.14653 0.23845,-0.2238 z m -15.12482,0.55076 c -0.49813,0.163 -0.92214,0.40926 -1.02358,0.7882 -0.081,0.30297 0.38632,0.6254 0.48077,0.91469 0.24789,0.75919 -0.45614,1.36374 -1.06816,1.88391 0.018,-0.0188 0.0385,-0.0354 0.0561,-0.0545 0.5243,-0.56494 1.25697,-1.42773 0.72892,-2.14274 -0.25352,-0.34342 -0.60965,-0.44785 -0.99451,-0.45735 0.2505,-0.0539 0.48639,-0.13569 0.67657,-0.28415 0.30133,-0.23508 0.39497,-0.46456 0.8336,-0.58968 0.0985,-0.0281 0.20727,-0.0377 0.31017,-0.0584 z m 5.37374,0.27247 c 0.56106,0.0871 1.1085,0.1336 1.66719,0.25494 0.45731,0.0996 1.53469,0.53393 1.90368,0.14791 0.0689,-0.0721 0.11671,-0.1581 0.16866,-0.24132 -0.0525,0.10641 -0.0846,0.21896 -0.0679,0.34447 0.0575,0.432 0.53519,0.50411 0.99061,0.71425 0.2642,0.1218 0.53125,0.24007 0.79676,0.36005 -0.45692,-0.17456 -0.92212,-0.33555 -1.38609,-0.48656 -1.29264,-0.42028 -2.60528,-0.74989 -3.93532,-1.06261 -0.0459,-0.0108 -0.0918,-0.0202 -0.13764,-0.0311 z m 6.90911,2.23225 c 0.42709,0.18781 1.15209,0.4122 1.89012,0.52353 -0.072,-0.005 -0.14026,-0.0192 -0.21518,-0.0234 -0.23055,-0.0126 -0.32445,0.0583 -0.57769,-0.0253 -0.37463,-0.12369 -0.73828,-0.29649 -1.09725,-0.47487 z m -27.90009,0.0506 c 0.2285,0.61835 0.94411,1.349 1.71953,1.71847 -0.87489,-0.29273 -1.5642,-0.83202 -1.71953,-1.71847 z m 18.12576,0.62668 c 1.59299,1.42201 5.20339,1.30654 6.88585,2.34124 1.87896,1.15545 0.93582,2.76274 0.65911,4.55405 -0.14628,0.9464 -0.35169,1.9773 -0.73279,2.88227 -0.35741,0.8488 -0.62945,0.92277 0.16091,1.50244 -0.22136,-0.11222 -0.4516,-0.20562 -0.663,-0.21406 -0.7423,-0.0293 -1.29556,0.5465 -2.0045,0.59747 -0.79839,0.0573 -1.8122,-0.2551 -2.57249,-0.43011 -0.57874,-0.13359 -1.08334,-0.25291 -1.57025,-0.50989 -0.49542,-0.26133 -0.88663,-0.43921 -1.4772,-0.20435 -0.75249,0.29884 -0.83201,1.1431 -1.65361,1.5803 -0.77232,0.41111 -1.67241,0.68789 -2.4872,1.03341 0.25673,-0.12529 0.51304,-0.25299 0.77155,-0.36782 0.91533,-0.40664 1.93226,-0.64926 2.45231,-1.44601 0.28972,-0.44395 0.68095,-0.78107 0.49822,-1.30783 -0.0753,-0.21733 -0.23498,-0.42745 -0.42843,-0.61694 0.28681,0.2895 0.56956,0.58105 1.03714,0.77847 1.61977,0.68421 3.6249,1.40257 5.47262,1.31561 1.88582,-0.088 2.3904,-1.64064 2.70238,-2.91342 0.18274,-0.74515 0.26526,-1.50201 0.37415,-2.25561 0.10107,-0.69874 0.39624,-1.33306 0.45944,-2.03571 0.15883,-1.76179 -1.28255,-1.92239 -3.14826,-2.44439 -0.92764,-0.25915 -2.43745,-0.90069 -3.40414,-0.88161 -0.56999,0.011 -1.53644,0.46184 -2.16346,0.55466 0.64549,-0.25069 1.31375,-0.47541 1.99285,-0.6617 -0.72701,-0.20203 -0.95831,-0.49954 -1.1612,-0.85047 z m -10.40631,1.11904 c -0.25518,0.10783 -0.50721,0.22288 -0.76768,0.31723 -0.41968,0.15202 -0.56109,0.1949 -0.6882,0.55076 -0.0321,0.09 -0.0436,0.18294 -0.0659,0.27441 0.0174,-0.1294 0.0289,-0.26049 0.0232,-0.39313 -0.0166,-0.38753 -0.0935,-0.40569 -0.57383,-0.47097 -0.0223,-0.003 -0.0454,-0.003 -0.0679,-0.006 0.48371,0.0176 0.9637,0.028 1.43456,-0.0797 0.22944,-0.0525 0.46719,-0.11851 0.70564,-0.19268 z m 5.44935,0.0546 c -0.47644,0.45037 -0.92223,0.91912 -1.18836,1.48103 0.28855,0.365 0.95131,0.37997 1.42875,0.44763 0.27587,0.0391 0.53637,0.11365 0.79287,0.1985 -1.11866,-0.32134 -2.1748,-0.39032 -2.8943,0.11094 0.25744,-0.43602 0.49002,-0.88856 0.83359,-1.27668 0.307,-0.34671 0.66693,-0.65365 1.02745,-0.96142 z m -10.27061,0.16348 c 0.32898,-0.001 0.66389,-0.0224 0.97316,0.008 0.0522,0.004 0.0994,4.3e-4 0.14928,0.004 -0.36982,0.0257 -0.74939,0.023 -1.12244,-0.0116 z m 1.21549,0.0137 c 0.0615,0.003 0.12771,0.004 0.18805,0.005 -0.20288,0.0238 -0.3854,0.0763 -0.55444,0.14792 0.11422,-0.0674 0.24226,-0.1248 0.36639,-0.15376 z m 26.87845,0.5313 c -0.058,0.10446 -0.11898,0.19969 -0.16671,0.31917 -0.35932,0.89847 0.5718,1.36532 1.44617,1.68344 0.23301,0.0847 0.47143,0.1611 0.70759,0.24132 -0.51574,-0.074 -0.99182,0.0585 -1.47139,0.3114 -0.18716,0.0987 -0.35492,0.21352 -0.51372,0.33669 0.12255,-0.16571 0.24465,-0.34525 0.39353,-0.48654 0.0757,-0.0721 0.30299,-0.1706 0.33731,-0.25495 0.10913,-0.27024 -0.43583,-0.36703 -0.60483,-0.49433 -0.23126,-0.17415 -0.38392,-0.47005 -0.43812,-0.71619 -0.0944,-0.42997 0.10539,-0.70228 0.31017,-0.94001 z m -27.86324,0.0253 c -0.36668,0.34124 -0.62372,0.78492 -0.80065,1.19689 -0.10551,0.24585 -0.18548,0.48353 -0.27915,0.72399 0.18799,-0.72321 0.43087,-1.44036 1.0798,-1.92088 z m 35.99172,0.72981 c -0.12562,0.2309 -0.21733,0.46771 -0.20549,0.7084 0.0178,0.3627 0.0378,0.72969 0.0562,1.09571 -0.0137,-0.0835 -0.0273,-0.16754 -0.0388,-0.25105 -0.0438,-0.3175 -0.26977,-0.84594 -0.1803,-1.1502 0.0377,-0.12859 0.20809,-0.27001 0.36833,-0.40286 z m -33.03151,0.11678 c -0.0295,0.18838 -0.0566,0.37805 -0.0989,0.56439 -0.0976,0.42852 -0.34092,0.79371 -0.48271,1.21051 -0.28665,0.84404 -0.34263,1.7962 0.36251,2.51836 0.76126,0.7794 2.02644,0.0969 3.1754,0.0662 1.43669,-0.039 2.3923,0.45478 3.60771,0.86216 -0.0969,-0.0212 -0.19626,-0.0365 -0.29079,-0.0643 -0.38938,-0.11473 -0.72573,-0.30568 -1.12244,-0.41454 -0.81237,-0.22273 -1.70349,-0.21916 -2.54924,-0.18296 -0.39884,0.0167 -0.80842,0.004 -1.19804,0.0896 -0.37565,0.0826 -0.76203,0.19279 -1.12632,0.0721 -0.7629,-0.25244 -1.09279,-1.10784 -1.13019,-1.70096 -0.0542,-0.85292 0.33692,-1.52463 0.61647,-2.31204 0.0839,-0.23612 0.16755,-0.47091 0.23651,-0.70842 z m 10.1349,1.33119 c 1.44744,0.55456 3.02828,1.23953 4.09623,2.17192 0.43933,-0.67532 1.0138,-1.24353 1.76605,-1.72431 -0.95757,0.94043 -1.65775,1.45665 -1.60708,2.26145 -0.39634,-0.56315 -0.97806,-1.03282 -1.67106,-1.38762 -0.58252,-0.29812 -1.53628,-0.8334 -2.58414,-1.32144 z m 17.65662,0.38922 c 0.18658,0.0772 0.41506,0.16946 0.5273,0.27247 0.267,0.24483 0.11256,0.54668 0.19967,0.83685 0.0491,0.16435 0.15187,0.32107 0.25395,0.47876 -0.20951,-0.24172 -0.43585,-0.47504 -0.42649,-0.52741 0.0771,-0.42905 -0.17327,-0.79954 -0.55443,-1.06067 z m -32.4131,1.27669 c -0.0195,0.10315 -0.0461,0.20213 -0.062,0.30751 -0.1257,0.8282 -0.1609,1.57448 0.0232,2.39184 0.16925,0.7497 0.11019,1.42102 1.24069,1.30976 -0.22036,-0.0512 -0.49671,0.0674 -0.75023,0.0176 0.26038,0.65754 0.70637,1.33657 1.11469,1.94229 -0.90894,-0.99325 -1.62691,-2.32127 -1.80869,-3.55566 -0.10741,-0.72986 0.0178,-1.6249 0.24232,-2.41327 z m 28.01251,0.85632 c -0.11506,0.177 -0.22975,0.35514 -0.347,0.52351 -0.18628,0.2674 -0.33798,0.53787 -0.48852,0.81739 -0.11859,0.22056 -0.49124,0.61645 -0.47302,0.86217 0.006,0.0736 0.061,0.15722 0.12213,0.23938 -0.0999,-0.0767 -0.20546,-0.12479 -0.31211,-0.11677 0.31555,-0.83 0.88643,-1.58841 1.49852,-2.32568 z m 5.68781,0.34643 c 0.0152,0.2459 -0.004,0.49303 -0.12988,0.71228 -0.18818,0.32942 -0.62225,0.49038 -0.7735,0.81352 0.95765,0.66722 3.07176,1.20438 4.11367,0.49431 -0.0359,0.074 -0.0619,0.15027 -0.10081,0.22383 -0.32047,0.60641 -0.87902,1.2207 -1.231,1.86442 0.20521,-0.70664 0.54058,-1.39241 1.14571,-1.88389 -0.30984,0.25156 -1.25046,0.21179 -1.64198,0.1771 -0.60715,-0.0535 -1.11135,-0.2397 -1.62453,-0.49629 -0.68948,-0.34457 -1.23431,-0.18221 -1.63229,0.21993 0.42359,-0.49018 1.21519,-0.75987 1.56056,-1.31561 0.12907,-0.2077 0.25631,-0.51964 0.31405,-0.8096 z m -20.61489,1.54913 c 0.26766,0.0876 0.5246,0.18621 0.74441,0.32308 0.26685,0.16602 0.46655,0.36611 0.66494,0.56634 -0.19436,-0.19001 -0.42263,-0.35837 -0.6378,-0.49044 -0.24179,-0.14822 -0.50176,-0.2825 -0.77155,-0.39898 z m -2.04133,1.40905 c -0.25374,0.29688 -0.60652,0.62049 -0.7386,0.9614 0.0125,0.0101 0.0235,0.0206 0.0349,0.0311 0.64621,-0.0832 1.41373,-0.14912 2.07816,-0.1012 -0.4166,0.15854 -1.06955,0.0636 -1.547,0.1265 -0.34937,0.0458 -0.66885,0.0685 -1.01775,0.0915 -0.55507,0.037 -1.06484,0.24746 -1.60901,0.29582 -0.42962,0.0384 -0.88375,0.014 -1.32212,0.0506 -0.9355,0.0783 -1.90311,0.23399 -2.56669,0.82324 0.15624,-0.16233 0.32275,-0.3073 0.50403,-0.41648 1.67351,-1.00843 4.27176,-0.0504 5.71494,-1.38763 0.16049,-0.14898 0.32192,-0.31678 0.46915,-0.47486 z m 20.26013,0.87771 c 0.0221,0.21757 0.0491,0.43897 0.0641,0.6364 0.0433,0.57253 -0.17581,1.14046 0.1357,1.66982 0.29256,0.49727 0.80886,0.95758 1.04296,1.46353 -0.15126,-0.24116 -0.32225,-0.47463 -0.50404,-0.70647 -0.11266,-0.14355 -0.49547,-0.74678 -0.68626,-0.78626 -0.1858,-0.0382 -0.29215,0.1433 -0.44199,0.25106 -0.49755,0.35762 -1.06156,0.69741 -1.62066,0.98672 0.41472,-0.49467 1.12875,-0.79977 1.64974,-1.21442 0.48927,-0.3897 0.26667,-0.97431 0.2714,-1.45184 0.003,-0.27024 0.0447,-0.56043 0.0891,-0.84854 z m -7.33172,0.67338 c 0.35318,0.13919 0.76687,0.1959 1.11856,0.34252 0.9177,0.38255 2.06407,1.06195 1.71565,2.04933 -0.22368,0.63476 -0.64281,1.20554 -0.79288,1.88195 -0.23725,1.07002 0.33341,1.9878 1.26007,2.62149 -0.80905,-0.39187 -1.39852,-0.93072 -1.47913,-1.92087 -0.0627,-0.76965 0.26474,-1.48498 0.71921,-2.14468 1.09524,-1.58898 -0.95009,-2.03588 -2.21386,-2.6507 -0.0932,-0.0453 -0.21671,-0.11573 -0.32762,-0.17904 z m -7.37824,0.94779 c 0.0283,0.24765 0.0111,0.52438 0.13182,0.75317 0.15158,-0.0365 0.3185,-0.0456 0.48658,-0.0506 -0.37009,0.0455 -0.721,0.16592 -1.06234,0.30944 0.34388,-0.23612 0.44794,-0.50093 0.44394,-1.012 z m 6.06388,0.85437 c 0.0711,-0.0112 0.13837,-0.0118 0.19967,0.004 -0.71153,0.126 -1.2285,0.73557 -1.57219,1.2183 0.52714,-0.0846 0.99598,-0.3252 1.51792,-0.41452 0.40666,-0.0696 0.8458,-0.0471 1.24844,-0.0974 -0.78704,0.0987 -1.52323,0.23838 -2.30885,0.43788 -0.3624,0.0922 -0.4747,0.1108 -0.64749,0.38146 -0.33328,0.52351 -0.42819,1.06993 -0.69401,1.60364 -0.0916,0.18456 -0.23562,0.39836 -0.18804,0.61109 0.15906,0.71155 1.21529,0.97797 1.91144,1.23972 0.3706,0.13936 0.65291,0.31825 0.91114,0.51184 -0.19754,-0.14049 -0.41107,-0.27008 -0.663,-0.36783 -0.47057,-0.18259 -0.99889,-0.20641 -1.45976,-0.38922 -0.5901,-0.23379 -0.60297,-0.88266 -1.26977,-1.04705 -0.23433,-0.0579 -2.06753,-0.0959 -2.09948,-0.0389 0.0727,-0.12968 0.2245,-0.21724 0.40128,-0.24326 -0.0858,-0.19652 -0.43034,-0.37685 -0.67462,-0.47682 -1.17145,-0.47927 -3.23782,-0.87711 -4.53047,-0.56633 -0.48969,0.11778 -0.91019,0.34173 -1.28334,0.61499 1.06492,-0.87172 2.25408,-1.60446 3.55148,-2.2381 -0.16183,0.0957 -0.32623,0.19298 -0.48076,0.28414 -0.29778,0.17566 -1.33426,0.64969 -0.80451,0.99254 0.34037,0.22055 0.75011,0.14732 1.14375,0.20046 0.45637,0.0616 0.93125,0.19779 1.38028,0.29776 0.50843,0.11321 2.32635,0.46279 1.60515,1.05095 0.48284,-0.11538 1.04294,0.0213 1.51208,0.0974 0.24879,0.0406 0.58247,0.006 0.78321,0.12456 -0.0156,-0.18954 0.12487,-0.56118 0.18997,-0.78236 0.19954,-0.68139 0.57363,-1.36444 0.96347,-1.98511 0.17253,-0.27456 0.85956,-0.9446 1.35701,-1.02369 z m -13.34714,0.65975 c -0.60589,0.29711 -1.13892,0.6493 -1.30273,1.06456 -0.005,0.0135 -0.007,0.031 -0.0116,0.0446 0.005,-0.11057 0.0158,-0.22069 0.01,-0.33278 -0.0136,-0.24838 -0.11141,-0.32754 -0.27527,-0.40481 0.0325,0.005 0.0739,0.0203 0.10468,0.0253 0.37465,0.0598 1.05075,-0.24805 1.47527,-0.39702 z m 5.87971,4.29909 c 0.31,-0.004 0.62055,0.0466 0.88401,0.11872 -0.023,-0.0214 -0.0354,-0.0495 -0.0562,-0.0721 0.0656,0.0599 0.13214,0.11104 0.19775,0.14208 0.0185,0.009 0.0421,0.009 0.062,0.0156 -0.25118,-0.0312 -0.49953,-0.0724 -0.75605,-0.0818 -0.41447,-0.0146 -0.79043,0.0715 -1.20774,0.076 0.25695,-0.13857 0.56625,-0.19491 0.87624,-0.19851 z m 1.79901,0.26663 c 0.0301,0.003 0.0673,-0.003 0.095,0.004 0.0335,0.008 0.0589,0.0289 0.0911,0.039 -0.0632,-0.0196 -0.1233,-0.0353 -0.1861,-0.0428 z m 6.26357,0.434 c 0.35734,0.30495 0.66611,0.65169 1.04683,1.0198 0.37024,0.35826 0.68215,0.80651 1.11856,1.12294 -0.12289,-0.0617 -0.25685,-0.12078 -0.34312,-0.19267 -0.70289,-0.58577 -1.13202,-1.37168 -1.82227,-1.95007 z m -4.21448,0.53908 c 0.51825,0.2228 1.04174,0.488 1.3764,0.85243 0.35241,0.38369 0.5394,0.88903 0.72115,1.36817 -0.50574,-0.83232 -1.20923,-1.70084 -2.09755,-2.2206 z m -4.43742,0.87579 c 0.53976,0.0379 1.03036,0.0273 1.51404,0.28415 0.44235,0.23522 0.75566,0.59844 1.06621,0.94583 -0.59459,-0.54066 -1.74401,-1.06912 -2.58025,-1.22998 z m 11.32326,1.00033 c 0.0622,0.0214 0.12244,0.045 0.18998,0.0603 0.23282,0.0529 0.45868,0.0545 0.68045,0.0292 -0.0405,0.026 -0.0913,0.0391 -0.12795,0.07 -0.14401,0.12232 -0.27945,0.28643 -0.40129,0.47291 7e-4,-0.20069 -0.0382,-0.37612 -0.15315,-0.49628 -0.0465,-0.0486 -0.11513,-0.0926 -0.18804,-0.13622 z m -16.06892,0.57217 c 0.11561,0.18701 0.29209,0.3136 0.50016,0.4087 -0.0879,0.003 -0.17575,0.005 -0.26363,0.0156 -0.0807,-0.13436 -0.16385,-0.27779 -0.23653,-0.42427 z m 3.96829,1.56083 c 0.17363,0.037 0.34738,0.0748 0.51954,0.11094 0.50324,0.10587 1.01785,0.17779 1.5121,0.31139 0.36578,0.0987 0.70158,0.25179 1.04683,0.38922 -0.42242,-0.11175 -0.83589,-0.23224 -1.22131,-0.36198 -0.61023,-0.20527 -1.23885,-0.30341 -1.85716,-0.44957 z m -7.37631,0.0428 c 0.42434,0.4786 1.08207,0.91164 1.70983,1.26113 -0.66858,-0.32234 -1.26149,-0.73119 -1.70983,-1.26113 z m 13.98106,0.97503 c -0.23918,0.0836 -0.47622,0.16487 -0.75604,0.17517 -0.38549,0.0142 -0.78216,-0.0151 -1.1806,-0.0643 0.1169,0.008 0.22814,0.0202 0.34894,0.0273 0.566,0.0326 1.0449,-0.0526 1.5877,-0.13819 z m -0.66881,1.67373 c 0.16274,5.8e-4 0.32695,0.0123 0.49239,0.0272 -0.44594,0.0503 -1.12142,-0.0372 -1.51789,0.13428 0.1813,0.0996 0.34353,0.22065 0.50596,0.34058 -0.11174,-0.0725 -0.2248,-0.14487 -0.35283,-0.2024 -0.25113,-0.11276 -0.4704,-0.10543 -0.74828,-0.12456 -0.24969,-0.0171 -0.50026,-0.0416 -0.75024,-0.0642 0.37223,0.0183 0.74437,0.0473 1.10693,0.0468 0.2689,-4.3e-4 0.5134,-0.0907 0.77544,-0.12651 0.16474,-0.0225 0.32578,-0.0321 0.48852,-0.0311 z"
     id="intestine"
     inkscape:connector-curvature="0" /><path
     style="fill:#6c9d31;stroke:#6c5635;stroke-width:0.13531306"
     d="m 397.87706,186.01908 c -0.41093,-0.0121 -0.82555,0.0425 -1.23649,0.17538 -2.71298,-0.22279 -5.88959,0.46317 -6.5358,2.53002 -0.88344,-0.26827 -1.87803,-0.0843 -2.72246,0.25665 -0.46215,0.18659 -0.52537,0.56866 -0.83959,0.8884 -0.39155,0.39791 -0.93567,0.49693 -1.46193,0.64672 -0.86137,0.2455 -1.22505,0.51964 -1.3458,1.38886 -0.37738,-0.0344 -0.76123,-0.0291 -1.13354,0.0633 -0.11937,0.0296 -0.90608,0.44991 -0.92351,0.44311 0.19207,0.0715 0.36746,0.22862 0.39508,0.42988 -0.79563,-0.39354 -1.40503,-0.7023 -2.26432,-0.33876 -0.7081,0.29937 -2.01389,1.04049 -1.78444,1.90598 -0.20018,-0.0675 -0.35863,-0.24868 -0.53885,-0.30584 -0.47981,-0.15176 -1.10771,0.0292 -1.57124,0.15442 -0.63449,0.17147 -2.19175,0.56619 -1.87289,1.42905 -1.35022,0.0931 -3.2636,-0.56847 -4.4139,0.39907 -0.005,0.0287 1.3e-4,0.0561 0.0142,0.0816 0.27056,0.0907 0.54806,0.21257 0.77474,0.36785 -0.0125,0.0206 -0.043,0.0912 -0.0514,0.1172 -0.90294,-0.28316 -1.81443,-1.0249 -2.83718,-0.61209 -0.66539,0.26872 -1.00661,1.12228 -0.19052,1.3542 -1.38462,-0.20782 -2.64017,-0.3796 -3.97393,-0.77291 -0.97773,-0.2882 -1.82142,-0.1867 -2.79729,-0.0501 -0.81561,0.11431 -1.59309,0.0233 -2.0829,-0.66085 -0.41546,-0.58057 -0.53414,-1.32977 -1.2968,-1.65106 -0.73621,-0.30987 -2.5929,-0.0988 -2.98238,0.63176 -0.24874,-0.32804 -1.4665,-0.6663 -1.93865,-0.74295 -0.91154,-0.14849 -1.88898,0.20187 -2.60496,0.70404 -0.80333,0.56282 -1.34462,1.17925 -1.6275,2.10101 -0.15443,0.50304 -0.46002,1.31227 -0.18552,1.79691 -0.7348,0.2074 -1.24715,0.97206 -1.44015,1.6271 -0.11495,0.38981 -0.0123,0.86046 -0.12654,1.22203 -0.0723,0.22797 -0.094,0.18441 -0.28624,0.40079 -0.59196,0.6662 -1.07117,1.05562 -1.11855,2.00519 -0.0181,0.36135 0.16585,0.86419 0.0962,1.1951 -0.0998,0.47479 -0.58571,0.80064 -0.65771,1.34222 -0.0484,0.36485 0.0684,0.65428 0.0993,1.01671 0.025,0.29544 0.0434,0.64879 -0.0467,0.88926 -0.073,0.19469 -0.30314,0.3515 -0.37466,0.55649 -0.23717,0.67886 0.0624,2.53735 0.90807,2.95562 -0.83808,0.0377 -1.15051,1.31414 -0.83007,2.00008 -1.01697,0.10731 -1.15395,2.073 -1.01831,2.74861 0.11716,0.58325 0.58673,1.35194 1.22017,1.71863 -1.31046,0.23067 -1.26416,2.72078 -0.92987,3.82094 0.17744,0.5834 0.56687,1.17367 0.88179,1.69467 0.28705,0.47435 0.33005,0.49859 0.20137,0.97053 -0.23919,0.87643 -0.33618,1.49084 0.11251,2.35851 0.18394,0.35544 0.69026,1.17404 1.168,1.18653 0.13608,2.38162 0.95741,4.94066 3.10074,6.38561 0.23853,0.16075 0.49394,0.30747 0.76613,0.43885 1.24387,0.60053 2.70294,0.33392 3.87322,1.08774 1.01834,0.65546 1.60121,1.4695 2.00532,2.5634 0.46355,1.25464 0.80928,2.65077 2.59634,2.2905 0.0697,-1.20165 -1.6447,-1.61034 -2.17723,-2.60831 -0.7629,-1.4305 -0.0513,-1.69712 0.76974,-2.69643 0.40643,-0.49517 0.37047,-0.93321 0.60782,-1.49406 0.27614,-0.65284 0.85863,-1.16214 1.16937,-1.80161 0.51928,-1.06915 1.07707,-2.22435 1.24011,-3.40476 0.1168,-0.84643 -0.10394,-1.55756 -0.61371,-2.2336 -0.0809,-0.10754 -2.49165,-3.30446 -2.72065,-2.8393 -0.10637,0.21616 -0.51013,0.65527 -0.74887,0.8931 0.1728,-0.27856 0.40505,-0.37335 0.53162,-0.65871 0.19275,-0.43492 0.16701,-1.07441 0.0658,-1.52358 -0.23853,-1.05907 -1.00043,-1.59408 -1.87015,-2.05353 -0.0902,0.0266 -0.17761,0.0635 -0.264,0.10521 0.13087,-0.10125 0.24384,-0.21076 0.31433,-0.33662 0.27522,-0.49033 0.15653,-1.36724 0.0485,-1.88758 -0.0975,-0.46976 -0.47826,-1.43892 -1.07953,-1.5655 -0.16514,-0.0347 -0.33772,0.0123 -0.50804,0.0945 0.42295,-0.34296 0.73902,-0.75987 0.82465,-1.35249 0.0836,-0.57683 -0.10589,-2.15317 -0.81328,-2.38289 0.37042,-0.48443 1.42091,-1.83081 0.37375,-2.24603 0.38482,-0.52209 1.09109,-2.49658 0.40507,-3.01123 0.50719,-0.78467 0.92647,-1.64217 0.77018,-2.56811 -0.068,-0.40382 -0.13925,-0.73231 -0.10024,-1.15059 0.007,-0.0771 0.26246,-1.15336 0.30845,-1.10869 -0.41035,-0.39661 -0.87025,-0.82553 -1.33356,-1.20877 1.70232,1.4086 2.99279,1.77515 5.22901,1.13435 -0.34163,0.20564 -0.73282,0.22789 -1.08955,0.37769 0.98123,0.98045 2.62067,1.28743 3.93538,0.98763 0.15374,-0.035 0.16465,-0.18098 0.36786,-0.17923 0.30237,0.002 0.79142,0.37449 1.06594,0.48377 0.72367,0.28798 2.22995,0.83329 2.932,0.26477 0.51721,0.81182 2.5551,0.32459 3.30896,0.17195 0.95474,-0.19381 1.28965,-0.32225 1.84703,-0.97224 0.37647,0.27069 2.27308,-0.0561 2.08333,-0.72885 0.0914,0.32389 1.87104,-0.25222 2.05614,-0.34048 0.65212,-0.31142 1.15827,-0.81839 1.51501,-1.41495 0.55619,0.90141 3.53212,-0.0852 3.68588,-1.05948 0.79564,0.0509 3.85012,-0.29222 3.34429,-1.57534 0.67075,0.34645 2.15504,0.14596 2.73563,-0.39694 0.26127,-0.24418 0.41174,-0.98486 0.68855,-1.13947 0.36369,-0.2028 1.37036,0.0951 1.82254,-0.0111 0.26613,-0.0626 0.43585,-0.10912 0.60282,-0.29855 0.0372,-0.0419 -0.0517,-0.22671 -0.004,-0.26306 0.24035,-0.18308 0.34688,-0.0184 0.81554,-0.0736 1.80704,-0.21374 1.91533,-1.81125 3.23003,-2.45818 0.28053,-0.13793 0.71913,-0.0602 1.18477,0.0312 0.10522,0.5638 0.11885,1.03958 0.0131,1.86234 -0.0233,0.17959 0.15383,5.6427 1.31407,4.91978 -0.91616,0.57093 -1.07004,1.49661 -1.23331,2.4646 -0.25034,1.48896 0.44052,1.60637 0.72756,2.79138 0.1751,0.72466 -0.0614,0.90499 -0.24676,1.77551 -0.25684,1.20298 0.3689,2.13725 0.39281,3.04632 0.0167,0.65064 -0.50927,1.13273 -0.66812,1.87688 -0.22018,1.03259 0.48632,1.43742 0.56064,2.30377 0.0408,0.47107 -0.71411,4.0925 -0.8718,4.32267 -0.54019,0.78926 -1.90553,0.89875 -2.42899,1.65233 -0.71321,1.02666 0.1705,2.32711 -0.32115,3.3748 -0.38762,0.82585 -1.77771,0.77314 -2.17995,1.88588 -0.34536,0.95636 0.18604,2.28317 0.17325,3.31706 -2.31704,-0.0675 -4.3075,1.54411 -4.74365,3.67036 -0.1045,0.51006 -7.72017,-1.58443 -8.47218,-1.62494 -2.6654,-0.14322 -4.67585,1.30528 -5.97154,3.35598 v 7e-4 c -1.39342,2.20509 -1.26421,3.79258 -0.93257,6.16192 0.78566,-0.12329 0.77614,1.69042 1.44197,1.66259 0.41316,2.03341 -0.82986,2.67437 -0.69445,4.68368 0.0213,0.31404 2.61934,5.45406 1.9001,5.26067 0.53345,0.14323 0.91647,0.14959 1.44921,0 0.44406,-2.23948 1.71235,-2.42466 2.12688,-4.60326 0.0845,-0.44392 -0.41692,-5.42023 -1.65197,-4.60796 3.73045,-2.45257 1.4132,-3.81304 0.71577,-6.54045 2.8252,1.77893 4.71451,2.77848 8.46448,2.34312 6.27462,-0.72884 10.7076,-1.26332 13.56646,-6.98446 0.36834,-0.73648 0.64346,-1.53364 1.15439,-2.19896 0.59778,-0.77898 1.50746,-1.2789 1.83841,-2.23789 0.20135,-0.58429 0.13494,-1.06649 0.48308,-1.56209 0.18832,-0.26784 0.56928,-0.38721 0.79014,-0.69249 0.8572,-1.18589 -0.14189,-2.00133 0.11567,-3.1618 0.22411,-1.0074 1.4374,-1.44338 1.46736,-2.80336 0.0154,-0.70102 -0.54425,-1.46475 -0.33338,-2.1592 0.17674,-0.58252 0.86552,-1.09242 1.13398,-1.70365 0.37878,-0.86265 0.44291,-1.66938 0.0568,-2.52063 -0.14536,-0.32061 -0.4852,-0.73986 -0.55834,-1.06419 -0.0703,-0.31187 0.10425,-0.56497 0.23315,-0.90509 0.36809,-0.97148 0.43892,-2.12129 0.10613,-3.09935 -0.20949,-0.61538 -0.4689,-0.94858 -0.28033,-1.60185 0.18277,-0.63379 0.68525,-1.17722 0.64228,-1.87561 -0.0381,-0.61801 -0.62823,-1.09844 -0.75341,-1.63608 -0.14652,-0.62939 0.38122,-0.99035 0.64365,-1.48594 0.24314,-0.45791 0.27301,-1.03227 0.1878,-1.52786 -0.16257,-0.94191 -1.04019,-1.4577 -0.45633,-2.39786 0.69254,-1.11603 1.37504,-2.12453 0.57244,-3.38466 -0.94893,-1.48568 -1.18445,-1.38131 -1.08182,-3.05271 0.0709,-1.14712 0.0895,-1.90127 -0.54522,-2.96034 -0.95561,-1.59437 -2.72412,-2.99147 -4.57398,-3.04632 z"
     id="colon"
     inkscape:connector-curvature="0" /><path
     style="fill:#cf7a01;fill-opacity:1;fill-rule:evenodd;stroke:#640000;stroke-width:0.32634494;stroke-linecap:butt;stroke-linejoin:miter;stroke-miterlimit:4;stroke-dasharray:none;stroke-opacity:1"
     d="m 495.01758,178.12891 c -1.16045,5.8e-4 -2.21604,0.12101 -3.17774,0.3457 -8.27767,1.50195 -9.42736,9.85759 -9.50586,15.11719 -0.10785,1.48835 -0.12542,2.89077 -0.11132,4.10156 0.12405,10.63878 6.07631,14.99029 11.45703,15.59766 2.48697,0.17312 9.92041,-1.77863 9.71875,-8.67579 -0.25987,-1.50964 -0.67515,-2.65171 -1.16602,-3.53711 -1.13423,-2.24581 -2.83193,-2.96793 -3.95898,-3.58398 -0.16837,-0.13383 -0.3069,-0.27128 -0.40821,-0.42773 -1.98733,-8.97338 6.45524,-0.22752 6.14649,-10.13477 -0.18415,-5.90918 -5.22116,-8.50886 -8.85156,-8.80273 -0.0472,-1.7e-4 -0.0958,0 -0.14258,0 z m 35.67578,7.43359 c -3.29685,0.30844 -7.87182,3.03776 -8.03906,9.24023 -0.28037,10.39898 7.38871,1.21797 5.58398,10.63672 -0.092,0.16423 -0.22013,0.31071 -0.37305,0.45117 -1.02349,0.64662 -2.56568,1.40248 -3.5957,3.75977 -0.44576,0.92932 -0.8226,2.12833 -1.05859,3.71289 -0.18313,7.23949 6.56964,9.28718 8.82812,9.10547 4.88634,-0.63752 10.28971,-5.20232 10.40235,-16.36914 0.0128,-1.27076 -0.004,-2.74457 -0.10157,-4.30664 -0.0713,-5.5206 -1.11361,-14.29061 -8.63086,-15.86719 -0.87336,-0.23586 -1.83287,-0.36268 -2.88671,-0.36328 -0.0425,-3e-5 -0.0861,-1.8e-4 -0.12891,0 z"
     id="kidneys"
     inkscape:connector-curvature="0" /><g
     transform="matrix(-0.4370795,0,0,0.40639406,881.76839,-142.9994)"
     id="g6092-2-6"
     inkscape:label="Layer 1" /><path
     sodipodi:nodetypes="cssssssssssssssssss"
     id="bladder"
     d="m 372.76028,248.70366 c -0.0379,0.75587 0.11626,3.35715 0.0403,3.7834 -0.0528,0.29589 -0.55702,0.58904 -0.88549,0.5877 -0.40571,0 -1.10977,-0.36497 -1.08674,-0.73462 0.0496,-0.79581 -0.17014,-3.19742 -0.16099,-3.63648 0.018,-0.86571 -2.74012,-1.96915 -3.86396,-2.90182 -0.85392,-0.70868 -1.94678,-1.72491 -2.57597,-2.60799 -0.53332,-0.74852 -1.22155,-1.83062 -1.32823,-2.71815 -0.0726,-0.60366 0.18057,-1.42537 0.44274,-1.98353 0.44079,-0.93845 1.2692,-2.143 2.13323,-2.79164 0.85594,-0.64255 2.29805,-1.14374 3.38096,-1.35908 1.66368,-0.33083 4.00007,-0.35216 5.67518,-0.0735 0.77869,0.12956 1.77803,0.5076 2.45522,0.88158 0.91548,0.50556 1.95654,1.42526 2.69672,2.13045 0.30916,0.29455 0.77293,0.68194 0.92574,1.06523 0.30151,0.75623 0.31952,1.90683 0.0805,2.68144 -0.23423,0.75905 -1.0392,1.58149 -1.56973,2.20394 -1.05978,1.24335 -2.64978,2.62705 -3.86395,3.74663 -0.27733,0.25574 -2.45393,0.89846 -2.49548,1.72641 z"
     style="fill:#eb8f90;fill-opacity:1;fill-rule:evenodd;stroke:#000000;stroke-width:0.18788554;stroke-linecap:butt;stroke-linejoin:miter;stroke-miterlimit:4;stroke-dasharray:none;stroke-opacity:1"
     inkscape:connector-curvature="0" /><path
     inkscape:connector-curvature="0"
     style="fill:url(#linearGradient741);stroke:#fff200;stroke-width:0.09483412"
     id="pancreas"
     d="m 519.88212,206.32757 c -0.16068,-0.10221 -0.31084,-0.24677 -0.44798,-0.42301 -0.23333,1.50022 -2.44548,0.69908 -2.66515,-0.38004 -0.67724,0.71278 -2.80324,0.83648 -2.84608,-0.5238 -0.83572,0.7209 -3.41424,0.92899 -2.84842,-0.81261 -0.74079,1.04856 -1.397,0.64575 -1.40704,-0.44818 -0.77138,0.84254 -1.90821,-0.21652 -2.1668,-1.01767 0.21779,0.67441 -1.29672,0.3837 -1.50714,0.22289 -0.30771,-0.23483 -0.29781,-0.58366 -0.4913,-0.86307 -0.0829,-0.11893 -0.53302,-0.52093 -0.56566,-0.63509 -0.40327,-1.40423 1.18076,-2.09711 2.28386,-1.52586 -0.0871,0.18818 -0.21544,0.29533 -0.34946,0.44928 0.61558,-0.57284 1.98605,0.14791 2.31666,-0.19741 -0.18515,0.19343 -0.3827,0.45677 -0.58418,0.61168 0.52613,-0.55373 1.60474,-0.54721 2.27225,-0.32925 -0.27414,0.17656 -0.50683,0.43352 -0.7331,0.62029 0.71285,-0.61726 1.56928,-0.60022 2.45191,-0.42255 -0.20979,0.15857 -0.44782,0.43241 -0.67613,0.60548 0.59987,-0.77122 1.60678,-0.87518 2.4949,-0.76866 -0.0723,0.27765 -0.16303,0.58923 -0.30739,0.84046 0.56912,-0.98949 2.25593,-1.34931 3.18939,-0.78697 -0.25749,0.33339 -0.5302,0.72202 -0.49098,1.15124 0.62092,-1.31077 2.00017,-1.92007 3.33486,-1.24183 -0.3769,0.42477 -0.63502,1.07753 -0.75176,1.60085 0.2079,-0.9317 1.19472,-1.72775 2.13981,-1.62777 0.4654,0.0494 2.5004,0.55056 1.83619,1.31157 0.74878,-0.37604 1.60975,0.16749 1.53899,1.03472 -0.0239,0.29326 -0.18955,0.55102 -0.21575,0.85145 -0.0198,0.2291 0.0693,0.37781 0.088,0.57156 0.0309,0.32304 -0.14514,0.59274 -0.28259,0.92852 -0.37079,0.90558 -1.5823,0.90558 -2.20148,0.23339 0.0144,0.0603 0.004,0.16065 0.01,0.1917 -0.13997,-0.0762 -0.22077,-0.22911 -0.25812,-0.38497 0.0949,0.39738 -0.84011,1.04298 -1.10294,1.18802 -0.38459,0.21207 -0.74157,0.17578 -1.05696,-0.0243 z" /></svg>